<svg width="33" height="28" viewBox="0 0 33 28" fill="none" xmlns="http://www.w3.org/2000/svg">
<path fill-rule="evenodd" clip-rule="evenodd" d="M3.97042 0.0343499C2.38463 0.202267 1.02176 1.14021 0.376524 2.50767C0.106216 3.08056 0.0298103 3.40262 0.00673381 4.06649C-0.00912892 4.52294 0.000539854 4.6815 0.0627444 4.98465C0.141303 5.36755 0.350313 5.8694 0.557737 6.17312C1.10806 6.97895 2.10367 7.43982 3.07546 7.33853C3.69867 7.27358 4.1755 7.07526 4.61569 6.69799C5.6187 5.83823 5.80951 4.27409 5.00708 3.48953C4.86515 3.35076 4.75589 3.29307 4.81378 3.38748C4.83063 3.41491 4.82413 3.42104 4.79652 3.40384C4.7722 3.38869 4.76234 3.35997 4.77458 3.33999C4.81934 3.26705 4.44373 3.14186 4.16859 3.13798C3.8093 3.13292 3.59307 3.22135 3.37953 3.46065C3.17596 3.68872 3.09173 3.92174 3.09173 4.25674C3.09173 4.7528 3.32518 5.12631 3.7131 5.251C3.81594 5.28407 3.90689 5.33159 3.91516 5.35663C3.92347 5.3817 3.83928 5.49376 3.72817 5.60571C3.56864 5.76639 3.47893 5.82301 3.30218 5.87476C2.91479 5.98815 2.45934 5.88808 2.09752 5.61008C2.02787 5.55655 1.9625 5.52124 1.95222 5.53162C1.94191 5.54197 1.9333 5.52904 1.933 5.50289C1.93273 5.47672 1.87755 5.37375 1.81036 5.27402C1.61888 4.98986 1.53507 4.70631 1.51532 4.27577C1.48718 3.66197 1.64014 3.18881 2.04619 2.63385C2.64388 1.81686 3.87052 1.36132 4.90564 1.57186C6.00394 1.79529 6.77997 2.47681 7.1688 3.55935C7.2364 3.74759 7.43605 4.62777 7.66141 5.73101C7.86985 6.75133 8.07343 7.74027 8.1138 7.92862C8.18378 8.25494 8.75484 10.9876 9.19526 13.1035C9.30853 13.6476 9.51871 14.6664 9.66238 15.3675C9.80601 16.0686 10.043 17.2194 10.189 17.9249C10.5272 19.559 10.5612 19.8134 10.4794 20.0968C10.4043 20.3571 10.2888 20.4997 9.98885 20.7029C8.74287 21.5467 8.00521 22.8035 7.93708 24.1984C7.8822 25.322 8.24591 26.3134 8.97076 27.0157C9.41613 27.4474 9.90387 27.7109 10.5609 27.8748C10.9646 27.9756 11.8207 27.9647 12.2317 27.8535C13.281 27.5696 14.0917 26.8903 14.4992 25.9539C15.0699 24.6425 14.6719 23.1643 13.6021 22.6216C13.197 22.416 12.9477 22.3563 12.4961 22.3568C12.168 22.3571 12.0521 22.374 11.8252 22.4545C11.1352 22.6992 10.6869 23.2015 10.5653 23.866C10.5125 24.1552 10.5552 24.4161 10.6932 24.6462C10.8501 24.9079 11.2073 25.0036 11.4146 24.8393C11.5004 24.7713 11.5141 24.7318 11.5141 24.5524C11.5141 24.0798 11.8704 23.7386 12.3639 23.7386C12.7192 23.7386 12.9939 23.909 13.1551 24.2294C13.3957 24.7079 13.262 25.3643 12.8245 25.8521C12.2621 26.4793 11.2473 26.6228 10.4535 26.1875C10.2002 26.0486 9.8397 25.6494 9.70468 25.3582C9.43649 24.78 9.41485 24.1273 9.64214 23.4719C9.9004 22.7271 10.4936 22.0625 11.1882 21.7398C11.7954 21.4577 11.3443 21.4799 16.9339 21.4565L21.9571 21.4354L22.3159 21.3357C23.0213 21.1398 23.5301 20.8711 24.0201 20.4359C24.6727 19.8561 25.0978 19.1939 25.405 18.2784C25.5749 17.7723 26.1249 16.1573 27.187 13.0464C28.5386 9.0876 29.1159 7.43944 29.249 7.16018C29.5019 6.62911 29.9234 6.31474 30.427 6.28148C30.7813 6.25808 30.9867 6.33346 31.1841 6.55944C31.5004 6.92146 31.4894 7.4445 31.1581 7.79536C30.9948 7.96826 30.803 8.01891 30.5597 7.95339C30.2205 7.86199 29.9615 7.92169 29.786 8.13177C29.6455 8.29999 29.5919 8.49154 29.6218 8.71839C29.6581 8.99456 29.7644 9.17641 29.9696 9.31331C30.2161 9.4778 30.4014 9.52537 30.776 9.52027C31.6439 9.50843 32.431 8.9123 32.8026 7.98527C33.2826 6.78828 32.8596 5.47131 31.8335 4.96737C31.4047 4.7568 31.1331 4.69817 30.606 4.70227C29.8496 4.70821 29.1853 4.94812 28.5865 5.43159C28.403 5.57976 28.2182 5.69022 28.0578 5.7476L27.8112 5.83584L18.5535 5.84581L9.2958 5.85577L9.21226 5.44628C9.16633 5.22105 9.06885 4.73713 8.99565 4.37089C8.6858 2.8203 8.32187 2.02234 7.58931 1.28728C6.81366 0.508992 5.94944 0.123464 4.77873 0.033475C4.50522 0.0124711 4.27294 -0.0024448 4.26255 0.00033289C4.25217 0.00314863 4.1207 0.0184448 3.97042 0.0343499ZM9.62567 7.48183C9.62567 7.51211 10.2303 10.4536 10.398 11.239C10.4516 11.4901 10.5795 12.1066 10.6822 12.6088C10.7849 13.1111 11.04 14.3525 11.249 15.3675C11.6872 17.4947 11.931 18.688 12.0654 19.3628C12.1175 19.6244 12.1733 19.8518 12.1896 19.8682C12.2058 19.8846 14.3591 19.8925 16.9748 19.8858C22.1657 19.8724 21.8277 19.8869 22.3283 19.6561C22.7969 19.4399 23.1317 19.1484 23.4446 18.6842C23.6766 18.3401 23.7861 18.0844 24.1238 17.0988C24.5801 15.7664 25.1403 14.135 25.28 13.7313C25.6982 12.523 26.1269 11.2746 26.2993 10.7634C26.4086 10.439 26.5698 9.96812 26.6574 9.71699C26.8772 9.0868 27.4146 7.49279 27.4146 7.47091C27.4146 7.46105 23.4121 7.45298 18.5201 7.45298C13.6282 7.45298 9.62567 7.46596 9.62567 7.48183ZM15.344 8.99102C14.4075 9.20616 13.6181 9.96165 13.3869 10.864C13.2324 11.4669 13.3784 12.1692 13.7336 12.5322C14.1648 12.9729 14.9674 13.02 15.3483 12.6271C15.429 12.5438 15.4741 12.4757 15.4484 12.4757C15.4131 12.4757 15.4116 12.4567 15.4426 12.3985C15.4651 12.3561 15.4998 12.3314 15.5195 12.3437C15.5703 12.3753 15.6308 12.1946 15.6308 12.0116C15.6308 11.7388 15.497 11.5875 15.1653 11.4851C14.7186 11.3472 14.8173 10.6799 15.3238 10.4133C15.4797 10.3312 15.578 10.3068 15.7522 10.3068C16.157 10.3068 16.3878 10.4946 16.4704 10.8909C16.5275 11.1655 16.5536 11.0531 15.7597 13.9596C15.4521 15.0855 15.0609 16.5253 14.7589 17.6425C14.6554 18.0253 14.5808 18.3549 14.5932 18.375C14.6061 18.3961 14.9006 18.4115 15.2918 18.4115C15.9271 18.4115 15.9705 18.407 16.0081 18.3362C16.0301 18.2948 16.0378 18.2134 16.0253 18.1555C16.0106 18.0876 16.0146 18.0673 16.0366 18.0986C16.0593 18.1308 16.1761 17.7588 16.3832 16.9951C16.555 16.3615 16.8029 15.4579 16.9339 14.987C17.1669 14.1501 17.6643 12.3016 17.8401 11.6195C17.9646 11.1365 17.9866 10.8053 17.9183 10.4459C17.839 10.0295 17.71 9.76843 17.4635 9.52601C17.2218 9.28827 17.0183 9.16001 16.7042 9.04742C16.414 8.94342 15.6832 8.9131 15.344 8.99102ZM22.618 9.22755C22.1074 9.30266 21.6486 9.51156 21.3106 9.82281C21.0534 10.0596 20.7695 10.492 20.6222 10.8712C20.5599 11.0316 20.3382 11.7793 20.1295 12.5327C19.9207 13.2861 19.5531 14.6046 19.3125 15.4626C18.6258 17.9118 18.5269 18.2869 18.5515 18.3513C18.5712 18.403 18.6669 18.4115 19.2319 18.4115C19.7312 18.4115 19.8994 18.3994 19.9309 18.3612C19.9537 18.3335 20.0417 18.0638 20.1264 17.7619C20.2111 17.46 20.406 16.7678 20.5594 16.2236C20.7129 15.6795 20.8545 15.1744 20.8741 15.1011C20.8938 15.0279 21.0293 14.5485 21.1752 14.0357C21.3212 13.523 21.5204 12.8124 21.6178 12.4566C21.9032 11.415 21.9356 11.3178 22.08 11.0719C22.1967 10.8731 22.2511 10.8209 22.4426 10.7246C22.7097 10.5901 22.762 10.5866 22.9623 10.6895C23.3657 10.8969 23.2336 11.5024 22.7676 11.5817C22.5578 11.6174 22.4669 11.7143 22.4669 11.902C22.4669 12.3278 23.0671 12.4999 23.6024 12.2274C23.8764 12.088 23.9581 12.0196 24.1525 11.7675C24.5194 11.2914 24.6019 10.6042 24.3537 10.0907C24.0552 9.47335 23.3457 9.12051 22.618 9.22755ZM22.5628 22.371C21.795 22.4909 21.0863 22.8919 20.6314 23.4638C20.3988 23.7563 20.1382 24.3024 20.0645 24.6518C20.0206 24.8601 20.0101 25.0451 20.0258 25.3367C20.0521 25.822 20.1122 26.0559 20.3193 26.4782C20.4471 26.739 20.5443 26.8686 20.8209 27.1474C21.1096 27.4383 21.2207 27.5212 21.5227 27.6709C22.0299 27.9224 22.369 28.0003 22.9545 28C23.55 27.9997 23.9315 27.9135 24.4293 27.6669C24.7362 27.515 24.8432 27.4347 25.1504 27.1261C25.4513 26.8237 25.5366 26.71 25.6653 26.4402C25.9034 25.9407 25.9588 25.6976 25.9597 25.1465C25.9606 24.6326 25.8908 24.3159 25.6878 23.9124C25.3316 23.2041 24.6314 22.6571 23.8098 22.4454C23.4794 22.3603 22.8657 22.3237 22.5628 22.371ZM22.3597 23.8144C21.9251 23.9719 21.6252 24.2293 21.4213 24.6199C21.3237 24.8068 21.3153 24.8565 21.3151 25.2423C21.315 25.6548 21.3171 25.6649 21.4442 25.8646C21.6282 26.1537 21.9152 26.3394 22.1759 26.3381C22.4506 26.3367 22.6146 26.3072 22.6674 26.2498C22.7029 26.2111 22.7011 26.2072 22.6587 26.2316C22.6191 26.2544 22.6216 26.2386 22.6681 26.1717C22.7565 26.0446 22.7481 26.0097 22.6146 25.9501C22.4415 25.8729 22.3539 25.7013 22.3538 25.4389C22.3536 25.2164 22.4057 25.0513 22.4645 25.0879C22.482 25.0988 22.4938 25.0778 22.491 25.0414C22.4877 24.9988 22.5462 24.9439 22.6558 24.8872C22.8927 24.7644 23.2239 24.7827 23.4458 24.9306C23.5321 24.9881 23.5993 25.056 23.5951 25.0813C23.591 25.1067 23.6009 25.175 23.6171 25.2331C23.6393 25.3131 23.6581 25.329 23.6946 25.2985C23.8131 25.1994 23.8719 25.793 23.7699 26.0597C23.742 26.1329 23.7177 26.1702 23.7162 26.1426C23.7139 26.1036 23.7006 26.1051 23.6566 26.1494C23.5868 26.2197 23.5791 26.3435 23.6472 26.3012C23.7036 26.2662 23.5841 26.4619 23.4752 26.5827C23.4329 26.6297 23.4058 26.6758 23.415 26.685C23.4242 26.6943 23.5321 26.6608 23.6548 26.6106C23.9326 26.4969 24.2305 26.2089 24.3987 25.8917C24.5039 25.6933 24.5237 25.6124 24.5375 25.3263C24.556 24.9401 24.5091 24.731 24.3457 24.4713C24.2836 24.3728 24.2298 24.2711 24.2261 24.2455C24.2161 24.1768 24.0858 24.0418 24.0506 24.0637C24.0339 24.074 23.9385 24.0302 23.8385 23.9663C23.5736 23.7971 23.3364 23.7384 22.9227 23.74C22.6643 23.741 22.5039 23.7622 22.3597 23.8144ZM24.1099 24.1572C24.1474 24.199 24.1867 24.2333 24.1971 24.2333C24.2075 24.2333 24.1852 24.199 24.1476 24.1572C24.11 24.1153 24.0708 24.0811 24.0604 24.0811C24.05 24.0811 24.0723 24.1153 24.1099 24.1572ZM21.5479 24.2206C21.534 24.2345 21.5227 24.2636 21.5227 24.2853C21.5227 24.3091 21.5403 24.3069 21.5674 24.2796C21.592 24.2548 21.6033 24.2257 21.5926 24.2149C21.5819 24.204 21.5617 24.2066 21.5479 24.2206Z" fill="#1E2113"/>
</svg>
