<svg width="1175" height="419" viewBox="0 0 1175 419" fill="none" xmlns="http://www.w3.org/2000/svg">
<path d="M290.055 418.109C279.41 418.109 271.549 416.156 266.471 412.25C261.49 408.344 259 403.607 259 398.041C259 393.744 260.514 390.668 263.541 388.812C266.666 386.859 269.742 385.883 272.77 385.883C274.234 385.883 275.797 386.42 277.457 387.494C279.215 388.568 280.094 390.277 280.094 392.621C280.094 394.477 279.264 396.186 277.604 397.748C275.943 399.213 273.99 399.945 271.744 399.945C270.475 399.945 269.254 399.848 268.082 399.652C266.91 399.457 265.836 399.066 264.859 398.48V399.213C264.859 403.51 266.959 407.074 271.158 409.906C275.357 412.641 281.021 414.008 288.15 414.008C294.4 414.008 300.357 412.934 306.021 410.785C311.783 408.637 318.082 404.535 324.918 398.48C331.852 392.426 340.006 383.588 349.381 371.967C358.854 360.346 370.475 345.062 384.244 326.117C378.775 322.504 376.041 318.207 376.041 313.227C376.041 308.832 377.945 305.219 381.754 302.387C385.562 299.555 389.566 298.139 393.766 298.139C395.621 298.139 396.695 298.383 396.988 298.871C397.281 299.359 397.428 299.604 397.428 299.604C397.428 300.189 396.842 300.58 395.67 300.775C391.178 301.459 387.76 303.217 385.416 306.049C383.072 308.881 381.9 312.201 381.9 316.01C381.9 318.256 383.512 320.453 386.734 322.602L388.785 319.818C399.43 305.463 409.488 292.865 418.961 282.025C428.531 271.186 438.004 261.518 447.379 253.021C456.852 244.428 466.812 236.566 477.262 229.438L483.268 225.482C477.924 222.201 471.14 219.685 462.917 217.934C462.574 217.861 462.229 217.789 461.881 217.719C460.473 217.434 459.023 217.172 457.531 216.934C452.373 216.109 446.711 215.56 440.543 215.286C437.478 215.15 434.288 215.082 430.973 215.082C428.439 215.082 425.923 215.131 423.425 215.228C407.536 215.847 392.376 218.435 377.945 222.992C361.344 228.266 346.695 235.199 334 243.793C321.305 252.289 311.393 261.615 304.264 271.771C297.232 281.83 293.863 291.693 294.156 301.361C294.449 309.369 296.793 314.936 301.188 318.061C305.582 321.186 309.879 322.748 314.078 322.748C314.433 322.748 317.794 322.605 319 322.316C320.5 323.316 328.549 320.383 335.318 316.303C342.447 312.006 349.234 306.488 355.68 299.75C362.223 293.012 368.082 285.883 373.258 278.363C378.434 270.844 386.375 266.457 389.5 259.816C390.677 257.355 391.129 257.093 391.253 257.556C391.468 258.361 390.69 261.358 391 258.816C391.043 258.333 391.131 257.916 391.253 257.556C391.97 255.448 393.873 255.316 394.791 255.316C395.768 255.316 396.988 251.289 396.988 254.316C397.281 262.812 393.424 258.295 389.811 268.256C387.328 275.032 385.192 282.144 379.875 287.892C377.125 290.816 373.741 294.316 371.251 296.816C363 305.316 353.588 313.152 343.431 318.816C333.275 324.48 326.334 326.703 313.639 326.703C308.17 326.703 302.848 324.457 297.672 319.965C292.496 315.473 289.811 309.564 289.615 302.24C289.322 292.67 291.812 283.441 297.086 274.555C302.359 265.668 309.684 257.416 319.059 249.799C328.434 242.182 339.176 235.541 351.285 229.877C363.492 224.213 376.383 219.818 389.957 216.693C401.997 213.835 414.036 212.244 426.076 211.921C427.611 211.88 429.145 211.859 430.68 211.859C434.93 211.859 439.02 211.972 442.95 212.197C449.589 212.577 455.771 213.277 461.497 214.299C462.119 214.41 462.735 214.524 463.346 214.643C464.498 214.866 465.632 215.101 466.747 215.347C474.896 217.144 482.063 219.546 488.248 222.553C494.303 219.135 511.914 210.269 516.504 208.707C521.191 207.144 524.707 206.363 527.051 206.363C528.906 206.363 529.883 206.851 529.98 207.828C529.98 208.414 529.736 208.902 529.248 209.293C528.857 209.683 527.832 209.976 526.172 210.172C519.727 211.441 500.65 220.746 493.521 225.336C501.432 230.023 507.34 235.639 511.246 242.182C515.152 248.725 517.105 255.805 517.105 263.422C517.105 272.504 514.469 281.293 509.195 289.789C503.922 298.285 496.793 305.902 487.809 312.641C478.824 319.379 468.668 324.75 457.34 328.754C446.109 332.66 434.488 334.613 422.477 334.613C414.762 334.613 407.633 333.93 401.09 332.562C385.074 354.047 370.426 371.039 357.145 383.539C343.863 395.941 331.656 404.828 320.523 410.199C309.488 415.473 299.332 418.109 290.055 418.109ZM421.891 330.805C429.703 330.805 438.102 329.193 447.086 325.971C456.07 322.65 464.518 317.768 472.428 311.322C480.436 304.877 486.93 296.869 491.91 287.299C496.988 277.631 499.527 266.498 499.527 253.9C499.527 243.549 495.768 235.248 488.248 228.998C477.604 236.713 466.422 247.504 454.703 261.371C442.984 275.238 430.582 291.352 417.496 309.711C415.152 313.129 412.857 316.449 410.611 319.672C408.365 322.797 406.119 325.873 403.873 328.9C409.928 330.17 415.934 330.805 421.891 330.805Z" fill="#FCAEBD"/>
<path d="M463.053 418.109C456.803 418.109 452.213 416.4 449.283 412.982C446.451 409.564 445.035 404.877 445.035 398.92C445.035 392.377 446.402 385.395 449.137 377.973C451.969 370.551 456.607 363.178 463.053 355.854C476.236 340.521 488.541 330.316 499.967 325.238C511.49 320.062 522.281 317.475 532.34 317.475C537.418 317.475 541.715 318.549 545.23 320.697C548.746 322.846 550.504 325.775 550.504 329.486C550.504 332.318 549.918 335.199 548.746 338.129C551.871 334.418 554.508 331.195 556.656 328.461C558.902 325.629 561.051 322.943 563.102 320.404C565.641 321.186 568.57 321.576 571.891 321.576C573.258 321.576 575.113 321.527 577.457 321.43C579.801 321.332 581.607 321.186 582.877 320.99L533.512 380.463C527.262 387.885 522.77 393.939 520.035 398.627C517.301 403.217 515.934 406.781 515.934 409.32C515.934 412.445 517.447 414.008 520.475 414.008C525.748 414.008 531.217 412.494 536.881 409.467C542.545 406.342 548.111 402.387 553.58 397.602C559.049 392.719 564.176 387.689 568.961 382.514C573.746 377.24 577.945 372.406 581.559 368.012C585.27 363.52 588.102 360.199 590.055 358.051L592.984 360.541C590.836 362.982 587.809 366.498 583.902 371.088C579.996 375.678 575.504 380.658 570.426 386.029C565.445 391.4 560.025 396.527 554.166 401.41C548.404 406.293 542.447 410.297 536.295 413.422C530.24 416.547 524.234 418.109 518.277 418.109C508.512 418.109 503.629 415.082 503.629 409.027C503.629 406.781 504.02 404.535 504.801 402.289C505.68 399.945 507.389 396.967 509.928 393.354C512.467 389.643 516.275 384.711 521.354 378.559L519.889 377.973C507.975 392.621 496.939 402.973 486.783 409.027C476.725 415.082 468.814 418.109 463.053 418.109ZM463.639 413.715C469.889 413.715 478.141 410.102 488.395 402.875C498.648 395.551 510.953 383.393 525.309 366.4C527.652 363.568 529.801 360.932 531.754 358.49C533.805 356.049 535.758 353.754 537.613 351.605C539.859 348.188 541.861 344.623 543.619 340.912C545.475 337.201 546.402 333.832 546.402 330.805C546.402 327.777 545.328 325.58 543.18 324.213C541.031 322.748 538.688 322.016 536.148 322.016C531.363 322.016 523.6 325.482 512.857 332.416C502.213 339.252 490.494 350.238 477.701 365.375C470.377 374.164 465.104 381.977 461.881 388.812C458.658 395.648 457.047 401.41 457.047 406.098C457.047 411.176 459.244 413.715 463.639 413.715Z" fill="#FCAEBD"/>
<path d="M578.922 418.109C567.984 418.109 562.516 414.057 562.516 405.951C562.516 402.436 563.199 398.871 564.566 395.258C565.934 391.547 568.668 386.762 572.77 380.902C576.773 375.043 582.779 367.084 590.787 357.025C595.084 351.557 600.357 345.6 606.607 339.154C612.955 332.709 619.84 325.775 627.262 318.354C630.387 318.646 632.682 318.891 634.146 319.086C635.611 319.184 637.467 319.232 639.713 319.232C644.107 319.232 647.623 319.086 650.26 318.793C643.521 324.848 638.102 330.023 634 334.32C629.996 338.52 626.334 342.572 623.014 346.479C619.693 350.287 615.738 354.633 611.148 359.516C608.707 362.055 605.387 365.473 601.188 369.77C596.988 374.066 592.691 378.656 588.297 383.539C584 388.324 580.338 392.865 577.311 397.162C574.283 401.459 572.77 404.926 572.77 407.562C572.77 410.785 573.502 412.738 574.967 413.422C576.529 414.008 578.531 414.301 580.973 414.301C588.199 414.301 596.012 412.396 604.41 408.588C612.809 404.682 621.256 399.701 629.752 393.646C638.248 387.494 646.256 381.146 653.775 374.604C660.904 368.256 666.178 362.494 669.596 357.318C673.014 352.045 675.26 346.918 676.334 341.938C677.408 336.957 677.945 331.732 677.945 326.264C677.945 322.65 679.068 319.721 681.314 317.475C683.561 315.131 686.295 313.959 689.518 313.959C694.986 313.959 697.721 316.645 697.721 322.016C697.721 324.75 696.988 328.119 695.523 332.123C694.156 336.029 691.373 340.814 687.174 346.479C682.975 352.143 676.773 358.979 668.57 366.986L664.615 370.648C661.295 375.141 659.293 379.438 658.609 383.539C657.926 387.543 660.221 389.545 665.494 389.545C668.814 389.545 672.525 388.373 676.627 386.029C680.826 383.588 684.977 380.658 689.078 377.24C693.18 373.725 696.939 370.258 700.357 366.84C703.873 363.324 706.559 360.492 708.414 358.344L711.49 360.834C708.268 364.35 703.922 368.695 698.453 373.871C693.082 378.949 687.369 383.441 681.314 387.348C675.26 391.254 669.596 393.207 664.322 393.207C659.537 393.207 656.51 391.791 655.24 388.959C654.068 386.127 654.557 382.367 656.705 377.68C649.479 383.734 641.275 389.887 632.096 396.137C622.916 402.387 613.639 407.611 604.264 411.811C594.986 416.01 586.539 418.109 578.922 418.109Z" fill="#FCAEBD"/>
<path d="M775.064 289.496C772.33 289.496 770.133 288.666 768.473 287.006C766.91 285.248 766.129 283.051 766.129 280.414C766.129 276.996 767.545 273.871 770.377 271.039C773.307 268.109 776.773 266.645 780.777 266.645C783.512 266.645 785.66 267.572 787.223 269.428C788.883 271.186 789.713 273.334 789.713 275.873C789.713 279.486 788.15 282.66 785.025 285.395C781.998 288.129 778.678 289.496 775.064 289.496ZM700.211 418.109C694.254 418.109 689.469 417.035 685.855 414.887C682.145 412.641 680.289 409.662 680.289 405.951C680.289 403.021 681.021 399.652 682.486 395.844C683.951 391.938 686.783 386.859 690.982 380.609C695.084 374.359 701.09 366.254 709 356.293C717.008 346.234 727.506 333.637 740.494 318.5C741.373 318.598 743.473 318.695 746.793 318.793C750.113 318.891 752.701 318.939 754.557 318.939C756.217 318.939 757.438 318.939 758.219 318.939C759.098 318.842 759.928 318.744 760.709 318.646C746.451 335.443 734.781 349.262 725.699 360.102C716.715 370.941 709.781 379.584 704.898 386.029C700.016 392.475 696.646 397.406 694.791 400.824C692.936 404.242 692.008 406.977 692.008 409.027C692.008 411.566 693.375 413.031 696.109 413.422C698.844 413.812 701.041 414.008 702.701 414.008C707.975 414.008 713.736 412.25 719.986 408.734C726.236 405.121 732.438 400.678 738.59 395.404C744.84 390.033 750.602 384.613 755.875 379.145C761.246 373.676 765.641 368.988 769.059 365.082C772.477 361.078 774.479 358.783 775.064 358.197L777.994 360.834C776.92 362.006 774.576 364.691 770.963 368.891C767.35 373.09 762.857 377.973 757.486 383.539C752.115 389.008 746.207 394.379 739.762 399.652C733.414 404.926 726.822 409.32 719.986 412.836C713.248 416.352 706.656 418.109 700.211 418.109Z" fill="#FCAEBD"/>
<path d="M764.371 418.109C760.27 418.109 756.9 416.986 754.264 414.74C751.529 412.396 750.162 409.564 750.162 406.244C750.162 403.607 750.504 401.068 751.188 398.627C751.773 396.088 753.189 392.865 755.436 388.959C757.584 384.955 760.904 379.584 765.396 372.846C769.889 366.107 775.992 357.172 783.707 346.039L896.939 184.174C898.307 184.271 900.016 184.418 902.066 184.613C904.215 184.809 907.242 184.857 911.148 184.76C911.93 184.76 912.809 184.711 913.785 184.613C914.859 184.418 916.031 184.271 917.301 184.174L796.891 351.312C788.102 363.617 781.217 373.383 776.236 380.609C771.256 387.738 767.594 393.207 765.25 397.016C762.906 400.727 761.441 403.412 760.855 405.072C760.27 406.635 759.977 408.002 759.977 409.174C759.977 412.396 762.271 414.008 766.861 414.008C772.623 414.008 778.678 412.299 785.025 408.881C791.471 405.463 797.818 401.215 804.068 396.137C810.318 390.961 816.08 385.688 821.354 380.316C826.627 374.945 831.07 370.209 834.684 366.107C838.395 362.006 840.836 359.418 842.008 358.344L844.938 360.834C843.668 362.104 841.129 364.838 837.32 369.037C833.512 373.236 828.824 378.119 823.258 383.686C817.691 389.154 811.588 394.525 804.947 399.799C798.404 405.072 791.617 409.467 784.586 412.982C777.652 416.4 770.914 418.109 764.371 418.109Z" fill="#FCAEBD"/>
<path d="M908.365 289.496C905.631 289.496 903.434 288.666 901.773 287.006C900.211 285.248 899.43 283.051 899.43 280.414C899.43 276.996 900.846 273.871 903.678 271.039C906.607 268.109 910.074 266.645 914.078 266.645C916.812 266.645 918.961 267.572 920.523 269.428C922.184 271.186 923.014 273.334 923.014 275.873C923.014 279.486 921.451 282.66 918.326 285.395C915.299 288.129 911.979 289.496 908.365 289.496ZM833.512 418.109C827.555 418.109 822.77 417.035 819.156 414.887C815.445 412.641 813.59 409.662 813.59 405.951C813.59 403.021 814.322 399.652 815.787 395.844C817.252 391.938 820.084 386.859 824.283 380.609C828.385 374.359 834.391 366.254 842.301 356.293C850.309 346.234 860.807 333.637 873.795 318.5C874.674 318.598 876.773 318.695 880.094 318.793C883.414 318.891 886.002 318.939 887.857 318.939C889.518 318.939 890.738 318.939 891.52 318.939C892.398 318.842 893.229 318.744 894.01 318.646C879.752 335.443 868.082 349.262 859 360.102C850.016 370.941 843.082 379.584 838.199 386.029C833.316 392.475 829.947 397.406 828.092 400.824C826.236 404.242 825.309 406.977 825.309 409.027C825.309 411.566 826.676 413.031 829.41 413.422C832.145 413.812 834.342 414.008 836.002 414.008C841.275 414.008 847.037 412.25 853.287 408.734C859.537 405.121 865.738 400.678 871.891 395.404C878.141 390.033 883.902 384.613 889.176 379.145C894.547 373.676 898.941 368.988 902.359 365.082C905.777 361.078 907.779 358.783 908.365 358.197L911.295 360.834C910.221 362.006 907.877 364.691 904.264 368.891C900.65 373.09 896.158 377.973 890.787 383.539C885.416 389.008 879.508 394.379 873.062 399.652C866.715 404.926 860.123 409.32 853.287 412.836C846.549 416.352 839.957 418.109 833.512 418.109Z" fill="#FCAEBD"/>
<path d="M916.715 418.109C908.512 418.109 902.457 416.254 898.551 412.543C894.645 408.734 892.447 404.096 891.959 398.627C891.666 391.986 893.033 384.857 896.061 377.24C899.186 369.623 902.555 363.227 906.168 358.051C910.953 351.312 916.764 344.867 923.6 338.715C930.436 332.465 937.906 327.387 946.012 323.48C954.215 319.477 962.613 317.475 971.207 317.475C976.383 317.475 980.826 318.842 984.537 321.576C988.346 324.213 990.445 328.461 990.836 334.32C991.324 342.621 989.713 351.361 986.002 360.541C982.291 369.623 977.262 378.07 970.914 385.883C971.598 388.715 973.795 390.131 977.506 390.131C981.119 390.131 985.074 388.715 989.371 385.883C993.668 382.953 997.818 379.535 1001.82 375.629C1005.92 371.723 1009.44 368.109 1012.37 364.789C1015.3 361.469 1017.25 359.32 1018.23 358.344L1021.45 360.834C1019.6 362.592 1016.96 365.326 1013.54 369.037C1010.12 372.65 1006.31 376.41 1002.12 380.316C998.014 384.125 993.766 387.396 989.371 390.131C985.074 392.865 981.021 394.232 977.213 394.232C972.525 394.232 969.352 392.768 967.691 389.838C960.465 398.041 952.311 404.828 943.229 410.199C934.244 415.473 925.406 418.109 916.715 418.109ZM920.523 413.715C923.941 413.715 927.896 412.738 932.389 410.785C936.881 408.832 941.373 406.244 945.865 403.021C953.385 397.65 960.172 391.352 966.227 384.125V383.539C966.227 377.484 967.789 372.699 970.914 369.184C974.137 365.57 977.262 363.275 980.289 362.299C985.074 352.338 987.223 343.402 986.734 335.492C986.441 330.707 985.172 327.387 982.926 325.531C980.777 323.676 978.385 322.748 975.748 322.748C970.084 322.748 963.102 326.117 954.801 332.855C946.598 339.496 937.418 349.115 927.262 361.713C920.035 370.795 914.957 378.461 912.027 384.711C909.195 390.961 907.975 396.381 908.365 400.971C908.365 403.607 909.244 406.391 911.002 409.32C912.857 412.25 916.031 413.715 920.523 413.715Z" fill="#FCAEBD"/>
<path d="M1098.21 418.109C1092.84 418.109 1088.15 417.084 1084.15 415.033C1080.24 412.982 1078.29 410.248 1078.29 406.83C1078.29 404.193 1078.87 401.117 1080.04 397.602C1081.22 393.988 1084 389.057 1088.39 382.807C1092.89 376.557 1099.92 368.061 1109.49 357.318C1117.2 348.627 1122.53 341.889 1125.46 337.104C1128.38 332.318 1129.85 328.754 1129.85 326.41C1129.85 325.043 1129.36 323.822 1128.38 322.748C1127.41 321.674 1125.55 321.137 1122.82 321.137C1120.87 321.137 1118.23 321.771 1114.91 323.041C1111.69 324.311 1107.83 326.459 1103.34 329.486C1095.62 334.76 1086.15 342.914 1074.92 353.949C1063.69 364.887 1050.8 379.291 1036.25 397.162L1022.62 415.033C1020.08 414.545 1017.25 414.301 1014.13 414.301C1010.61 414.301 1007.68 414.496 1005.34 414.887C1003.09 415.18 1001.38 415.473 1000.21 415.766C1011.15 399.945 1020.28 386.859 1027.6 376.508C1034.93 366.059 1040.79 357.709 1045.18 351.459C1049.67 345.209 1052.99 340.473 1055.14 337.25C1057.39 333.93 1058.9 331.586 1059.68 330.219C1060.46 328.754 1060.9 327.582 1061 326.703C1061.2 323.871 1060.12 322.455 1057.78 322.455C1056.41 322.455 1054.26 323.822 1051.33 326.557C1048.4 329.291 1045.08 332.709 1041.37 336.811C1037.76 340.912 1034.2 345.16 1030.68 349.555C1027.16 353.852 1024.09 357.611 1021.45 360.834C1020.77 361.225 1019.89 360.98 1018.81 360.102C1018.23 359.223 1018.08 358.637 1018.38 358.344C1021.21 355.316 1024.38 351.557 1027.9 347.064C1031.51 342.475 1035.27 337.934 1039.18 333.441C1043.08 328.852 1047.09 325.043 1051.19 322.016C1055.29 318.988 1059.24 317.475 1063.05 317.475C1065.88 317.475 1068.67 318.109 1071.4 319.379C1074.23 320.551 1075.41 323.432 1074.92 328.021C1074.82 329.584 1074.33 331.586 1073.45 334.027C1072.57 336.371 1070.82 339.398 1068.18 343.109L1037.42 385.883L1038.15 387.494C1053.38 370.307 1066.08 356.83 1076.24 347.064C1086.49 337.201 1095.13 329.926 1102.16 325.238C1106.85 322.113 1110.95 320.062 1114.47 319.086C1118.08 318.012 1121.4 317.475 1124.43 317.475C1130.78 317.475 1135.22 319.037 1137.76 322.162C1140.4 325.189 1141.67 328.559 1141.57 332.27C1141.47 336.176 1140.15 340.863 1137.61 346.332C1135.17 351.703 1130.92 358.441 1124.87 366.547C1118.91 374.555 1110.51 384.467 1099.67 396.283C1094.69 401.557 1091.67 404.975 1090.59 406.537C1089.62 408.002 1089.13 409.369 1089.13 410.639C1089.13 411.615 1090.1 412.445 1092.06 413.129C1094.11 413.715 1096.65 414.008 1099.67 414.008C1105.63 414.008 1111.73 412.299 1117.98 408.881C1124.23 405.463 1130.29 401.215 1136.15 396.137C1142.11 390.961 1147.53 385.688 1152.41 380.316C1157.29 374.945 1161.34 370.209 1164.57 366.107C1167.89 362.006 1170.04 359.418 1171.01 358.344L1174.09 360.834C1172.92 362.104 1170.62 364.838 1167.2 369.037C1163.88 373.236 1159.68 378.119 1154.61 383.686C1149.53 389.154 1143.91 394.525 1137.76 399.799C1131.61 405.072 1125.16 409.467 1118.42 412.982C1111.69 416.4 1104.95 418.109 1098.21 418.109Z" fill="#FCAEBD"/>
<path d="M29.1504 212.109C19.9707 212.109 12.793 210.205 7.61719 206.396C2.53906 202.49 0 197.852 0 192.48C0 187.988 1.51367 184.863 4.54102 183.105C7.56836 181.25 10.5957 180.322 13.623 180.322C15.1855 180.322 16.7969 180.811 18.457 181.787C20.1172 182.764 20.9473 184.473 20.9473 186.914C20.9473 188.77 20.1172 190.43 18.457 191.895C16.7969 193.359 14.8438 194.092 12.5977 194.092C11.3281 194.092 10.1074 194.043 8.93555 193.945C7.76367 193.75 6.68945 193.359 5.71289 192.773V193.652C5.71289 197.852 7.8125 201.367 12.0117 204.199C16.2109 206.934 21.875 208.301 29.0039 208.301C36.4258 208.301 44.873 205.908 54.3457 201.123C63.8184 196.338 74.5117 188.232 86.4258 176.807C98.4375 165.381 111.768 149.707 126.416 129.785C134.521 118.75 145.605 106.25 159.668 92.2852C173.73 78.3203 189.014 63.7207 205.518 48.4863C196.338 54.6387 187.695 59.4238 179.59 62.8418C171.484 66.1621 163.525 67.8223 155.713 67.8223C151.416 67.8223 147.9 66.8457 145.166 64.8926C142.432 62.8418 141.064 59.8633 141.064 55.957C141.064 46.582 148.34 36.6699 162.891 26.2207C167.48 22.998 169.775 20.3613 169.775 18.3105C169.775 15.0879 168.311 12.793 165.381 11.4258C162.549 9.96094 158.691 9.22852 153.809 9.22852C144.629 9.22852 136.035 11.1328 128.027 14.9414C120.117 18.75 113.037 23.6816 106.787 29.7363C100.635 35.6934 95.5566 41.9922 91.5527 48.6328C87.6465 55.2734 85.0586 61.4258 83.7891 67.0898C83.0078 69.6289 82.3242 70.8984 81.7383 70.8984C80.6641 70.8984 80.127 70.0195 80.127 68.2617C80.127 67.2852 80.2246 66.5039 80.4199 65.918C81.4941 61.7188 83.7891 56.25 87.3047 49.5117C90.918 42.7734 95.752 36.0352 101.807 29.2969C107.861 22.4609 115.283 16.748 124.072 12.1582C132.959 7.4707 143.213 5.12695 154.834 5.12695C161.572 5.12695 167.139 6.54297 171.533 9.375C175.928 12.1094 178.125 15.5762 178.125 19.7754C178.125 24.7559 176.465 29.9805 173.145 35.4492C169.824 40.8203 164.258 45.9473 156.445 50.8301C153.711 52.5879 151.562 54.0039 150 55.0781C148.438 56.0547 147.656 57.373 147.656 59.0332C147.656 60.3027 148.389 61.4258 149.854 62.4023C151.416 63.2812 153.369 63.7207 155.713 63.7207C166.455 63.7207 177.734 60.5957 189.551 54.3457C201.367 47.998 213.916 39.209 227.197 27.9785C236.67 20.3613 244.385 14.5508 250.342 10.5469C256.299 6.54297 260.938 3.80859 264.258 2.34375C267.578 0.78125 269.971 0 271.436 0C272.803 0 273.486 0.390625 273.486 1.17188C273.486 2.05078 272.998 2.63672 272.021 2.92969C268.896 3.80859 264.6 5.95703 259.131 9.375C253.662 12.793 246.631 18.5547 238.037 26.6602C229.443 34.668 218.896 45.8984 206.396 60.3516C193.994 74.8047 179.248 93.5059 162.158 116.455C136.865 150.049 112.646 174.414 89.502 189.551C66.3574 204.59 46.2402 212.109 29.1504 212.109ZM178.271 213.867C164.99 213.867 158.35 208.789 158.35 198.633C158.35 194.531 159.424 189.648 161.572 183.984C163.818 178.223 168.066 171.191 174.316 162.891C180.566 154.59 189.697 144.531 201.709 132.715C205.42 129.102 208.057 125.244 209.619 121.143C211.182 116.943 211.963 113.721 211.963 111.475C211.963 110.498 211.816 109.57 211.523 108.691C205.664 110.547 200.146 111.523 194.971 111.621C190.186 111.816 186.279 111.084 183.252 109.424C180.322 107.764 178.857 106.006 178.857 104.15C178.857 102.49 180.127 100.977 182.666 99.6094C185.205 98.1445 188.916 97.3633 193.799 97.2656C197.803 97.168 201.514 97.6074 204.932 98.584C208.35 99.4629 211.182 101.025 213.428 103.271C219.287 100.342 225.391 95.9473 231.738 90.0879C238.184 84.2285 245.41 76.8066 253.418 67.8223C266.699 53.2715 279.883 41.4062 292.969 32.2266C306.152 22.9492 318.311 16.1133 329.443 11.7188C340.674 7.22656 349.902 4.98047 357.129 4.98047C366.602 4.98047 373.34 6.83594 377.344 10.5469C381.348 14.1602 382.861 18.7012 381.885 24.1699C381.104 28.6621 379.248 32.2266 376.318 34.8633C373.486 37.5 370.557 38.8184 367.529 38.8184C364.6 38.8184 362.549 37.9395 361.377 36.1816C360.205 34.3262 359.814 32.373 360.205 30.3223C360.498 28.3691 361.621 26.6113 363.574 25.0488C365.527 23.3887 367.725 22.5586 370.166 22.5586C372.9 22.5586 375.049 23.291 376.611 24.7559L377.197 22.1191C377.783 19.5801 376.66 16.6504 373.828 13.3301C370.996 10.0098 365.43 8.34961 357.129 8.34961C352.832 8.34961 348.096 9.57031 342.92 12.0117C337.842 14.3555 331.494 18.5547 323.877 24.6094C316.26 30.6641 306.494 39.2578 294.58 50.3906C280.518 64.2578 266.943 76.123 253.857 85.9863C240.771 95.752 228.271 102.783 216.357 107.08C218.115 110.4 218.994 114.16 218.994 118.359C218.994 123.828 218.018 129.688 216.064 135.938C214.209 142.188 210.449 149.219 204.785 157.031C199.219 164.746 190.869 173.584 179.736 183.545C174.072 188.623 170.361 192.529 168.604 195.264C166.943 197.998 166.113 200.244 166.113 202.002C166.113 204.541 167.09 206.494 169.043 207.861C171.094 209.131 174.805 209.766 180.176 209.766C184.766 209.766 190.234 208.154 196.582 204.932C202.93 201.611 209.375 196.924 215.918 190.869C222.461 184.717 228.418 177.344 233.789 168.75C239.16 160.156 243.164 150.586 245.801 140.039C246.582 137.012 247.266 135.498 247.852 135.498C249.023 135.498 249.609 137.354 249.609 141.064C249.609 146.631 248.096 152.686 245.068 159.229C242.041 165.771 237.939 172.266 232.764 178.711C227.686 185.156 222.021 191.016 215.771 196.289C209.521 201.562 203.125 205.811 196.582 209.033C190.137 212.256 184.033 213.867 178.271 213.867ZM197.021 107.52C201.318 107.324 205.371 106.494 209.18 105.029C207.422 103.369 205.127 102.148 202.295 101.367C199.561 100.586 196.826 100.293 194.092 100.488C191.943 100.586 190.039 101.074 188.379 101.953C186.816 102.734 186.035 103.418 186.035 104.004C186.035 104.883 186.865 105.713 188.525 106.494C190.283 107.275 193.115 107.617 197.021 107.52Z" fill="#FCAEBD"/>
<path d="M267.92 212.109C261.67 212.109 257.08 210.4 254.15 206.982C251.318 203.564 249.902 198.877 249.902 192.92C249.902 186.377 251.27 179.395 254.004 171.973C256.836 164.551 261.475 157.178 267.92 149.854C281.104 134.521 293.408 124.316 304.834 119.238C316.357 114.062 327.148 111.475 337.207 111.475C342.285 111.475 346.582 112.549 350.098 114.697C353.613 116.846 355.371 119.775 355.371 123.486C355.371 126.318 354.785 129.199 353.613 132.129C356.738 128.418 359.375 125.195 361.523 122.461C363.77 119.629 365.918 116.943 367.969 114.404C370.508 115.186 373.438 115.576 376.758 115.576C378.125 115.576 379.98 115.527 382.324 115.43C384.668 115.332 386.475 115.186 387.744 114.99L338.379 174.463C332.129 181.885 327.637 187.939 324.902 192.627C322.168 197.217 320.801 200.781 320.801 203.32C320.801 206.445 322.314 208.008 325.342 208.008C330.615 208.008 336.084 206.494 341.748 203.467C347.412 200.342 352.979 196.387 358.447 191.602C363.916 186.719 369.043 181.689 373.828 176.514C378.613 171.24 382.812 166.406 386.426 162.012C389.803 157.923 392.453 154.805 394.374 152.658C394.564 152.446 394.746 152.244 394.922 152.051L397.852 154.541C395.703 156.982 392.676 160.498 388.77 165.088C387.131 167.013 385.389 169.007 383.544 171.07C380.991 173.925 378.241 176.911 375.293 180.029C370.312 185.4 364.893 190.527 359.033 195.41C353.271 200.293 347.314 204.297 341.162 207.422C335.107 210.547 329.102 212.109 323.145 212.109C313.379 212.109 308.496 209.082 308.496 203.027C308.496 200.781 308.887 198.535 309.668 196.289C310.547 193.945 312.256 190.967 314.795 187.354C317.334 183.643 321.143 178.711 326.221 172.559L324.756 171.973C312.842 186.621 301.807 196.973 291.65 203.027C281.592 209.082 273.682 212.109 267.92 212.109ZM268.506 207.715C274.756 207.715 283.008 204.102 293.262 196.875C303.516 189.551 315.82 177.393 330.176 160.4C332.52 157.568 334.668 154.932 336.621 152.49C338.672 150.049 340.625 147.754 342.48 145.605C344.727 142.188 346.729 138.623 348.486 134.912C350.342 131.201 351.27 127.832 351.27 124.805C351.27 121.777 350.195 119.58 348.047 118.213C345.898 116.748 343.555 116.016 341.016 116.016C336.23 116.016 328.467 119.482 317.725 126.416C307.08 133.252 295.361 144.238 282.568 159.375C275.244 168.164 269.971 175.977 266.748 182.812C263.525 189.648 261.914 195.41 261.914 200.098C261.914 205.176 264.111 207.715 268.506 207.715Z" fill="#FCAEBD"/>
<path d="M540.088 212.695C530.518 212.695 523.682 210.205 519.58 205.225C515.479 200.244 513.33 194.141 513.135 186.914C513.064 183.109 513.604 178.999 514.754 174.584C515.197 172.88 515.732 171.131 516.357 169.336C516.756 168.191 517.159 167.094 517.564 166.044C519.439 161.186 521.381 157.352 523.389 154.541C530.615 144.482 538.428 136.279 546.826 129.932C555.225 123.584 563.428 118.945 571.436 116.016C579.541 112.988 586.67 111.475 592.822 111.475C598.779 111.475 602.93 112.451 605.273 114.404C607.715 116.357 608.984 118.604 609.082 121.143C609.375 124.951 607.324 129.395 602.93 134.473C598.633 139.453 591.064 144.873 580.225 150.732C569.385 156.592 554.248 162.744 534.814 169.189C531.396 174.658 529.102 179.395 527.93 183.398C526.758 187.305 526.172 190.82 526.172 193.945C526.172 198.535 527.686 202.1 530.713 204.639C533.838 207.178 537.5 208.447 541.699 208.447C550.879 208.447 559.473 206.738 567.48 203.32C575.586 199.805 582.959 195.41 589.6 190.137C596.338 184.863 602.246 179.541 607.324 174.17C612.402 168.701 616.553 163.965 619.775 159.961C622.998 155.859 625.146 153.32 626.221 152.344L629.297 154.834C627.832 156.104 625.342 158.887 621.826 163.184C618.408 167.48 614.014 172.412 608.643 177.979C603.369 183.545 597.266 188.965 590.332 194.238C583.398 199.512 575.684 203.906 567.188 207.422C558.789 210.938 549.756 212.695 540.088 212.695ZM538.184 164.062C557.129 157.422 572.07 150.586 583.008 143.555C593.945 136.426 599.414 129.639 599.414 123.193C599.414 117.725 596.875 114.99 591.797 114.99C585.254 114.99 578.174 118.506 570.557 125.537C562.939 132.568 554.053 142.773 543.896 156.152C541.748 158.887 539.844 161.523 538.184 164.062Z" fill="#FCAEBD"/>
<path d="M462.917 217.934C462.574 217.861 462.229 217.789 461.881 217.719C460.473 217.434 459.023 217.172 457.531 216.934C446.844 223.93 435.642 230.427 423.926 236.426C429.143 229.848 434.682 222.801 440.543 215.286C437.478 215.15 434.288 215.082 430.973 215.082C428.439 215.082 425.923 215.131 423.425 215.228C414.408 226.508 406.128 236.748 398.584 245.947L393.457 252.246C381.445 266.699 371.24 278.564 362.842 287.842C354.443 297.119 347.217 304.297 341.162 309.375C335.01 314.551 333.5 315.316 329 318.316C325.5 320.316 324 321.12 319 322.316C320.5 323.316 328.549 320.383 335.318 316.303C342.447 312.006 349.234 306.488 355.68 299.75C362.223 293.012 368.082 285.883 373.258 278.363C378.434 270.844 386.375 266.457 389.5 259.816C390.677 257.355 391.129 257.093 391.253 257.556C391.97 255.448 393.873 255.316 394.791 255.316C395.768 255.316 396.988 251.289 396.988 254.316C397.281 262.812 393.424 258.295 389.811 268.256C387.328 275.032 385.192 282.144 379.875 287.892C380.25 287.488 380.627 287.081 381.006 286.67C391.357 275.635 403.809 261.133 418.359 243.164C434.068 235.66 448.92 227.25 462.917 217.934Z" fill="#FCAEBD"/>
<path fill-rule="evenodd" clip-rule="evenodd" d="M426.076 211.921C427.611 211.88 429.145 211.859 430.68 211.859C434.93 211.859 439.02 211.972 442.95 212.197C443.876 211.007 444.81 209.806 445.752 208.594C453.662 198.535 462.158 187.598 471.24 175.781L518.408 114.99C517.139 115.186 515.332 115.332 512.988 115.43C510.645 115.527 508.838 115.576 507.568 115.576C505.908 115.576 504.199 115.479 502.441 115.283C500.781 114.99 499.414 114.697 498.34 114.404C496.484 117.041 494.482 119.727 492.334 122.461C490.186 125.195 487.598 128.418 484.57 132.129C485.742 129.199 486.328 126.318 486.328 123.486C486.23 119.775 484.277 116.846 480.469 114.697C476.66 112.549 471.582 111.475 465.234 111.475C459.082 111.475 452.295 112.549 444.873 114.697C437.451 116.846 429.639 120.703 421.436 126.27C413.33 131.738 405.078 139.6 396.68 149.854C395.883 150.788 395.114 151.723 394.374 152.658C394.564 152.446 394.746 152.244 394.922 152.051L397.852 154.541C395.703 156.982 392.676 160.498 388.77 165.088C387.131 167.013 385.389 169.007 383.544 171.07C383.428 171.371 383.314 171.672 383.203 171.973C380.566 179.395 379.248 186.377 379.248 192.92C379.443 198.877 381.006 203.564 383.936 206.982C386.865 210.4 391.406 212.109 397.559 212.109C403.711 212.109 411.865 209.082 422.021 203.027C432.178 196.875 443.652 186.523 456.445 171.973L457.617 172.559C446.1 187.003 435.586 200.124 426.076 211.921ZM422.9 197.314C412.158 204.248 404.053 207.715 398.584 207.715C394.092 207.715 391.699 205.176 391.406 200.098C391.309 195.41 392.92 189.746 396.24 183.105C399.658 176.367 404.932 168.555 412.061 159.668C424.17 144.531 435.547 133.496 446.191 126.562C456.836 119.531 464.453 116.016 469.043 116.016C477.734 116.016 482.129 118.945 482.227 124.805C482.227 128.027 481.25 131.592 479.297 135.498C477.441 139.404 475.342 143.066 472.998 146.484L461.572 160.4C446.533 177.979 433.643 190.283 422.9 197.314Z" fill="#FCAEBD"/>
<path d="M463.346 214.643C464.498 214.866 465.632 215.101 466.747 215.347C470.91 212.494 474.996 209.56 479.004 206.543C491.239 197.27 503.156 186.617 514.754 174.584C515.197 172.88 515.732 171.131 516.357 169.336C516.756 168.191 517.159 167.094 517.564 166.044C505.714 178.925 493.349 190.422 480.469 200.537C474.341 205.315 468.017 209.902 461.497 214.299C462.119 214.41 462.735 214.524 463.346 214.643Z" fill="#FCAEBD"/>
</svg>
