<svg width="324" height="350" viewBox="0 0 324 350" fill="none" xmlns="http://www.w3.org/2000/svg">
<path d="M298.719 0C306.666 0 312.959 2.11963 317.595 6.3584C322.231 10.5971 324.35 16.6901 323.953 24.6377C323.423 34.8372 318.92 46.2955 310.442 59.0117C302.097 71.728 290.705 84.1797 276.267 96.3662C261.828 108.552 245.205 119.149 226.396 128.156C217.321 132.502 207.921 136.121 198.198 139.018C198.422 140.195 198.638 141.357 198.833 142.506C201.01 155.322 203.309 168.863 205.728 183.13C208.146 197.155 210.279 220.476 210.444 223.392C210.609 226.307 213.288 250.23 200.647 281.789C188.007 313.348 159.311 330.307 140.657 338.415C122.003 346.523 101.87 349.557 73.8105 349.557C66.312 349.557 57.5054 348.166 45.3545 346.523C35.558 344.098 26.0535 343.941 13.3789 333.295C4.92914 326.197 0 316.851 0 303.552C5.38448e-05 291.461 3.64804 283.63 11.248 273.81C18.4455 264.509 26.6078 259.905 35.5576 256.036C44.5075 252.167 51.1597 250.232 55.5137 250.232C65.4311 250.232 70.3895 254.827 70.3896 264.016C70.1478 267.885 67.3664 271.512 62.0449 274.897C56.9652 278.041 51.2803 279.612 44.9912 279.612C42.0887 279.612 39.3072 278.645 36.6465 276.711C33.7438 274.535 31.4452 272.963 29.752 271.996C29.6903 272.018 24.4579 273.848 19.2471 280.411C14.0051 287.013 9.8584 292.696 9.8584 303.962C9.85855 309.752 14.6619 320.47 20.6816 324.59C29.7524 330.797 36.1627 331.844 45.3545 333.295C54.546 334.504 61.5607 335.108 66.3984 335.108C81.7984 334.02 89.2571 331.118 104.496 323.139C119.735 314.917 133.886 301.254 146.948 282.151C160.252 263.048 168.839 237.054 172.709 204.168C173.918 192.561 175.007 176.481 175.975 155.927C176.106 153.701 176.203 151.577 176.278 149.532C162.478 155.705 149.12 161.659 136.204 167.393C122.128 173.846 110.055 179.278 99.9854 183.687C93.0561 186.697 88.2387 188.47 85.5332 189.004C82.8278 189.538 81.5827 189.859 81.7988 189.968C81.5827 189.859 80.6642 189.532 79.043 188.987C77.7464 188.335 77.0462 187.036 76.9424 185.089C77.0536 183.791 79.058 182.228 82.9561 180.399C87.0703 178.679 91.4016 176.797 95.9492 174.754C103.744 171.637 115.925 166.531 132.49 159.435C146.471 153.446 161.146 147.034 176.516 140.201C176.739 127.991 176.81 117.793 180.105 103.436C182.561 92.7384 191.217 68.5504 210.363 47.6738C214.307 42.7216 218.5 38.2019 223.216 33.7773C240.66 17.4124 269.312 0.00015848 298.719 0ZM298.521 4.96777C282.095 5.49762 264.61 15.4321 246.065 34.7715C236.043 45.299 225.315 58.3592 213.879 73.9502C205.571 86.0034 200.211 95.3588 197.083 107.661C194.679 117.115 195.735 125.665 197.168 133.555C206.302 130.592 215.185 126.94 223.812 122.593C240.9 113.85 256.066 103.717 269.312 92.1934C282.559 80.6692 293.023 68.8801 300.706 56.8262C308.521 44.7722 312.694 33.7774 313.224 23.8428C313.886 16.69 312.495 11.7231 309.051 8.94141C305.607 6.15978 302.097 4.83532 298.521 4.96777Z" fill="#FFF5E6"/>
</svg>
