<svg width="1400" height="442" viewBox="0 0 1400 442" fill="none" xmlns="http://www.w3.org/2000/svg">
<path d="M74.0881 451.937C50.6805 451.937 32.427 447.642 19.3273 439.052C6.44244 430.462 0 420.047 0 407.806C0 398.358 3.32859 391.593 9.98578 387.513C16.643 383.218 23.3002 381.07 29.9573 381.07C33.6081 381.07 37.1514 382.251 40.5874 384.614C44.2381 386.976 46.0635 390.734 46.0635 395.888C46.0635 399.968 44.2381 403.726 40.5874 407.162C36.9367 410.383 32.6417 411.994 27.7025 411.994C21.2601 411.994 16.3208 410.92 12.8849 408.773V410.383C12.8849 419.832 18.2536 427.885 28.991 434.543C39.9431 440.985 53.2575 444.206 68.9341 444.206C91.9122 444.206 112.635 438.515 131.104 427.134C149.572 415.537 166.644 400.29 182.321 381.392C197.998 362.495 212.815 341.557 226.774 318.579C240.947 295.601 255.013 272.515 268.972 249.322L275.414 238.692C241.484 237.404 211.097 232.357 184.254 223.553C157.625 214.533 136.794 202.293 121.762 186.831C106.945 171.369 100.18 153.437 101.468 133.036C102.542 113.924 109.414 96.3145 122.084 80.2084C134.754 63.8875 151.612 49.8215 172.657 38.0104C193.917 25.9845 217.862 16.643 244.491 9.98578C271.334 3.32859 299.466 -5.66244e-06 328.887 -5.66244e-06C344.778 -5.66244e-06 358.629 1.50323 370.44 4.5097C382.466 7.51618 388.479 10.5226 388.479 13.5291C388.479 14.3881 387.191 14.8176 384.614 14.8176C383.11 14.8176 381.607 14.7102 380.104 14.4955C378.816 14.066 377.312 13.7439 375.594 13.5291C368.722 11.8111 361.636 10.4153 354.334 9.34153C347.248 8.05305 338.658 7.4088 328.564 7.4088C303.654 7.4088 279.172 10.63 255.121 17.0725C231.284 23.3002 209.487 32.2122 189.73 43.8086C170.188 55.405 154.404 69.2562 142.378 85.3623C130.567 101.468 124.124 119.4 123.051 139.157C122.192 152.042 127.238 165.356 138.19 179.1C149.357 192.844 166.752 204.547 190.374 214.211C213.996 223.875 244.061 229.351 280.568 230.639C331.893 149.894 379.03 91.2679 421.98 54.7607C464.929 18.2536 505.732 -5.66244e-06 544.386 -5.66244e-06C557.271 -5.66244e-06 567.472 3.43596 574.988 10.3079C582.504 17.1798 585.94 27.0582 585.296 39.9431C584.437 56.4787 577.135 75.0544 563.391 95.6702C549.862 116.286 531.394 136.472 507.986 156.229C484.579 175.986 457.628 193.166 427.134 207.769C396.64 222.372 363.891 231.928 328.887 236.438C310.633 264.57 292.057 291.628 273.159 317.612C254.262 343.382 234.505 366.36 213.889 386.546C193.488 406.733 171.691 422.731 148.498 434.543C125.52 446.139 100.717 451.937 74.0881 451.937ZM335.007 227.418C365.931 222.264 395.244 212.708 422.946 198.749C450.649 184.576 475.237 168.148 496.712 149.465C518.187 130.782 535.152 111.669 547.607 92.1269C560.278 72.5848 567.042 54.7607 567.901 38.6546C568.975 27.0582 566.72 19.0052 561.137 14.4955C555.553 9.98578 549.862 7.8383 544.064 8.05305C517.435 8.91204 489.089 25.0181 459.024 56.3714C429.174 87.7246 395.458 132.929 357.878 191.985C354.012 197.998 350.147 203.903 346.281 209.701C342.416 215.5 338.658 221.405 335.007 227.418ZM399.109 453.226C378.064 453.226 363.032 447.75 354.012 436.797C344.993 425.845 340.268 412.424 339.839 396.532C339.624 384.936 341.986 372.051 346.925 357.878C351.865 343.704 357.019 332.859 362.387 325.343C378.279 303.224 395.458 285.185 413.927 271.227C432.395 257.268 450.434 247.068 468.043 240.625C485.867 233.968 501.544 230.639 515.073 230.639C528.173 230.639 537.3 232.787 542.454 237.082C547.822 241.377 550.614 246.316 550.829 251.899C551.473 260.275 546.963 270.046 537.3 281.213C527.851 292.165 511.208 304.083 487.371 316.968C463.534 329.853 430.248 343.382 387.513 357.555C379.997 369.581 374.95 379.997 372.373 388.801C369.796 397.391 368.508 405.122 368.508 411.994C368.508 422.087 371.836 429.926 378.493 435.509C385.365 441.092 393.418 443.884 402.653 443.884C422.839 443.884 441.737 440.126 459.346 432.61C477.17 424.879 493.384 415.215 507.986 403.619C522.804 392.023 535.796 380.319 546.963 368.508C558.13 356.482 567.257 346.066 574.344 337.262C581.43 328.242 586.155 322.659 588.517 320.511L595.282 325.987C592.06 328.779 586.584 334.9 578.853 344.348C571.337 353.797 561.673 364.642 549.862 376.883C538.266 389.123 524.844 401.042 509.597 412.638C494.35 424.235 477.385 433.898 458.702 441.629C440.233 449.36 420.369 453.226 399.109 453.226ZM394.922 346.281C436.583 331.678 469.439 316.646 493.491 301.184C517.543 285.507 529.569 270.583 529.569 256.409C529.569 244.383 523.985 238.37 512.818 238.37C498.43 238.37 482.861 246.101 466.111 261.563C449.36 277.025 429.818 299.466 407.484 328.887C402.76 334.9 398.572 340.698 394.922 346.281ZM764.396 451.937C752.584 451.937 742.277 449.682 733.472 445.173C724.882 440.663 720.587 434.65 720.587 427.134C720.587 421.336 721.875 414.571 724.452 406.84C727.029 398.894 733.15 388.05 742.813 374.306C752.692 360.562 768.154 341.879 789.199 318.257C806.164 299.144 817.868 284.326 824.31 273.804C830.753 263.281 833.974 255.443 833.974 250.289C833.974 247.282 832.9 244.598 830.753 242.236C828.605 239.874 824.525 238.692 818.512 238.692C814.217 238.692 808.419 240.088 801.118 242.88C794.031 245.672 785.548 250.396 775.67 257.053C758.705 268.65 737.874 286.581 713.178 310.848C688.482 334.9 660.135 366.575 628.138 405.874L598.181 445.173C592.597 444.099 586.369 443.562 579.498 443.562C571.767 443.562 565.324 443.992 560.17 444.851C555.231 445.495 551.473 446.139 548.896 446.783C572.948 411.994 593.027 383.218 609.133 360.455C625.239 337.477 638.124 319.116 647.787 305.372C657.666 291.628 664.967 281.213 669.692 274.126C674.631 266.824 677.96 261.67 679.677 258.664C681.395 255.443 682.362 252.866 682.577 250.933C683.006 244.705 680.644 241.592 675.49 241.592C672.483 241.592 667.759 244.598 661.317 250.611C654.874 256.624 647.573 264.14 639.412 273.159C631.467 282.179 623.628 291.52 615.897 301.184C608.166 310.633 601.402 318.901 595.604 325.987C594.1 326.846 592.168 326.31 589.805 324.377C588.517 322.444 588.195 321.156 588.839 320.511C595.067 313.854 602.046 305.586 609.777 295.708C617.723 285.615 625.99 275.629 634.58 265.751C643.17 255.658 651.975 247.282 660.994 240.625C670.014 233.968 678.711 230.639 687.086 230.639C693.314 230.639 699.434 232.035 705.447 234.827C711.675 237.404 714.252 243.739 713.178 253.832C712.963 257.268 711.89 261.67 709.957 267.039C708.024 272.193 704.159 278.85 698.361 287.011L630.715 381.07L632.326 384.614C665.826 346.818 693.743 317.183 716.077 295.708C738.626 274.018 757.631 258.02 773.093 247.712C783.401 240.84 792.42 236.33 800.151 234.183C808.097 231.82 815.398 230.639 822.055 230.639C836.014 230.639 845.785 234.075 851.369 240.947C857.167 247.604 859.958 255.013 859.744 263.174C859.529 271.764 856.63 282.072 851.046 294.097C845.678 305.909 836.336 320.726 823.022 338.55C809.922 356.16 791.454 377.957 767.617 403.941C756.665 415.537 750.007 423.054 747.645 426.49C745.498 429.711 744.424 432.717 744.424 435.509C744.424 437.656 746.572 439.482 750.866 440.985C755.376 442.274 760.96 442.918 767.617 442.918C780.716 442.918 794.138 439.16 807.882 431.644C821.626 424.127 834.94 414.786 847.825 403.619C860.925 392.237 872.843 380.641 883.581 368.83C894.318 357.019 903.23 346.603 910.317 337.584C917.618 328.564 922.343 322.874 924.49 320.511L931.255 325.987C928.678 328.779 923.631 334.792 916.115 344.026C908.814 353.26 899.579 363.998 888.413 376.239C877.246 388.264 864.898 400.076 851.369 411.672C837.839 423.268 823.666 432.932 808.848 440.663C794.031 448.179 779.213 451.937 764.396 451.937ZM906.451 458.702C899.794 458.702 891.204 457.843 880.682 456.125C870.159 454.407 860.817 450.756 852.657 445.173C844.282 439.589 840.094 430.892 840.094 419.081C840.094 408.343 843.423 399.539 850.08 392.667C856.523 385.58 863.717 380.319 871.662 376.883C879.608 373.447 885.513 371.729 889.379 371.729C898.184 371.729 902.586 375.809 902.586 383.969C902.371 387.405 899.902 390.627 895.177 393.633C890.667 396.425 885.621 397.821 880.037 397.821C877.46 397.821 874.991 396.962 872.629 395.244C870.052 393.311 868.012 391.915 866.508 391.056C864.146 393.418 860.603 396.962 855.878 401.686C850.939 406.196 848.469 412.101 848.469 419.403C848.469 427.563 851.798 433.684 858.455 437.764C864.898 441.629 872.199 444.206 880.36 445.495C888.52 446.569 894.748 447.105 899.043 447.105C908.062 447.105 919.336 443.562 932.865 436.475C946.395 429.174 958.957 417.041 970.554 400.076C982.365 383.11 989.988 360.025 993.424 330.819C994.498 320.511 995.464 306.231 996.323 287.977C997.397 269.724 1000.83 252.222 1006.63 235.471C1006.85 234.827 1006.95 233.861 1006.95 232.572C998.793 242.665 989.988 253.51 980.54 265.106C971.091 276.703 961.964 287.87 953.159 298.607C944.569 309.345 937.16 318.471 930.933 325.987C926.638 331.141 923.524 334.47 921.591 335.973C919.658 337.477 918.799 338.228 919.014 338.228C918.799 338.228 917.94 338.336 916.437 338.55C915.149 338.55 914.075 337.799 913.216 336.295C912.786 335.222 913.753 333.182 916.115 330.175C918.692 327.169 921.376 323.947 924.168 320.511C929.107 314.928 936.731 306.016 947.039 293.775C957.347 281.535 968.191 268.435 979.573 254.476C991.17 240.518 1001.16 228.17 1009.53 217.432C1010.82 210.99 1012.75 205.192 1015.33 200.038C1017.91 194.884 1021.56 192.307 1026.28 192.307C1034.87 192.307 1039.17 195.85 1039.17 202.937C1038.95 207.017 1034.01 214.641 1024.35 225.808C1018.55 232.679 1015.44 237.189 1015.01 239.337C1014.58 241.269 1014.36 243.846 1014.36 247.068C1014.15 254.799 1014.9 264.462 1016.62 276.059C1018.55 287.44 1020.59 299.466 1022.74 312.136C1024.88 324.592 1026.28 336.51 1026.93 347.892C1027.57 364.857 1025.64 379.567 1021.13 392.023C1024.56 392.452 1027.46 392.667 1029.82 392.667C1036.7 392.667 1044.53 389.553 1053.34 383.325C1062.36 377.098 1071.27 369.689 1080.08 361.099C1088.88 352.509 1096.5 344.348 1102.95 336.618C1109.6 328.887 1114.01 323.518 1116.15 320.511L1123.24 325.987C1119.59 329.853 1114.22 335.866 1107.13 344.026C1100.05 351.972 1091.99 360.347 1082.97 369.152C1073.95 377.742 1064.72 385.151 1055.27 391.378C1046.04 397.391 1037.23 400.398 1028.86 400.398C1026.93 400.398 1025.1 400.398 1023.38 400.398C1021.66 400.183 1019.95 399.968 1018.23 399.753C1008.13 422.087 993.21 437.549 973.453 446.139C953.696 454.514 931.362 458.702 906.451 458.702ZM1113.58 451.937C1099.83 451.937 1089.74 448.179 1083.3 440.663C1077.07 433.147 1073.95 422.839 1073.95 409.739C1073.95 395.351 1076.96 379.997 1082.97 363.676C1089.2 347.355 1099.4 331.141 1113.58 315.035C1142.57 281.32 1169.63 258.879 1194.75 247.712C1220.09 236.33 1243.82 230.639 1265.94 230.639C1277.11 230.639 1286.56 233.002 1294.29 237.726C1302.02 242.451 1305.88 248.893 1305.88 257.053C1305.88 263.281 1304.59 269.616 1302.02 276.059C1308.89 267.898 1314.69 260.811 1319.41 254.799C1324.35 248.571 1329.08 242.665 1333.59 237.082C1339.17 238.8 1345.61 239.659 1352.91 239.659C1355.92 239.659 1360 239.551 1365.15 239.337C1370.31 239.122 1374.28 238.8 1377.07 238.37L1268.52 369.152C1254.77 385.473 1244.89 398.787 1238.88 409.095C1232.87 419.188 1229.86 427.026 1229.86 432.61C1229.86 439.482 1233.19 442.918 1239.85 442.918C1251.44 442.918 1263.47 439.589 1275.93 432.932C1288.38 426.06 1300.62 417.363 1312.65 406.84C1324.67 396.103 1335.95 385.043 1346.47 373.662C1356.99 362.065 1366.23 351.435 1374.17 341.771C1382.33 331.893 1388.56 324.592 1392.86 319.867L1399.3 325.343C1394.57 330.712 1387.92 338.443 1379.33 348.536C1370.74 358.629 1360.86 369.581 1349.69 381.392C1338.74 393.204 1326.82 404.478 1313.94 415.215C1301.27 425.953 1288.17 434.757 1274.64 441.629C1261.32 448.501 1248.12 451.937 1235.02 451.937C1213.54 451.937 1202.8 445.28 1202.8 431.966C1202.8 427.026 1203.66 422.087 1205.38 417.148C1207.31 411.994 1211.07 405.444 1216.65 397.499C1222.24 389.338 1230.61 378.493 1241.78 364.964L1238.56 363.676C1212.36 395.888 1188.09 418.651 1165.76 431.966C1143.64 445.28 1126.25 451.937 1113.58 451.937ZM1114.86 442.274C1128.61 442.274 1146.75 434.328 1169.3 418.437C1191.85 402.33 1218.91 375.594 1250.48 338.228C1255.63 332 1260.36 326.202 1264.65 320.834C1269.16 315.465 1273.46 310.418 1277.54 305.694C1282.48 298.178 1286.88 290.339 1290.74 282.179C1294.82 274.018 1296.86 266.61 1296.86 259.952C1296.86 253.295 1294.5 248.463 1289.78 245.457C1285.05 242.236 1279.9 240.625 1274.31 240.625C1263.79 240.625 1246.72 248.249 1223.1 263.496C1199.69 278.528 1173.92 302.687 1145.79 335.973C1129.68 355.301 1118.09 372.48 1111 387.513C1103.91 402.545 1100.37 415.215 1100.37 425.523C1100.37 436.69 1105.2 442.274 1114.86 442.274Z" fill="#FCAEBD"/>
</svg>
