<svg width="313" height="66" viewBox="0 0 313 66" fill="none" xmlns="http://www.w3.org/2000/svg">
<path fill-rule="evenodd" clip-rule="evenodd" d="M69.4396 0.341962C68.1384 0.757326 67.3447 1.15632 65.9137 2.11453L64.8213 2.84589L60.3649 2.00477C52.4859 0.517773 47.6264 0.0694803 41.1202 0.229695C38.7597 0.28785 35.821 0.475216 34.5896 0.646022C23.4228 2.19502 13.8013 6.58956 8.7864 12.4316C5.7638 15.9529 4.21229 19.6673 4.22222 23.3589C4.22787 25.4236 4.4321 26.4165 5.14915 27.8677C6.27233 30.1403 8.39273 31.8053 11.2923 32.6912C12.727 33.1295 13.2028 33.1767 16.1911 33.1765C19.3249 33.1763 19.5998 33.1455 21.3608 32.5986C23.5474 31.9196 25.3822 30.9481 27.0118 29.6067C28.1899 28.6372 28.3645 28.2243 27.7569 27.8457C27.515 27.6951 27.1494 27.8785 26.102 28.6755C24.5429 29.8621 22.2241 30.9817 20.2797 31.4868C18.3875 31.9782 14.5308 31.9712 12.816 31.4733C10.468 30.7916 8.63746 29.2697 7.66925 27.1948C7.29428 26.3913 7.23665 25.9507 7.24541 23.954C7.25436 21.9471 7.32211 21.4708 7.76056 20.333C9.61151 15.5294 14.361 10.9558 20.8316 7.74611C30.5733 2.91387 42.2679 1.23546 55.4217 2.78157C57.6003 3.03769 61.5777 3.66102 62.7906 3.93639C63.2067 4.03094 63.0398 4.25181 60.9362 6.39083C55.9672 11.4436 52.843 15.5685 43.4057 29.5384C33.5579 44.1152 28.9706 50.0678 23.6664 55.1517C19.8761 58.7847 16.4581 61.179 12.7439 62.8029C7.48683 65.1016 1.20487 65.2826 -3.10192 63.2595C-5.59691 62.0875 -7.46401 59.8788 -7.46401 58.0993V57.3697L-6.83126 57.7513C-5.27372 58.6907 -3.1868 57.8463 -2.79236 56.117C-2.33911 54.1292 -3.90405 52.7855 -6.1804 53.208C-8.30235 53.6016 -9.55948 56.5906 -8.75462 59.3288C-8.34246 60.7317 -6.99636 62.5145 -5.60606 63.4991C-4.20213 64.4935 -1.81597 65.4137 0.323697 65.7858C2.56188 66.1751 7.5283 66.0122 9.90841 65.4713C14.4286 64.4442 18.8532 62.5068 23.1863 59.6572C30.5301 54.8272 36.5385 48.327 44.4165 36.6881L47.076 32.759L47.518 33.1962C48.3485 34.0176 50.7621 34.2659 53.4253 33.8035C55.1412 33.5056 55.5722 33.6454 56.7082 34.868C57.6934 35.9283 58.0553 37.2077 57.8912 39.0492C57.7218 40.9483 57.1872 42.2677 54.2637 48.0018C50.7532 54.8873 49.9968 57.3067 50.5421 59.9056C51.0501 62.3252 52.7174 63.521 55.5884 63.5243C57.546 63.5266 59.08 63.1609 61.1764 62.1923C64.1681 60.8103 67.4611 58.3805 71.0945 54.8744L73.0414 52.9956V54.9528C73.0414 56.7523 73.0889 57.0019 73.6315 58.0518C74.1626 59.0797 74.3515 59.2589 75.5247 59.8503C76.6475 60.4163 77.0242 60.5081 78.2443 60.5133C82.4367 60.5318 87.0435 57.9304 91.7952 52.8617C93.2135 51.3489 95.6886 48.0634 96.1237 47.116C96.3541 46.6143 96.4103 46.597 97.4552 46.7027C98.7272 46.8315 100.531 46.4262 102.037 45.6731C103.224 45.0792 105.081 43.8516 105.441 43.4233C105.583 43.2533 105.767 43.1142 105.849 43.1142C105.931 43.1142 105.282 44.1757 104.408 45.4732C101.467 49.8334 95.139 59.7096 95.139 59.9385C95.139 60.1155 97.9036 60.2834 98.8027 60.1611L99.7532 60.0319L103.232 54.9073C107.637 48.4192 107.397 48.6986 108.565 48.6986C111.066 48.6986 114.696 47.679 117.477 46.1957C118.927 45.4221 118.94 45.4193 118.585 45.9484C117.048 48.2432 114.538 52.3091 113.971 53.4252C111.643 58.0009 113.298 61.0885 117.723 60.4278C120.089 60.0746 122.984 58.3479 126.279 55.3242C127.077 54.5927 127.657 54.1126 127.568 54.2574C125.822 57.1101 124.148 59.9657 124.148 60.0912C124.148 60.2778 127.741 60.2759 128.359 60.0889C128.627 60.008 130.428 57.5122 133.453 53.0314C136.027 49.2186 138.645 45.52 139.269 44.8125C141.679 42.0825 146.611 37.9377 149.48 36.231C153.132 34.0588 155.135 34.1174 154.519 36.3785C154.279 37.2601 153.012 39.1857 149.137 44.5585C145.279 49.9091 140.774 56.6037 138.87 59.8193C138.759 60.0063 139.249 60.06 141.067 60.06H143.406L144.729 58.1155C147.783 53.6235 151.9 47.8879 153.423 46.0027C157.493 40.9617 162.82 36.2528 165.658 35.1861C167.5 34.4939 168.683 34.8669 168.432 36.0613C168.238 36.9843 167.611 37.9252 164.827 41.4774C158.841 49.1132 156.872 52.0838 156.021 54.7645C155.543 56.2705 155.448 57.2501 155.692 58.1608C156.538 61.3127 160.691 61.3826 165.228 58.3213C166.177 57.6816 166.944 57.0495 170.163 54.2553L170.972 53.5536L170.904 55.2563C170.816 57.481 171.186 58.6441 172.277 59.568C173.369 60.4918 174.714 60.7779 176.489 60.464C178.879 60.0417 180.978 58.8187 184.103 56.0292C185.114 55.1263 185.87 54.559 185.782 54.7685C185.694 54.9782 185.579 55.8047 185.526 56.6054C185.375 58.9062 186.114 60.0038 188.112 60.4467C189.18 60.6835 190.837 60.4425 192.247 59.8449C193.627 59.2597 196.136 57.543 197.686 56.1244C198.444 55.4294 199.118 54.8607 199.181 54.8607C199.245 54.8607 198.597 55.988 197.741 57.3658C196.885 58.7436 196.184 59.9568 196.184 60.0617C196.184 60.2726 198.953 60.3209 200.118 60.1303C200.806 60.0178 200.947 59.8493 203.128 56.5218C205.583 52.7743 207.112 51.0221 210.044 48.5922C213.526 45.7064 216.175 44.8435 216.82 46.3846C217.165 47.2078 216.828 48.3828 215.603 50.6243C213.445 54.5758 212.961 56.0084 213.216 57.6909C213.5 59.5657 215.589 60.8341 217.942 60.5605C220.8 60.2283 223.13 58.9135 227.391 55.2299L228.322 54.4246L226.742 57.0015C225.873 58.419 225.081 59.661 224.983 59.7615C224.589 60.1654 224.881 60.2526 226.63 60.2526C229.631 60.2526 229.193 60.5944 232.495 55.6745C237.448 48.2921 239.45 45.51 240.866 44.0378C245.926 38.7796 251.824 34.6414 254.257 34.6414C255.075 34.6414 255.371 34.9346 255.371 35.7453C255.371 36.7559 254.593 38.0555 250.904 43.2105C245.553 50.6877 242.074 55.822 240.106 59.1453L239.564 60.06H241.911H244.257L247.172 55.7754C252.826 47.466 255.599 43.99 259.51 40.3126C264.191 35.9102 267.918 33.9304 269.097 35.2196C269.793 35.9797 269.087 37.2181 265.094 42.2477C259.517 49.2735 257.386 52.6364 256.621 55.6212C255.915 58.3716 256.919 60.1486 259.385 60.515C261.989 60.9019 265.358 59.2172 269.602 55.4047C271.385 53.8036 271.714 53.5748 271.586 54.0283C271.311 55.0054 271.46 57.057 271.873 57.9599C272.731 59.8368 274.067 60.5489 276.69 60.5264C279.611 60.5012 282.768 59.1704 285.983 56.6089C287.321 55.543 289.219 53.6876 289.841 52.8371C289.996 52.6241 290.977 51.7291 292.02 50.8479C293.063 49.9667 294.673 48.451 295.597 47.4799C296.834 46.1791 297.124 45.9423 296.697 46.5804C294.71 49.5523 292.964 52.6245 292.374 54.1868C291.887 55.4795 291.786 57.4746 292.16 58.4232C292.532 59.367 293.343 60.0513 294.477 60.3772C298.195 61.4465 303.67 58.2228 310.499 50.9426C311.874 49.476 313 48.1575 313 48.0127C313 47.8679 312.83 47.6594 312.622 47.5494C312.292 47.3748 311.851 47.7374 309.151 50.3996C303.353 56.1155 299.444 58.9092 297.2 58.9399C296.196 58.9535 295.867 58.5805 295.867 57.4284C295.867 55.7964 298.349 51.6884 306.483 39.8543C308.771 36.5254 310.599 33.7309 310.545 33.6441C310.403 33.4168 307.157 33.4492 306.026 33.6891C305.207 33.8628 304.973 34.0236 304.413 34.7964C301.456 38.8766 292.707 49.0838 292.167 49.0838C292.081 49.0838 292.134 48.68 292.284 48.1866C292.721 46.7508 292.638 44.5188 292.114 43.6037C291.456 42.4543 290.324 41.7565 288.911 41.6298C287.244 41.4801 285.939 41.8506 284.288 42.9429C282.599 44.0605 281.695 45.1056 282.051 45.53C282.418 45.9673 282.614 45.882 283.787 44.7751C285.157 43.4826 286.243 42.9217 287.376 42.9217C289.53 42.9217 289.602 45.2144 287.571 49.0838C285.581 52.8739 281.595 57.4377 279.194 58.6741C277.789 59.3974 276.328 59.5118 275.631 58.9528C274.554 58.0899 274.82 55.5952 276.286 52.7949C277.531 50.4177 282.687 43.1179 288.629 35.3194C289.273 34.4744 289.758 33.7161 289.707 33.6344C289.567 33.4111 286.144 33.458 285.281 33.6951C284.334 33.9552 284.071 34.2383 281.273 38.0113C277.513 43.0811 275.303 46.2488 274.25 48.0765C272.542 51.0416 266.697 56.5829 263.564 58.2072C261.196 59.4351 260.044 59.3381 260.044 57.9108C260.044 56.5759 261.53 54.1057 266.027 47.9675C271.988 39.8318 273.11 37.2329 271.68 34.8761C270.7 33.261 267.978 33.0063 265.3 34.279C263.53 35.1203 262.146 36.1216 259.473 38.4969C258.356 39.4894 257.512 40.1328 257.599 39.9265C258.891 36.8447 258.719 34.7199 257.101 33.7748C256.159 33.2245 253.743 33.263 252.209 33.8528C250.084 34.6701 248.74 35.5146 244.679 38.5838C244.402 38.7925 244.273 38.8358 244.392 38.68C247.09 35.1424 247.778 34.205 247.778 34.0658C247.778 33.6034 244.46 33.6111 242.986 34.0771C242.38 34.2687 240.416 36.82 235.513 43.7882C234.619 45.0592 233.507 46.6367 233.041 47.2939C231.968 48.8098 226.195 54.5584 224.052 56.2449C221.301 58.4103 218.959 59.3968 217.843 58.8603C216.701 58.3115 216.924 56.668 218.537 53.7489C220.23 50.6871 220.618 49.6185 220.618 48.0247C220.618 46.3846 220.171 45.5438 218.924 44.8439C218.27 44.4763 217.803 44.373 216.781 44.37C215.819 44.3669 215.536 44.3101 215.71 44.1549C216.37 43.5639 220.127 40.6563 222.265 39.0815C225.994 36.3348 228.593 34.6656 228.808 34.8786C228.849 34.9188 228.792 35.2761 228.681 35.6722C228.517 36.2601 228.545 36.5233 228.832 37.1041C229.301 38.0507 229.903 38.3319 231.28 38.2475C233.34 38.1216 234.795 36.3406 234.315 34.5345C233.672 32.1176 230.216 32.2909 225.701 34.9662C223.265 36.4101 216.23 41.7549 211.614 45.6692C210.516 46.6001 209.621 47.2941 209.623 47.2117C209.628 47.0746 216.661 37.0113 218.136 35.03C218.484 34.5628 218.769 34.122 218.769 34.0506C218.769 33.7945 216.488 33.6724 215.159 33.857C214.033 34.0138 213.717 34.1418 213.286 34.6159C212.568 35.4066 207.997 41.7925 205.425 45.598C203.598 48.301 202.875 49.1691 200.404 51.6262C196.908 55.1024 194.287 57.2811 192.456 58.2326C188.858 60.1024 188.154 58.2805 190.747 53.8126C192.499 50.7938 200.381 39.2061 203.622 34.8834C203.959 34.434 204.174 34.0069 204.101 33.9341C203.913 33.7482 200.521 33.7432 199.642 33.9277C199.037 34.0546 198.775 34.2815 198.102 35.2616L197.291 36.4428L197.063 35.5528C196.769 34.411 196.499 34.1026 195.308 33.5536C193.452 32.6974 190.522 33.0357 187.447 34.4613C182.13 36.9258 176.526 42.3286 173.58 47.8321C172.645 49.5783 172.276 50.0277 169.619 52.6522C168.007 54.2442 165.944 56.0993 165.034 56.7747C160.714 59.9797 158.076 59.7806 159.558 56.3616C159.996 55.3514 162.471 51.7052 166.242 46.5144C167.692 44.5186 169.242 42.2585 169.685 41.4919C171.746 37.9285 171.874 35.3176 170.05 34.0307C169.496 33.6402 169.186 33.5822 167.647 33.5822C165.96 33.5822 165.806 33.619 164.24 34.3937C162.376 35.3159 160.593 36.6668 158.268 38.9198C157.385 39.7757 156.662 40.4384 156.662 40.3923C156.662 40.3463 156.847 39.7917 157.074 39.1599C157.966 36.6729 157.723 34.6545 156.437 33.8809C154.004 32.4176 149.807 33.8601 144.83 37.8697C144.252 38.3353 143.746 38.6843 143.706 38.645C143.667 38.6055 144.421 37.5568 145.383 36.3142C147.408 33.6978 147.424 33.7583 144.688 33.8041C141.936 33.8503 141.81 33.9292 139.491 37.0681C138.387 38.5614 136.26 41.551 134.763 43.7116C132.18 47.4404 131.84 47.8404 128.047 51.6018C122.8 56.8045 120.266 58.6564 118.115 58.8609C117.195 58.9483 117.137 58.9258 116.928 58.3991C116.686 57.7885 116.893 56.6892 117.484 55.4465C118.196 53.9491 124.964 44.3257 130.318 37.1969C131.529 35.5838 132.52 34.1653 132.52 34.0444C132.52 33.8085 128.026 33.8894 127.455 34.1355C127.293 34.2054 125.86 35.9957 124.27 38.1139C121.678 41.5668 121.205 42.0948 119.697 43.2167C116.613 45.5115 112.969 47.0397 109.985 47.2891C108.59 47.4058 108.536 47.3952 108.737 47.0439C108.852 46.8419 110.911 43.9038 113.313 40.5146C115.714 37.1255 117.61 34.2782 117.525 34.1873C117.261 33.9059 112.768 34.121 112.388 34.4332C112.205 34.5836 111.221 35.8484 110.201 37.2439C108.664 39.3457 108.274 39.768 107.924 39.7051C107.607 39.6481 107.164 39.9706 106.139 41.008C103.504 43.6744 100.951 45.2196 98.9053 45.3873C97.1776 45.529 97.1714 45.508 98.2776 43.2177C100.07 39.5073 100.375 36.4673 99.1411 34.6233C97.3702 31.9764 91.8154 32.6202 86.2289 36.1195C81.6686 38.976 77.5501 43.3673 75.167 47.9139C74.5405 49.1092 73.8579 49.9006 71.0037 52.7412C66.0106 57.7105 61.7646 60.7015 58.5452 61.5174C57.0668 61.8919 56.0202 61.7496 55.3942 61.0893C55.007 60.6807 54.9387 60.4188 54.9589 59.4176C54.9926 57.7535 55.4982 56.4741 58.4387 50.6139C61.075 45.3603 61.7091 43.6615 61.9593 41.1836C62.2739 38.0669 60.6126 35.1873 57.4529 33.3718C57.1443 33.1946 57.4389 33.0469 59.3206 32.4355C64.0912 30.8852 68.4694 28.7949 72.7437 26.0267C77.1204 23.1924 79.453 21.2371 86.4734 14.5177C89.0443 12.0571 91.6735 9.58915 92.316 9.03322C97.8624 4.23525 103.099 1.71765 107.541 1.71399C110.384 1.71168 111.867 2.24971 112.803 3.62328C113.646 4.86032 113.278 6.3423 111.812 7.61882C110.567 8.70258 110.629 9.41527 111.968 9.41527C112.718 9.41527 114.145 7.99663 114.597 6.80215C115.319 4.89132 115.045 3.50158 113.67 2.10895C112.367 0.789101 111.045 0.333488 108.183 0.218526C104.304 0.0629333 101.147 0.879029 96.3072 3.28918C91.3785 5.74362 87.4547 8.70797 79.2715 16.1583C71.538 23.1995 67.9607 26.0452 63.7199 28.5291C61.1832 30.015 59.22 30.8919 56.672 31.6778C55.0084 32.1908 55.0033 32.1912 53.5532 31.8759C51.7111 31.4756 49.217 31.464 48.2792 31.8517C47.8916 32.0119 47.553 32.1203 47.5271 32.0924C47.4486 32.0082 54.4743 21.1489 57.3394 16.9253C60.5955 12.1256 63.078 8.7359 65.0253 6.4305L66.4892 4.69741H68.9865C71.3341 4.69741 71.5512 4.66467 72.6066 4.15206C73.8203 3.56262 74.3069 2.91887 74.3069 1.90213C74.3069 1.09932 74.0226 0.620795 73.3373 0.270326C72.58 -0.116923 70.7736 -0.0838004 69.4396 0.341962ZM70.2855 1.61925C69.745 1.88576 68.9614 2.40203 68.5438 2.76675L67.7847 3.42975L69.3971 3.43765C71.2434 3.44689 72.1649 3.14899 72.6758 2.37777C73.0141 1.86708 73.0118 1.84744 72.572 1.49524C71.9702 1.01325 71.4587 1.04117 70.2855 1.61925ZM93.5791 34.807C88.9392 36.6034 80.5129 46.1712 77.6984 52.8388C77.1005 54.2555 76.9512 54.8721 76.8805 56.2164C76.7984 57.782 76.8194 57.8906 77.3201 58.479C77.7899 59.0313 77.9556 59.0972 78.875 59.0972C79.4409 59.0972 80.276 58.9674 80.7308 58.8087C83.4049 57.8756 88.1489 53.1354 92.3524 47.1964C93.7316 45.2481 93.7847 45.1321 93.6646 44.3393C93.3139 42.0268 95.1382 39.2658 97.0182 39.2637C97.5312 39.2631 97.6669 39.1634 97.8456 38.6565C97.9632 38.323 98.0594 37.5345 98.0594 36.9042C98.0594 35.8578 98.0019 35.7014 97.3974 35.1035C96.7923 34.505 96.6377 34.4496 95.5965 34.4578C94.9702 34.4628 94.0623 34.6198 93.5791 34.807ZM191.972 34.7236C188.21 35.8878 182.031 42.2835 177.635 49.5625C174.625 54.5486 173.808 58.1923 175.543 58.9029C177.39 59.6597 181.655 56.7883 186.216 51.7156C188.5 49.176 189.283 48.1346 192.488 43.3788C195.067 39.5514 195.795 38.0819 195.795 36.6989C195.795 34.889 194.163 34.0458 191.972 34.7236Z" fill="#FFF5E6"/>
</svg>
