<svg width="36" height="39" viewBox="0 0 36 39" fill="none" xmlns="http://www.w3.org/2000/svg">
<path d="M33.1914 0C34.0741 2.84849e-05 34.773 0.235389 35.2881 0.706055C35.8032 1.17699 36.0392 1.85435 35.9951 2.7373C35.9362 3.87051 35.436 5.14384 34.4941 6.55664C33.5669 7.96957 32.3005 9.35298 30.6963 10.707C29.0921 12.061 27.2451 13.2385 25.1553 14.2393C24.1462 14.7225 23.1007 15.1243 22.0195 15.4463C22.0444 15.5776 22.071 15.7068 22.0928 15.835C22.3347 17.2589 22.5896 18.7635 22.8584 20.3486C23.1272 21.907 23.3645 24.4982 23.3828 24.8223C23.4012 25.1462 23.6983 27.8041 22.2939 31.3105C20.8895 34.8169 17.7016 36.7016 15.6289 37.6025C13.5562 38.5034 11.3189 38.8408 8.20117 38.8408C7.36799 38.8408 6.38918 38.6865 5.03906 38.5039C3.95066 38.2345 2.89449 38.217 1.48633 37.0342C0.54756 36.2456 0.000114604 35.207 0 33.7295C0 32.3861 0.40554 31.515 1.25 30.4238C2.04965 29.3907 2.95686 28.8791 3.95117 28.4492C4.94528 28.0195 5.68424 27.8048 6.16797 27.8047C7.26985 27.8047 7.82123 28.3151 7.82129 29.3359C7.79441 29.7658 7.48484 30.1688 6.89355 30.5449C6.32917 30.8942 5.69777 31.0693 4.99902 31.0693C4.67669 31.0693 4.36775 30.9618 4.07227 30.7471C3.74975 30.5053 3.4938 30.3301 3.30566 30.2227C3.29597 30.226 2.71623 30.4308 2.13867 31.1582C1.5563 31.8917 1.09573 32.5228 1.0957 33.7744C1.0957 34.4177 1.62905 35.6086 2.29785 36.0664C3.30564 36.7561 4.01788 36.873 5.03906 37.0342C6.06038 37.1685 6.8404 37.2354 7.37793 37.2354C9.08878 37.1144 9.91739 36.7918 11.6104 35.9053C13.3035 34.9918 14.8759 33.4739 16.3271 31.3516C17.8053 29.229 18.7604 26.3405 19.1904 22.6865C19.3248 21.3969 19.4452 19.6099 19.5527 17.3262C19.5673 17.0789 19.5786 16.8424 19.5869 16.6152C18.0536 17.3011 16.5689 17.9635 15.1338 18.6006C13.5699 19.3176 12.2282 19.9203 11.1094 20.4102C10.3397 20.7446 9.80457 20.9416 9.50391 21.001C9.2033 21.0603 9.06486 21.0963 9.08887 21.1084C9.06486 21.0963 8.96237 21.0605 8.78223 21C8.63822 20.9275 8.56036 20.7827 8.54883 20.5664C8.56117 20.4222 8.78464 20.2481 9.21777 20.0449C9.67477 19.8539 10.156 19.6449 10.6611 19.418C11.5273 19.0716 12.8811 18.5043 14.7217 17.7158C16.275 17.0504 17.9057 16.3383 19.6133 15.5791C19.6381 14.2225 19.6456 13.0892 20.0117 11.4941C20.2835 10.31 21.2407 7.63893 23.3516 5.3252C23.7962 4.76393 24.2688 4.25289 24.8018 3.75293C26.74 1.93459 29.924 0 33.1914 0ZM33.1689 0.551758C31.344 0.61071 29.4012 1.7146 27.3408 3.86328C26.233 5.02691 25.0474 6.46907 23.7842 8.18945C22.8501 9.54228 22.2484 10.5865 21.8984 11.9629C21.6316 13.0124 21.7483 13.9619 21.9072 14.8379C22.9221 14.5087 23.9095 14.1041 24.8682 13.6211C26.7666 12.6498 28.4521 11.5245 29.9238 10.2441C31.3955 8.96376 32.5585 7.6537 33.4121 6.31445C34.2804 4.97519 34.7438 3.75322 34.8027 2.64941C34.8763 1.85464 34.7215 1.30224 34.3389 0.993164C33.9563 0.684295 33.5662 0.537045 33.1689 0.551758Z" fill="#1E2113"/>
</svg>
