<svg width="982" height="564" viewBox="0 0 982 564" fill="none" xmlns="http://www.w3.org/2000/svg">
<path d="M506.947 146.796C503.136 146.796 500.073 145.639 497.759 143.325C495.582 140.875 494.493 137.813 494.493 134.138C494.493 129.374 496.466 125.018 500.414 121.071C504.497 116.988 509.329 114.946 514.91 114.946C518.721 114.946 521.715 116.239 523.893 118.825C526.207 121.275 527.364 124.27 527.364 127.809C527.364 132.845 525.186 137.268 520.83 141.079C516.611 144.891 511.983 146.796 506.947 146.796ZM402.618 326.055C394.315 326.055 387.645 324.558 382.609 321.563C377.437 318.433 374.851 314.281 374.851 309.109C374.851 305.026 375.872 300.33 377.913 295.022C379.955 289.577 383.902 282.499 389.755 273.788C395.472 265.077 403.843 253.78 414.868 239.896C426.029 225.877 440.661 208.319 458.764 187.221C459.989 187.357 462.915 187.493 467.543 187.63C472.171 187.766 475.777 187.834 478.364 187.834C480.678 187.834 482.379 187.834 483.468 187.834C484.693 187.698 485.85 187.562 486.939 187.425C467.066 210.837 450.801 230.096 438.143 245.205C425.62 260.313 415.957 272.359 409.151 281.342C402.345 290.326 397.65 297.199 395.063 301.963C392.477 306.727 391.184 310.538 391.184 313.397C391.184 316.935 393.09 318.977 396.901 319.522C400.712 320.066 403.775 320.338 406.088 320.338C413.438 320.338 421.469 317.888 430.18 312.988C438.891 307.952 447.534 301.759 456.109 294.409C464.82 286.923 472.851 279.369 480.201 271.746C487.687 264.124 493.812 257.591 498.576 252.146C503.34 246.566 506.13 243.367 506.947 242.551L507.17 242.751L511.03 246.226C509.533 247.859 506.266 251.602 501.23 257.455C497.163 262.182 492.296 267.53 486.631 273.5C485.281 274.922 483.887 276.379 482.447 277.871C474.961 285.494 466.726 292.98 457.743 300.33C448.896 307.68 439.708 313.805 430.18 318.705C420.788 323.605 411.601 326.055 402.618 326.055Z" fill="#FCAEBD"/>
<path d="M598.006 326.055C589.294 326.055 582.897 323.673 578.814 318.909C574.867 314.145 572.893 307.612 572.893 299.309C572.893 290.19 574.799 280.458 578.61 270.113C582.557 259.769 589.022 249.492 598.006 239.284C616.381 217.914 633.531 203.691 649.456 196.613C665.517 189.399 680.557 185.792 694.577 185.792C701.654 185.792 707.643 187.289 712.543 190.284C717.443 193.278 719.893 197.362 719.893 202.534C719.893 206.481 719.077 210.496 717.443 214.58C721.799 209.407 725.474 204.916 728.468 201.105C731.599 197.157 734.593 193.414 737.452 189.875C740.991 190.964 745.074 191.509 749.702 191.509C751.607 191.509 754.193 191.441 757.46 191.305C760.727 191.169 763.245 190.964 765.014 190.692L696.21 273.584C687.499 283.928 681.238 292.367 677.427 298.901C673.615 305.298 671.71 310.266 671.71 313.805C671.71 318.16 673.82 320.338 678.039 320.338C685.389 320.338 693.011 318.229 700.906 314.009C708.8 309.654 716.559 304.141 724.181 297.472C731.803 290.666 738.949 283.656 745.618 276.442C752.288 269.092 758.141 262.355 763.177 256.23C768.349 249.969 772.296 245.341 775.018 242.346L779.102 245.817C776.107 249.22 771.888 254.12 766.443 260.517C760.999 266.915 754.738 273.856 747.66 281.342C740.718 288.828 733.164 295.974 724.997 302.78C716.967 309.585 708.664 315.166 700.089 319.522C691.65 323.877 683.279 326.055 674.977 326.055C661.365 326.055 654.56 321.835 654.56 313.397C654.56 310.266 655.104 307.135 656.193 304.005C657.418 300.738 659.8 296.587 663.339 291.551C666.878 286.378 672.186 279.505 679.264 270.93L677.222 270.113C660.617 290.53 645.236 304.958 631.081 313.397C617.061 321.835 606.036 326.055 598.006 326.055ZM598.822 319.93C607.533 319.93 619.035 314.894 633.326 304.822C647.618 294.613 664.768 277.667 684.777 253.984C688.043 250.037 691.038 246.362 693.76 242.959C696.618 239.556 699.341 236.357 701.927 233.363C705.057 228.599 707.847 223.631 710.297 218.459C712.884 213.287 714.177 208.591 714.177 204.371C714.177 200.152 712.679 197.089 709.685 195.184C706.69 193.142 703.424 192.121 699.885 192.121C693.216 192.121 682.395 196.953 667.422 206.617C652.586 216.145 636.253 231.457 618.422 252.555C608.214 264.805 600.864 275.694 596.372 285.221C591.88 294.749 589.635 302.78 589.635 309.313C589.635 316.391 592.697 319.93 598.822 319.93Z" fill="#FCAEBD"/>
<path d="M173.792 563.055C163.039 563.055 153.851 560.401 146.229 555.092C138.743 549.648 135 543.183 135 535.697C135 529.435 137.11 525.08 141.329 522.63C145.549 520.044 149.768 518.751 153.988 518.751C156.301 518.751 158.547 519.431 160.725 520.792C163.039 522.153 164.196 524.535 164.196 527.938C164.196 530.524 163.039 532.838 160.725 534.88C158.411 536.922 155.689 537.942 152.558 537.942C150.789 537.942 149.088 537.874 147.454 537.738C145.821 537.466 144.324 536.922 142.963 536.105V537.33C142.963 543.183 145.889 548.083 151.742 552.03C157.594 555.841 165.489 557.747 175.425 557.747C181.142 557.747 186.654 556.93 191.963 555.297C197.271 553.663 202.715 551.485 208.296 548.763C215.374 545.36 223.064 540.324 231.367 533.655C239.67 526.849 249.538 517.253 260.971 504.867C272.404 492.345 286.152 476.012 302.213 455.867C293.91 458.317 286.628 460.563 280.367 462.605C265.531 467.777 250.967 474.446 236.675 482.613C222.384 490.644 211.495 500.308 204.008 511.605C203.464 512.83 202.715 513.442 201.763 513.442C200.81 513.442 200.47 512.898 200.742 511.809C200.878 511.401 200.946 510.992 200.946 510.584C201.082 510.04 201.49 509.087 202.171 507.726C204.349 503.098 208.16 498.47 213.604 493.842C219.185 489.078 225.31 484.587 231.979 480.367C238.649 476.148 244.638 472.677 249.946 469.955C256.071 466.824 263.761 463.557 273.017 460.155C282.273 456.752 293.706 453.145 307.317 449.334C324.059 426.603 339.644 407.003 354.071 390.534C368.499 373.928 379.933 361.27 388.371 352.559C374.76 360.997 363.327 366.85 354.071 370.117C344.952 373.248 337.057 374.813 330.388 374.813C323.446 374.813 317.662 373.111 313.034 369.709C308.542 366.306 306.296 361.27 306.296 354.6C306.296 347.795 308.202 341.057 312.013 334.388C313.919 331.052 316.744 327.462 320.488 323.616C322.926 321.112 325.752 318.5 328.969 315.78C330.691 314.323 332.525 312.836 334.471 311.317C339.644 307.097 342.91 304.103 344.271 302.333C345.769 300.564 346.517 298.999 346.517 297.638C346.517 293.554 344.339 290.22 339.984 287.633C335.764 285.047 329.027 283.754 319.771 283.754C316.547 283.754 313.315 283.95 310.077 284.34C303.199 285.17 296.291 286.88 289.35 289.471C287.075 290.301 284.851 291.225 282.68 292.243C275.24 295.73 268.412 300.319 262.196 306.008C260.154 307.914 258.453 308.867 257.092 308.867C255.595 308.867 254.846 308.186 254.846 306.825C254.846 306.145 255.186 305.396 255.867 304.579C256.684 303.763 257.568 302.81 258.521 301.721C265.892 295.14 274.79 289.895 285.216 285.987C285.572 285.854 285.929 285.722 286.288 285.592C295.084 282.293 304.057 280.327 313.208 279.693C315.386 279.542 317.574 279.467 319.771 279.467C331.069 279.467 339.848 281.577 346.109 285.796C352.37 289.879 355.501 295.528 355.501 302.742C355.501 310.364 353.323 317.85 348.967 325.2C344.748 332.414 336.445 340.036 324.059 348.067C319.703 350.789 316.913 352.899 315.688 354.396C314.463 355.757 313.85 357.391 313.85 359.296C313.85 361.202 315.212 363.379 317.934 365.829C320.792 368.143 325.828 369.3 333.042 369.3C341.617 369.3 352.37 366.102 365.301 359.704C378.367 353.307 391.366 344.46 404.296 333.163C416.819 322.002 430.09 314.826 438.393 307.884C446.696 300.942 455.283 296.23 461 292.146C466.853 287.927 469.017 283.55 473.917 281.1C475.823 280.283 476.163 277.97 477.388 277.425C478.613 276.881 479.498 276.608 480.042 276.608C481.948 276.608 482.447 274.694 482.447 275.646C482.447 275.919 481.472 279.331 478.613 281.1C477.524 281.645 475.959 282.597 473.917 283.958C471.876 285.183 468.473 287.565 463.709 291.104C450.098 302.265 435.33 317.986 419.405 338.267C403.48 358.548 385.377 382.911 365.096 411.359C361.285 416.395 357.474 421.295 353.663 426.059C349.852 430.687 346.177 435.246 342.638 439.738C353.527 436.88 365.505 433.885 378.571 430.755C391.638 427.488 405.998 423.949 421.651 420.138C423.284 418.096 424.985 416.055 426.755 414.013C428.524 411.971 430.294 409.862 432.063 407.684C447.172 389.853 462.089 370.691 479.589 352.559C490.024 341.745 500.103 331.882 510.523 322.92C515.996 318.212 521.563 313.753 527.325 309.536C527.333 309.53 527.342 309.524 527.35 309.517C544.092 297.131 559.405 287.399 573.288 280.321C587.307 273.244 598.469 269.705 606.771 269.705C612.76 269.705 621.871 276.2 625.001 279.058C628.132 281.781 629.697 285.183 629.697 289.267C629.697 296.072 625.546 304.783 617.243 315.4C608.94 326.017 596.962 337.382 581.309 349.496C565.793 361.61 547.145 373.52 525.368 385.225C503.726 396.931 479.43 407.207 452.48 416.055C438.188 433.477 425.258 450.423 413.688 466.892C402.119 483.226 392.863 497.79 385.921 510.584C379.116 523.242 375.713 532.77 375.713 539.167C375.713 545.837 377.006 550.669 379.592 553.663C382.178 556.522 386.602 557.951 392.863 557.951C402.935 557.951 413.416 554.072 424.305 546.313C435.33 538.555 445.606 527.666 455.134 513.646C464.662 499.627 472.216 483.294 477.797 464.646C478.886 460.563 480.519 458.521 482.697 458.521C483.786 458.521 484.534 460.495 484.942 464.442C485.487 470.295 484.194 477.441 481.063 485.88C477.933 494.319 473.305 503.03 467.18 512.013C461.055 520.86 453.909 529.163 445.742 536.922C437.712 544.68 429.001 551.009 419.609 555.909C410.353 560.673 400.894 563.055 391.23 563.055C382.655 563.055 376.121 560.265 371.63 554.684C367.138 548.967 364.892 542.978 364.892 536.717C364.892 523.787 368.499 508.542 375.713 490.984C383.063 473.289 396.674 451.784 416.546 426.467C404.16 429.87 391.094 433.273 377.346 436.675C363.735 439.942 350.26 443.277 336.921 446.68C315.824 472.133 296.632 493.162 279.346 509.767C262.06 526.373 245.318 539.235 229.121 548.355C220.002 553.663 210.542 557.474 200.742 559.788C191.078 561.966 182.095 563.055 173.792 563.055ZM458.605 408.909C481.608 400.198 503.045 389.989 522.918 378.284C542.79 366.578 560.144 354.668 574.98 342.554C589.952 330.44 601.59 319.347 609.893 309.275C618.332 299.203 622.551 291.445 622.551 286C622.551 281.372 614.734 273.992 608.2 273.992C600.306 273.992 590.438 277.667 578.596 285.017C566.891 292.231 553.96 302.031 539.804 314.417C525.785 326.667 511.5 341.646 498.576 357.646C484.5 375.073 472.352 392.575 458.605 408.909Z" fill="#FCAEBD"/>
<path d="M512.505 563.055C503.794 563.055 497.397 560.673 493.313 555.909C489.366 551.145 487.392 544.612 487.392 536.309C487.392 527.19 489.298 517.458 493.109 507.113C497.056 496.769 503.522 486.492 512.505 476.284C530.88 454.914 548.03 440.691 563.955 433.613C580.016 426.399 595.057 422.792 609.076 422.792C616.154 422.792 622.143 424.289 627.043 427.284C631.943 430.278 634.393 434.362 634.393 439.534C634.393 443.481 633.576 447.496 631.943 451.58C636.298 446.407 639.973 441.916 642.968 438.105C646.098 434.157 649.093 430.414 651.951 426.875C655.49 427.964 659.573 428.509 664.201 428.509C666.107 428.509 668.693 428.441 671.96 428.305C675.226 428.169 677.744 427.964 679.514 427.692L610.709 510.584C601.998 520.928 595.737 529.367 591.926 535.901C588.115 542.298 586.209 547.266 586.209 550.805C586.209 555.16 588.319 557.338 592.539 557.338C599.889 557.338 607.511 555.229 615.405 551.009C623.3 546.654 631.058 541.141 638.68 534.471C646.303 527.666 653.448 520.656 660.118 513.442C666.787 506.092 672.64 499.355 677.676 493.23C682.849 486.969 686.796 482.341 689.518 479.346L693.601 482.817C690.607 486.22 686.387 491.12 680.943 497.517C675.498 503.915 669.237 510.856 662.16 518.342C655.218 525.828 647.664 532.974 639.497 539.78C631.466 546.585 623.164 552.166 614.589 556.522C606.15 560.877 597.779 563.055 589.476 563.055C575.865 563.055 569.059 558.835 569.059 550.397C569.059 547.266 569.604 544.135 570.693 541.005C571.918 537.738 574.3 533.587 577.839 528.551C581.377 523.378 586.686 516.505 593.764 507.93L591.722 507.113C575.116 527.53 559.736 541.958 545.58 550.397C531.561 558.835 520.536 563.055 512.505 563.055ZM513.322 556.93C522.033 556.93 533.534 551.894 547.826 541.822C562.118 531.613 579.268 514.667 599.276 490.984C602.543 487.037 605.537 483.362 608.259 479.959C611.118 476.556 613.84 473.357 616.426 470.363C619.557 465.599 622.347 460.631 624.797 455.459C627.383 450.287 628.676 445.591 628.676 441.371C628.676 437.152 627.179 434.089 624.184 432.184C621.19 430.142 617.923 429.121 614.384 429.121C607.715 429.121 596.894 433.953 581.922 443.617C567.086 453.145 550.752 468.457 532.922 489.555C522.713 501.805 515.363 512.694 510.872 522.221C506.38 531.749 504.134 539.78 504.134 546.313C504.134 553.391 507.197 556.93 513.322 556.93Z" fill="#FCAEBD"/>
<path d="M721.776 563.055C714.154 563.055 707.961 561.149 703.197 557.338C698.433 553.391 696.051 548.287 696.051 542.026C696.051 531.137 704.014 518.002 719.939 502.621C735.864 487.241 757.438 470.431 784.66 452.192C770.776 449.878 758.799 447.564 748.726 445.25C738.79 442.937 730.828 440.419 724.839 437.696C722.117 443.141 718.169 449.81 712.997 457.705C707.825 465.599 701.224 474.106 693.193 483.226C687.749 489.623 683.665 494.114 680.943 496.701C678.221 499.287 676.315 500.852 675.226 501.396C674.273 501.805 673.729 502.145 673.593 502.417C673.185 502.553 672.912 502.145 672.776 501.192C672.776 500.24 672.844 499.491 672.98 498.946C672.98 498.402 674.001 497.109 676.043 495.067C678.085 493.026 682.372 487.921 688.905 479.755C695.711 471.18 701.768 463.013 707.076 455.255C712.385 447.496 716.468 440.691 719.326 434.838C714.426 431.707 711.568 428.237 710.751 424.425C709.662 417.892 710.956 411.971 714.631 406.663C718.306 401.355 723.069 398.7 728.922 398.7C736.136 398.7 739.743 401.831 739.743 408.092C739.743 411.223 739.131 413.877 737.906 416.055C736.681 418.232 735.456 420.342 734.231 422.384C731.781 425.242 730.556 428.849 730.556 433.205C730.556 434.566 732.869 436.063 737.497 437.696C742.261 439.194 748.046 440.691 754.851 442.188C761.793 443.549 768.599 444.774 775.268 445.863C781.938 446.816 787.178 447.428 790.989 447.701C793.575 447.837 795.14 448.313 795.685 449.13C796.365 449.81 796.706 450.355 796.706 450.763C796.706 452.124 794.732 454.37 790.785 457.501C783.299 463.217 775.608 470.159 767.714 478.326C759.82 486.356 752.469 494.727 745.664 503.438C738.858 512.013 733.346 520.112 729.126 527.734C724.907 535.356 722.797 541.617 722.797 546.517C722.797 552.915 725.383 556.113 730.556 556.113C737.225 556.113 744.507 553.867 752.401 549.376C760.296 544.884 768.258 539.235 776.289 532.43C784.456 525.624 792.078 518.615 799.156 511.401C806.37 504.051 812.563 497.517 817.735 491.801C822.907 485.948 826.514 481.933 828.556 479.755L832.639 483.226C829.645 486.084 825.357 490.644 819.777 496.905C814.332 503.03 807.935 509.903 800.585 517.526C793.235 525.012 785.204 532.226 776.493 539.167C767.918 546.109 759.003 551.826 749.747 556.317C740.492 560.809 731.168 563.055 721.776 563.055Z" fill="#FCAEBD"/>
<path d="M814.06 563.055C806.574 563.055 800.993 561.558 797.318 558.563C793.507 555.569 791.602 551.758 791.602 547.13C791.602 543.455 792.078 539.848 793.031 536.309C793.983 532.634 796.025 528.006 799.156 522.426C802.286 516.845 807.05 509.359 813.447 499.967C819.845 490.439 828.488 477.985 839.377 462.605L892.052 388.492H875.923C871.839 388.492 869.797 387.607 869.797 385.838C869.797 383.66 872.384 382.571 877.556 382.571H896.135L933.906 329.488C935.675 329.76 937.989 330.032 940.848 330.304C943.842 330.44 948.062 330.44 953.506 330.304C956.228 330.304 959.155 330.032 962.285 329.488L922.881 382.571H975.556C979.367 382.571 981.273 383.524 981.273 385.43C981.273 387.471 979.571 388.492 976.169 388.492H918.389L864.489 461.176C851.695 478.326 841.418 492.413 833.66 503.438C825.902 514.463 819.981 523.174 815.897 529.572C811.95 535.969 809.228 540.733 807.731 543.863C806.37 546.994 805.689 549.308 805.689 550.805C805.689 554.888 809.092 557.066 815.897 557.338C825.289 557.202 834.953 554.14 844.889 548.151C854.961 542.026 864.625 534.608 873.881 525.896C883.136 517.049 891.439 508.406 898.789 499.967C906.139 491.392 911.856 484.655 915.939 479.755L920.431 483.226C916.484 487.853 910.699 494.523 903.077 503.234C895.455 511.945 886.675 520.928 876.739 530.184C866.939 539.303 856.663 547.062 845.91 553.459C835.157 559.856 824.54 563.055 814.06 563.055Z" fill="#FCAEBD"/>
<path d="M285.221 320.542C289.305 324.217 295.498 326.055 303.801 326.055C308.237 326.055 313.8 325.242 320.488 323.616C322.926 321.112 325.752 318.5 328.969 315.78C327.023 316.479 325.099 317.113 323.197 317.684C316.527 319.59 311.219 320.542 307.272 320.542C299.377 320.542 295.43 317.684 295.43 311.967C295.43 310.334 295.838 308.497 296.655 306.455C297.472 304.277 299.377 300.806 302.372 296.042C304.312 293.005 306.881 289.104 310.077 284.34C303.199 285.17 296.291 286.88 289.35 289.471C287.075 290.301 284.851 291.225 282.68 292.243C280.291 298.611 279.096 303.416 279.096 306.659C279.096 312.104 281.138 316.731 285.221 320.542Z" fill="#FCAEBD"/>
<path d="M306.455 249.696C296.086 265.376 289.006 277.473 285.216 285.987C285.572 285.854 285.929 285.722 286.288 285.592C295.084 282.293 304.057 280.327 313.208 279.693C314.302 278.077 315.453 276.381 316.663 274.605C330.819 254.46 345.927 233.091 361.988 210.496C378.049 187.902 394.315 165.648 410.784 143.734C427.254 121.82 443.315 101.675 458.968 83.3002C474.757 64.789 489.389 49.6126 502.864 37.7709C506.947 34.232 510.758 31.2376 514.297 28.7876C517.836 26.3376 519.605 24.6362 519.605 23.6834C519.605 22.5945 518.925 22.0501 517.564 22.0501C513.344 22.0501 506.539 24.7723 497.147 30.2167C487.755 35.5251 475.165 44.5765 459.376 57.371C443.723 70.0293 424.123 87.3155 400.576 109.229C382.881 125.971 367.093 141.079 353.209 154.555C339.326 167.893 326.531 180.484 314.826 192.325C303.256 204.167 291.891 216.077 280.73 228.055C269.705 239.896 258.135 252.623 246.021 266.234C234.044 279.845 220.637 295.226 205.8 312.376C208.659 306.523 213.423 297.744 220.092 286.038C226.898 274.196 234.928 260.585 244.184 245.205C253.576 229.824 263.58 213.559 274.196 196.409C284.813 179.259 295.498 162.245 306.251 145.367C317.14 128.489 327.348 112.836 336.876 98.4086C346.54 83.8446 354.979 71.4585 362.193 61.2501C369.543 50.9057 374.987 43.8279 378.526 40.0168C381.384 37.1584 383.766 34.8445 385.672 33.0751C387.713 31.3056 389.415 29.8084 390.776 28.5834C392.818 26.814 393.838 25.5209 393.838 24.7042C393.838 24.0237 393.158 23.5473 391.797 23.2751C390.436 22.8667 389.279 22.6626 388.326 22.6626C387.101 22.6626 382.065 25.9973 373.218 32.6667C364.506 39.3362 351.44 50.9737 334.017 67.5793C316.731 84.0488 294.545 107.052 267.459 136.588C235.201 171.841 206.957 201.309 182.73 224.992C158.502 248.676 137.404 267.527 119.438 281.546C101.607 295.43 86.0905 305.366 72.8877 311.355C59.821 317.344 48.2515 320.338 38.1793 320.338C28.2431 320.338 20.6889 318.569 15.5167 315.03C10.3445 311.491 7.75835 306.795 7.75835 300.942V299.922C7.89446 299.513 7.96252 299.037 7.96252 298.492C9.32363 299.445 10.8209 300.058 12.4542 300.33C14.2236 300.602 15.9931 300.738 17.7625 300.738C20.8931 300.738 23.6153 299.717 25.9292 297.676C28.2431 295.498 29.4001 293.116 29.4001 290.53C29.4001 287.263 28.1751 284.881 25.7251 283.384C23.4112 281.887 21.1653 281.138 18.9875 281.138C14.7681 281.138 10.5486 282.703 6.32918 285.834C2.10973 288.828 0 293.456 0 299.717C0 307.34 3.19862 313.601 9.59586 318.501C15.9931 323.401 25.5889 325.851 38.3834 325.851C50.9057 325.851 65.3335 321.767 81.6669 313.601C100.722 303.937 122.636 288.692 147.409 267.867C172.181 246.906 200.084 219.412 231.117 185.384C266.915 146.048 294.885 115.899 315.03 94.9377C335.311 73.9766 349.262 60.0251 356.884 53.0835C333.065 80.0335 311.219 106.643 291.347 132.913C271.474 159.182 254.256 184.091 239.692 207.638C225.264 231.049 214.103 252.078 206.209 270.726C198.314 289.237 194.367 304.209 194.367 315.642C194.367 318.637 194.844 320.815 195.796 322.176C196.885 323.537 197.906 324.217 198.859 324.217C200.356 324.217 202.398 323.265 204.984 321.359C207.706 319.454 212.606 314.349 219.684 306.047C248.948 271.883 274.401 243.571 296.042 221.113C317.82 198.655 334.426 181.981 345.859 171.092C368.726 149.178 388.122 130.735 404.047 115.763C419.972 100.791 433.379 88.4044 444.268 78.6043C455.157 68.6682 464.344 60.5696 471.83 54.3085C479.316 48.0473 486.122 42.739 492.247 38.3834C479.997 50.4973 465.909 64.6529 449.984 80.8502C434.195 97.0474 417.726 114.47 400.576 133.117C383.562 151.764 366.888 171.024 350.555 190.896C334.222 210.632 319.522 230.232 306.455 249.696Z" fill="#FCAEBD"/>
<path d="M507.17 242.751L511.03 246.226C509.533 247.859 506.266 251.602 501.23 257.455C497.163 262.182 492.296 267.53 486.631 273.5C483.71 278.144 481.363 282.119 479.589 285.426C476.458 290.87 474.484 295.362 473.668 298.901C472.715 302.303 472.239 305.842 472.239 309.517C472.239 314.145 474.144 318.092 477.955 321.359C481.63 324.49 486.326 326.055 492.043 326.055C498.083 326.055 504.243 325.01 510.523 322.92C515.996 318.212 521.563 313.753 527.325 309.536C525.121 310.846 522.946 312.071 520.83 313.192C511.983 317.956 503.544 320.338 495.514 320.338C489.116 320.338 485.918 318.092 485.918 313.601C485.918 311.967 486.326 310.062 487.143 307.884C487.959 305.57 490.001 301.827 493.268 296.655C496.534 291.346 501.639 283.724 508.58 273.788C515.522 263.716 525.118 250.105 537.368 232.955L705.193 0C703.424 0.136111 701.791 0.340279 700.293 0.612501C698.932 0.748613 697.707 0.816669 696.618 0.816669C691.174 0.95278 686.954 0.884724 683.96 0.612501C681.102 0.340279 678.72 0.136111 676.814 0L518.993 225.605C514.693 231.81 510.752 237.525 507.17 242.751Z" fill="#FCAEBD"/>
</svg>
