<svg width="838" height="481" viewBox="0 0 838 481" fill="none" xmlns="http://www.w3.org/2000/svg">
<path d="M432.929 125.363C429.674 125.363 427.059 124.375 425.083 122.399C423.223 120.307 422.293 117.691 422.293 114.553C422.293 110.484 423.979 106.765 427.35 103.394C430.837 99.9067 434.963 98.1631 439.729 98.1631C442.984 98.1631 445.541 99.2674 447.401 101.476C449.377 103.568 450.365 106.125 450.365 109.148C450.365 113.448 448.505 117.226 444.785 120.481C441.182 123.736 437.23 125.363 432.929 125.363ZM343.833 278.449C336.742 278.449 331.046 277.17 326.746 274.613C322.329 271.939 320.12 268.394 320.12 263.977C320.12 260.49 320.992 256.48 322.735 251.946C324.479 247.297 327.85 241.252 332.848 233.813C337.73 226.374 344.879 216.726 354.294 204.87C363.826 192.897 376.321 177.903 391.781 159.886C392.827 160.002 395.326 160.118 399.278 160.234C403.23 160.351 406.311 160.409 408.519 160.409C410.495 160.409 411.948 160.409 412.878 160.409C413.924 160.292 414.912 160.176 415.842 160.06C398.871 180.053 384.981 196.501 374.171 209.403C363.477 222.306 355.224 232.593 349.412 240.264C343.6 247.936 339.59 253.806 337.381 257.874C335.173 261.943 334.069 265.197 334.069 267.638C334.069 270.661 335.696 272.404 338.951 272.869C342.205 273.334 344.821 273.567 346.797 273.567C353.074 273.567 359.932 271.474 367.371 267.29C374.81 262.989 382.191 257.7 389.514 251.423C396.953 245.03 403.811 238.579 410.088 232.07C416.481 225.56 421.712 219.981 425.781 215.331C429.849 210.565 432.232 207.834 432.929 207.136L433.12 207.308L436.416 210.275C435.138 211.67 432.348 214.866 428.047 219.865C424.574 223.901 420.418 228.469 415.579 233.567C414.427 234.782 413.236 236.026 412.006 237.3C405.613 243.81 398.581 250.203 390.909 256.48C383.354 262.756 375.507 267.987 367.371 272.172C359.35 276.356 351.504 278.449 343.833 278.449Z" fill="#FCAEBD"/>
<path d="M510.693 278.449C503.253 278.449 497.79 276.414 494.303 272.346C490.932 268.278 489.247 262.698 489.247 255.608C489.247 247.82 490.874 239.509 494.129 230.675C497.499 221.841 503.021 213.065 510.693 204.347C526.385 186.097 541.031 173.95 554.631 167.906C568.347 161.745 581.191 158.665 593.164 158.665C599.208 158.665 604.322 159.944 608.507 162.501C612.691 165.058 614.784 168.545 614.784 172.962C614.784 176.333 614.086 179.762 612.692 183.25C616.411 178.832 619.55 174.997 622.107 171.742C624.78 168.371 627.338 165.174 629.779 162.152C632.801 163.082 636.288 163.547 640.24 163.547C641.867 163.547 644.076 163.489 646.866 163.373C649.655 163.257 651.806 163.082 653.317 162.85L594.558 233.639C587.119 242.473 581.772 249.68 578.518 255.259C575.263 260.722 573.636 264.965 573.636 267.987C573.636 271.707 575.437 273.567 579.041 273.567C585.317 273.567 591.827 271.765 598.569 268.162C605.31 264.442 611.936 259.734 618.445 254.039C624.955 248.227 631.057 242.24 636.753 236.08C642.449 229.803 647.447 224.049 651.748 218.818C656.165 213.471 659.536 209.519 661.86 206.962L665.347 209.926C662.79 212.832 659.187 217.017 654.537 222.48C649.888 227.943 644.541 233.871 638.496 240.264C632.568 246.657 626.117 252.76 619.143 258.572C612.285 264.384 605.194 269.15 597.871 272.869C590.664 276.589 583.516 278.449 576.425 278.449C564.801 278.449 558.989 274.845 558.989 267.638C558.989 264.965 559.454 262.291 560.384 259.618C561.43 256.828 563.465 253.283 566.487 248.982C569.509 244.565 574.042 238.695 580.087 231.372L578.343 230.675C564.162 248.11 551.027 260.432 538.938 267.638C526.966 274.845 517.551 278.449 510.693 278.449ZM511.39 273.218C518.829 273.218 528.651 268.917 540.856 260.315C553.061 251.598 567.707 237.126 584.794 216.9C587.584 213.53 590.141 210.391 592.466 207.485C594.907 204.579 597.232 201.848 599.44 199.29C602.114 195.222 604.497 190.979 606.589 186.562C608.798 182.145 609.902 178.135 609.902 174.532C609.902 170.928 608.623 168.313 606.066 166.686C603.509 164.942 600.719 164.07 597.697 164.07C592.001 164.07 582.76 168.197 569.974 176.45C557.304 184.586 543.355 197.663 528.128 215.68C519.41 226.141 513.134 235.44 509.298 243.577C505.462 251.714 503.544 258.572 503.544 264.151C503.544 270.196 506.159 273.218 511.39 273.218Z" fill="#FCAEBD"/>
<path d="M148.417 480.845C139.234 480.845 131.388 478.578 124.879 474.045C118.486 469.395 115.289 463.874 115.289 457.481C115.289 452.134 117.091 448.414 120.694 446.322C124.298 444.114 127.901 443.009 131.504 443.009C133.48 443.009 135.398 443.591 137.258 444.753C139.234 445.915 140.222 447.949 140.222 450.855C140.222 453.064 139.234 455.04 137.258 456.784C135.282 458.527 132.957 459.399 130.284 459.399C128.773 459.399 127.32 459.341 125.925 459.225C124.53 458.992 123.251 458.527 122.089 457.83V458.876C122.089 463.874 124.588 468.059 129.586 471.43C134.585 474.684 141.326 476.312 149.812 476.312C154.694 476.312 159.401 475.614 163.935 474.219C168.468 472.824 173.118 470.965 177.883 468.64C183.928 465.734 190.495 461.433 197.586 455.737C204.676 449.926 213.103 441.731 222.868 431.153C232.632 420.459 244.372 406.511 258.088 389.307C250.997 391.4 244.778 393.318 239.431 395.061C226.761 399.478 214.324 405.174 202.119 412.148C189.914 419.006 180.615 427.259 174.222 436.907C173.757 437.953 173.118 438.476 172.304 438.476C171.49 438.476 171.2 438.011 171.432 437.081C171.548 436.732 171.606 436.384 171.606 436.035C171.723 435.57 172.071 434.756 172.653 433.594C174.512 429.642 177.767 425.69 182.417 421.738C187.182 417.669 192.413 413.834 198.109 410.23C203.804 406.627 208.919 403.663 213.452 401.338C218.683 398.664 225.25 395.875 233.155 392.969C241.059 390.063 250.823 386.983 262.447 383.728C276.744 364.316 290.053 347.578 302.374 333.513C314.696 319.332 324.46 308.522 331.666 301.083C320.043 308.289 310.279 313.288 302.374 316.077C294.586 318.751 287.845 320.087 282.149 320.087C276.221 320.087 271.281 318.635 267.329 315.729C263.493 312.823 261.575 308.522 261.575 302.826C261.575 297.014 263.202 291.26 266.457 285.565C268.084 282.716 270.497 279.65 273.695 276.365C275.776 274.227 278.19 271.997 280.937 269.674C282.408 268.43 283.974 267.159 285.636 265.862C290.053 262.259 292.843 259.702 294.005 258.191C295.284 256.68 295.923 255.343 295.923 254.18C295.923 250.693 294.063 247.845 290.344 245.637C286.74 243.428 280.987 242.324 273.082 242.324C270.329 242.324 267.569 242.491 264.803 242.824C258.93 243.533 253.03 244.993 247.103 247.206C245.16 247.915 243.261 248.704 241.407 249.574C235.053 252.552 229.222 256.47 223.914 261.329C222.17 262.956 220.717 263.77 219.555 263.77C218.276 263.77 217.637 263.189 217.637 262.027C217.637 261.445 217.927 260.806 218.509 260.109C219.206 259.411 219.962 258.597 220.775 257.668C227.07 252.047 234.669 247.568 243.572 244.231C243.876 244.117 244.181 244.004 244.488 243.893C251.999 241.076 259.663 239.397 267.478 238.856C269.337 238.727 271.206 238.663 273.082 238.663C282.73 238.663 290.228 240.464 295.574 244.068C300.921 247.555 303.595 252.379 303.595 258.539C303.595 265.049 301.735 271.442 298.015 277.719C294.412 283.879 287.322 290.389 276.744 297.247C273.024 299.571 270.641 301.373 269.595 302.652C268.549 303.814 268.026 305.209 268.026 306.836C268.026 308.464 269.188 310.323 271.513 312.416C273.954 314.392 278.255 315.38 284.416 315.38C291.739 315.38 300.921 312.648 311.964 307.185C323.123 301.722 334.224 294.166 345.266 284.519C355.96 274.987 367.294 268.859 374.384 262.931C381.475 257.003 388.809 252.978 393.691 249.491C398.689 245.888 400.538 242.15 404.722 240.057C406.349 239.36 406.64 237.384 407.686 236.919C408.732 236.454 409.488 236.222 409.953 236.222C411.58 236.222 412.006 234.586 412.006 235.4C412.006 235.633 411.173 238.546 408.732 240.057C407.802 240.522 406.466 241.336 404.722 242.498C402.979 243.545 400.073 245.579 396.004 248.601C384.38 258.133 371.769 271.558 358.169 288.878C344.569 306.197 329.109 327.004 311.79 351.297C308.535 355.598 305.28 359.783 302.026 363.851C298.771 367.803 295.633 371.697 292.61 375.533C301.909 373.092 312.138 370.535 323.297 367.861C334.456 365.072 346.719 362.049 360.087 358.795C361.482 357.051 362.935 355.308 364.446 353.564C365.957 351.821 367.468 350.019 368.979 348.159C381.881 332.932 394.621 316.568 409.565 301.083C418.477 291.848 427.085 283.425 435.983 275.771C440.657 271.751 445.411 267.943 450.332 264.341C450.339 264.336 450.346 264.331 450.353 264.326C464.651 253.748 477.728 245.437 489.584 239.393C501.556 233.348 511.088 230.326 518.178 230.326C523.293 230.326 531.073 235.873 533.747 238.314C536.42 240.639 537.757 243.545 537.757 247.032C537.757 252.844 534.212 260.283 527.121 269.35C520.03 278.416 509.802 288.122 496.434 298.467C483.183 308.812 467.258 318.983 448.66 328.98C430.178 338.976 409.43 347.752 386.415 355.308C374.21 370.186 363.167 384.658 353.287 398.723C343.407 412.671 335.502 425.109 329.574 436.035C323.762 446.845 320.856 454.982 320.856 460.445C320.856 466.141 321.961 470.267 324.169 472.824C326.378 475.265 330.155 476.486 335.502 476.486C344.104 476.486 353.054 473.173 362.353 466.548C371.769 459.922 380.545 450.623 388.681 438.65C396.818 426.678 403.269 412.729 408.035 396.805C408.965 393.318 410.36 391.574 412.22 391.574C413.149 391.574 413.789 393.259 414.137 396.63C414.602 401.629 413.498 407.731 410.825 414.938C408.151 422.145 404.199 429.584 398.968 437.256C393.738 444.811 387.635 451.902 380.661 458.527C373.803 465.153 366.364 470.558 358.343 474.742C350.439 478.811 342.36 480.845 334.107 480.845C326.784 480.845 321.205 478.462 317.369 473.696C313.533 468.814 311.615 463.7 311.615 458.353C311.615 447.31 314.696 434.291 320.856 419.297C327.133 404.186 338.757 385.82 355.728 364.2C345.15 367.106 333.991 370.012 322.251 372.918C310.627 375.707 299.12 378.555 287.728 381.461C269.711 403.198 253.322 421.157 238.56 435.338C223.797 449.519 209.5 460.503 195.668 468.291C187.88 472.824 179.801 476.079 171.432 478.055C163.179 479.915 155.507 480.845 148.417 480.845ZM391.645 349.205C411.29 341.766 429.597 333.048 446.568 323.052C463.539 313.055 478.359 302.884 491.029 292.539C503.815 282.194 513.754 272.72 520.844 264.119C528.051 255.517 531.654 248.892 531.654 244.242C531.654 240.29 524.978 233.987 519.399 233.987C512.657 233.987 504.23 237.126 494.117 243.403C484.121 249.563 473.078 257.933 460.989 268.51C449.017 278.972 436.817 291.764 425.781 305.428C413.76 320.31 403.385 335.257 391.645 349.205Z" fill="#FCAEBD"/>
<path d="M437.676 480.845C430.236 480.845 424.773 478.811 421.286 474.742C417.915 470.674 416.23 465.095 416.23 458.004C416.23 450.216 417.857 441.905 421.112 433.071C424.483 424.237 430.004 415.461 437.676 406.743C453.368 388.494 468.014 376.347 481.614 370.302C495.33 364.142 508.174 361.061 520.147 361.061C526.191 361.061 531.306 362.34 535.49 364.897C539.675 367.455 541.767 370.942 541.767 375.359C541.767 378.73 541.07 382.159 539.675 385.646C543.394 381.229 546.533 377.393 549.09 374.138C551.763 370.767 554.321 367.571 556.762 364.549C559.784 365.479 563.271 365.943 567.223 365.943C568.85 365.943 571.059 365.885 573.849 365.769C576.638 365.653 578.789 365.478 580.3 365.246L521.542 436.035C514.102 444.869 508.755 452.076 505.501 457.655C502.246 463.119 500.619 467.361 500.619 470.383C500.619 474.103 502.42 475.963 506.024 475.963C512.301 475.963 518.81 474.161 525.552 470.558C532.294 466.838 538.919 462.131 545.429 456.435C551.938 450.623 558.04 444.637 563.736 438.476C569.432 432.199 574.43 426.445 578.731 421.215C583.148 415.868 586.519 411.916 588.843 409.358L592.331 412.322C589.773 415.228 586.17 419.413 581.52 424.876C576.871 430.339 571.524 436.268 565.48 442.661C559.551 449.054 553.1 455.156 546.126 460.968C539.268 466.78 532.177 471.546 524.854 475.265C517.648 478.985 510.499 480.845 503.408 480.845C491.785 480.845 485.973 477.241 485.973 470.035C485.973 467.361 486.438 464.688 487.368 462.014C488.414 459.225 490.448 455.679 493.47 451.378C496.492 446.961 501.025 441.091 507.07 433.768L505.326 433.071C491.145 450.507 478.01 462.828 465.922 470.035C453.949 477.241 444.534 480.845 437.676 480.845ZM438.373 475.614C445.812 475.614 455.635 471.313 467.84 462.712C480.045 453.994 494.691 439.522 511.778 419.297C514.567 415.926 517.125 412.787 519.449 409.881C521.89 406.976 524.215 404.244 526.424 401.687C529.097 397.618 531.48 393.376 533.572 388.959C535.781 384.542 536.885 380.531 536.885 376.928C536.885 373.325 535.606 370.709 533.049 369.082C530.492 367.338 527.702 366.467 524.68 366.467C518.984 366.467 509.743 370.593 496.957 378.846C484.287 386.983 470.339 400.059 455.111 418.076C446.394 428.538 440.117 437.837 436.281 445.973C432.445 454.11 430.527 460.968 430.527 466.548C430.527 472.592 433.142 475.614 438.373 475.614Z" fill="#FCAEBD"/>
<path d="M616.392 480.845C609.883 480.845 604.594 479.218 600.525 475.963C596.457 472.592 594.423 468.233 594.423 462.886C594.423 453.587 601.223 442.37 614.823 429.235C628.423 416.1 646.846 401.745 670.094 386.169C658.238 384.193 648.009 382.217 639.407 380.241C630.922 378.265 624.122 376.114 619.007 373.79C616.683 378.439 613.312 384.135 608.895 390.877C604.478 397.618 598.84 404.883 591.982 412.671C587.332 418.134 583.845 421.97 581.52 424.179C579.196 426.387 577.568 427.724 576.638 428.189C575.825 428.538 575.36 428.828 575.244 429.061C574.895 429.177 574.662 428.828 574.546 428.015C574.546 427.201 574.604 426.562 574.721 426.097C574.721 425.632 575.592 424.527 577.336 422.784C579.079 421.04 582.741 416.681 588.32 409.707C594.132 402.384 599.305 395.41 603.838 388.784C608.372 382.159 611.859 376.347 614.3 371.349C610.115 368.675 607.674 365.711 606.977 362.456C606.047 356.877 607.151 351.821 610.289 347.287C613.428 342.754 617.496 340.487 622.494 340.487C628.655 340.487 631.735 343.161 631.735 348.508C631.735 351.181 631.212 353.448 630.166 355.308C629.12 357.167 628.074 358.969 627.028 360.713C624.935 363.154 623.889 366.234 623.889 369.954C623.889 371.116 625.865 372.395 629.817 373.79C633.886 375.068 638.826 376.347 644.638 377.625C650.566 378.788 656.378 379.834 662.074 380.764C667.769 381.577 672.244 382.101 675.499 382.333C677.708 382.449 679.044 382.856 679.509 383.554C680.09 384.135 680.381 384.6 680.381 384.948C680.381 386.111 678.696 388.029 675.325 390.702C668.932 395.584 662.364 401.512 655.622 408.487C648.881 415.345 642.604 422.493 636.792 429.933C630.98 437.256 626.272 444.172 622.669 450.681C619.065 457.19 617.264 462.537 617.264 466.722C617.264 472.185 619.472 474.917 623.889 474.917C629.585 474.917 635.804 472.999 642.546 469.163C649.287 465.327 656.087 460.503 662.945 454.691C669.92 448.879 676.429 442.893 682.473 436.733C688.634 430.456 693.923 424.876 698.34 419.994C702.757 414.996 705.837 411.567 707.581 409.707L711.068 412.671C708.511 415.112 704.849 419.006 700.083 424.353C695.434 429.584 689.971 435.454 683.694 441.963C677.417 448.356 670.559 454.517 663.12 460.445C655.797 466.373 648.183 471.255 640.279 475.091C632.375 478.927 624.412 480.845 616.392 480.845Z" fill="#FCAEBD"/>
<path d="M695.201 480.845C688.808 480.845 684.043 479.566 680.904 477.009C677.649 474.452 676.022 471.197 676.022 467.245C676.022 464.107 676.429 461.026 677.243 458.004C678.056 454.866 679.8 450.914 682.473 446.148C685.147 441.382 689.215 434.989 694.678 426.969C700.142 418.832 707.523 408.196 716.822 395.061L761.806 331.769H748.032C744.545 331.769 742.801 331.014 742.801 329.503C742.801 327.643 745.009 326.713 749.426 326.713H765.293L797.549 281.38C799.06 281.613 801.036 281.845 803.477 282.078C806.034 282.194 809.638 282.194 814.287 282.078C816.612 282.078 819.111 281.845 821.785 281.38L788.134 326.713H833.118C836.373 326.713 838 327.527 838 329.154C838 330.898 836.547 331.769 833.641 331.769H784.298L738.268 393.841C727.341 408.487 718.565 420.517 711.94 429.933C705.314 439.348 700.258 446.787 696.771 452.25C693.4 457.714 691.075 461.782 689.796 464.455C688.634 467.129 688.053 469.105 688.053 470.383C688.053 473.871 690.959 475.73 696.771 475.963C704.791 475.847 713.044 473.231 721.529 468.117C730.131 462.886 738.384 456.551 746.288 449.112C754.192 441.556 761.283 434.175 767.56 426.969C773.837 419.645 778.719 413.892 782.206 409.707L786.042 412.671C782.671 416.623 777.731 422.319 771.221 429.758C764.712 437.197 757.214 444.869 748.729 452.773C740.36 460.561 731.584 467.187 722.401 472.65C713.218 478.113 704.152 480.845 695.201 480.845Z" fill="#FCAEBD"/>
<path d="M243.577 273.741C247.064 276.879 252.353 278.449 259.444 278.449C263.233 278.449 267.983 277.754 273.695 276.365C275.776 274.227 278.19 271.997 280.937 269.674C279.276 270.271 277.633 270.812 276.008 271.3C270.312 272.927 265.779 273.741 262.408 273.741C255.666 273.741 252.295 271.3 252.295 266.418C252.295 265.023 252.644 263.454 253.341 261.71C254.039 259.85 255.666 256.886 258.223 252.818C259.881 250.224 262.074 246.893 264.803 242.824C258.93 243.533 253.03 244.993 247.103 247.206C245.16 247.915 243.261 248.704 241.407 249.574C239.367 255.011 238.346 259.115 238.346 261.885C238.346 266.534 240.09 270.486 243.577 273.741Z" fill="#FCAEBD"/>
<path d="M261.71 213.239C252.855 226.629 246.809 236.96 243.572 244.231C243.876 244.117 244.181 244.004 244.488 243.893C251.999 241.076 259.663 239.397 267.478 238.856C268.411 237.476 269.395 236.028 270.428 234.511C282.517 217.307 295.419 199.058 309.135 179.762C322.852 160.467 336.742 141.462 350.807 122.748C364.872 104.033 378.588 86.8299 391.955 71.1378C405.439 55.3294 417.934 42.3688 429.442 32.2561C432.929 29.2339 436.184 26.6767 439.206 24.5844C442.228 22.4921 443.739 21.0391 443.739 20.2254C443.739 19.2955 443.158 18.8306 441.996 18.8306C438.392 18.8306 432.58 21.1554 424.56 25.8049C416.54 30.3382 405.788 38.068 392.304 48.9944C378.937 59.8045 362.198 74.5668 342.089 93.2811C326.978 107.578 313.494 120.481 301.638 131.988C289.782 143.38 278.855 154.132 268.859 164.245C258.979 174.357 249.273 184.528 239.741 194.757C230.326 204.87 220.446 215.738 210.101 227.362C199.872 238.986 188.422 252.121 175.752 266.767C178.193 261.768 182.261 254.271 187.957 244.275C193.769 234.162 200.627 222.538 208.531 209.403C216.552 196.268 225.095 182.378 234.162 167.732C243.228 153.086 252.353 138.556 261.536 124.142C270.835 109.729 279.553 96.3615 287.69 84.0402C295.942 71.6027 303.149 61.025 309.31 52.3072C315.587 43.4731 320.236 37.4287 323.258 34.174C325.699 31.733 327.734 29.757 329.361 28.2459C331.105 26.7348 332.557 25.4562 333.72 24.41C335.463 22.8989 336.335 21.7947 336.335 21.0972C336.335 20.516 335.754 20.1092 334.592 19.8767C333.429 19.528 332.441 19.3537 331.628 19.3537C330.581 19.3537 326.281 22.2015 318.725 27.8972C311.286 33.5928 300.127 43.5312 285.249 57.7123C270.486 71.7771 251.539 91.4213 228.408 116.645C200.86 146.751 176.74 171.916 156.05 192.142C135.359 212.367 117.342 228.466 101.999 240.439C86.7718 252.295 73.5207 260.78 62.2456 265.895C51.0867 271.009 41.2064 273.567 32.6048 273.567C24.1194 273.567 17.6682 272.055 13.2512 269.033C8.8341 266.011 6.62558 262.001 6.62558 257.003V256.131C6.74182 255.782 6.79993 255.375 6.79993 254.91C7.96232 255.724 9.24094 256.247 10.6358 256.48C12.1469 256.712 13.658 256.828 15.1691 256.828C17.8426 256.828 20.1673 255.956 22.1434 254.213C24.1194 252.353 25.1075 250.319 25.1075 248.11C25.1075 245.321 24.0613 243.287 21.969 242.008C19.993 240.729 18.075 240.09 16.2152 240.09C12.6118 240.09 9.00846 241.427 5.40508 244.1C1.80169 246.657 0 250.61 0 255.957C0 262.466 2.7316 267.813 8.19479 271.997C13.658 276.182 21.8528 278.274 32.7792 278.274C43.4731 278.274 55.7943 274.787 69.7429 267.813C86.0163 259.56 104.731 246.541 125.886 228.757C147.041 210.856 170.87 187.376 197.372 158.316C227.943 124.724 251.83 98.9768 269.033 81.0761C286.353 63.1755 298.267 51.261 304.777 45.3329C284.435 68.3481 265.779 91.0726 248.808 113.507C231.837 135.941 217.133 157.212 204.695 177.321C192.374 197.314 182.843 215.273 176.101 231.198C169.359 247.006 165.988 259.792 165.988 269.556C165.988 272.114 166.395 273.973 167.209 275.136C168.139 276.298 169.01 276.879 169.824 276.879C171.103 276.879 172.846 276.066 175.055 274.438C177.379 272.811 181.564 268.452 187.608 261.362C212.6 232.186 234.336 208.008 252.818 188.829C271.416 169.65 285.597 155.41 295.361 146.111C314.889 127.397 331.453 111.647 345.053 98.8606C358.653 86.0744 370.102 75.4967 379.401 67.1276C388.701 58.6422 396.547 51.726 402.94 46.379C409.333 41.0321 415.145 36.4988 420.375 32.7792C409.914 43.1244 397.883 55.2131 384.283 69.0455C370.8 82.8778 356.735 97.7563 342.089 113.681C327.559 129.606 313.32 146.053 299.371 163.024C285.423 179.879 272.869 196.617 261.71 213.239Z" fill="#FCAEBD"/>
<path d="M433.12 207.308L436.416 210.275C435.138 211.67 432.348 214.866 428.047 219.865C424.574 223.901 420.418 228.469 415.579 233.567C413.085 237.533 411.08 240.928 409.565 243.751C406.892 248.401 405.206 252.237 404.509 255.259C403.695 258.165 403.288 261.187 403.288 264.326C403.288 268.278 404.916 271.649 408.17 274.438C411.309 277.112 415.319 278.449 420.201 278.449C425.36 278.449 430.62 277.556 435.983 275.771C440.657 271.751 445.411 267.943 450.332 264.341C448.45 265.46 446.592 266.506 444.785 267.464C437.23 271.532 430.023 273.567 423.165 273.567C417.702 273.567 414.97 271.649 414.97 267.813C414.97 266.418 415.319 264.791 416.016 262.931C416.714 260.955 418.457 257.758 421.247 253.341C424.037 248.808 428.396 242.299 434.324 233.813C440.252 225.212 448.447 213.588 458.908 198.942L602.23 0C600.719 0.116238 599.324 0.290595 598.046 0.523072C596.883 0.63931 595.837 0.697429 594.907 0.697429C590.258 0.813667 586.654 0.755548 584.097 0.523072C581.656 0.290595 579.622 0.116238 577.994 0L443.216 192.665C439.544 197.964 436.178 202.845 433.12 207.308Z" fill="#FCAEBD"/>
</svg>
