<svg width="669" height="345" viewBox="0 0 669 345" fill="none" xmlns="http://www.w3.org/2000/svg">
<path d="M42.4188 160.478C36.4331 160.478 31.3187 159 27.0757 156.045C22.9084 153.015 20.8248 149.416 20.8248 145.248C20.8248 141.763 21.9992 139.338 24.348 137.975C26.6968 136.535 29.0457 135.815 31.3945 135.815C32.6826 135.815 33.9327 136.194 35.145 136.952C36.4331 137.709 37.0771 139.035 37.0771 140.93C37.0771 142.369 36.4331 143.657 35.145 144.794C33.857 145.93 32.3416 146.499 30.5989 146.499C29.6139 146.499 28.6668 146.461 27.7576 146.385C26.8484 146.233 26.0149 145.93 25.2572 145.476V146.158C25.2572 149.416 26.8863 152.143 30.1443 154.341C33.4024 156.462 37.7969 157.523 43.3281 157.523C46.5103 157.523 49.579 157.068 52.5339 156.159C55.4889 155.25 58.5197 154.038 61.6262 152.522C65.5661 150.628 69.8471 147.825 74.4689 144.112C79.0908 140.323 84.5841 134.982 90.9486 128.087C97.3132 121.116 104.966 112.024 113.907 100.81C109.285 102.174 105.231 103.424 101.746 104.561C93.4869 107.44 85.3796 111.153 77.4239 115.699C69.4682 120.169 63.4067 125.549 59.2395 131.837C58.9364 132.519 58.5197 132.86 57.9893 132.86C57.4589 132.86 57.2695 132.557 57.421 131.951C57.4968 131.724 57.5347 131.496 57.5347 131.269C57.6104 130.966 57.8377 130.436 58.2166 129.678C59.4289 127.102 61.5504 124.526 64.5811 121.95C67.6877 119.298 71.0972 116.797 74.8099 114.448C78.5226 112.1 81.8564 110.168 84.8114 108.652C88.2209 106.909 92.5019 105.091 97.6541 103.197C102.806 101.303 109.171 99.2947 116.748 97.1732C126.067 84.5199 134.743 73.6092 142.774 64.4412C150.806 55.1974 157.17 48.1509 161.868 43.3017C154.291 47.9994 147.927 51.2575 142.774 53.0759C137.698 54.8186 133.303 55.6899 129.591 55.6899C125.726 55.6899 122.506 54.7428 119.93 52.8486C117.43 50.9544 116.18 48.1509 116.18 44.4383C116.18 40.6498 117.24 36.8993 119.362 33.1866C121.483 29.474 125.651 25.1931 131.864 20.3439C134.743 17.995 136.561 16.3281 137.319 15.3431C138.152 14.3581 138.569 13.4868 138.569 12.7291C138.569 10.4561 137.357 8.59973 134.932 7.16013C132.583 5.72053 128.833 5.00073 123.681 5.00073C118.074 5.00073 112.429 6.06149 106.746 8.18301C101.139 10.2288 96.1009 13.2974 91.6305 17.3889C90.494 18.4497 89.5469 18.98 88.7892 18.98C87.9558 18.98 87.539 18.6012 87.539 17.8435C87.539 17.4647 87.7284 17.0479 88.1073 16.5933C88.5619 16.1387 89.0544 15.6083 89.5848 15.0022C93.8278 11.2138 98.9801 8.22089 105.042 6.0236C111.103 3.75054 117.316 2.61402 123.681 2.61402C129.969 2.61402 134.857 3.78843 138.342 6.13726C141.827 8.41031 143.57 11.5547 143.57 15.5704C143.57 19.8135 142.358 23.9808 139.933 28.0723C137.584 32.088 132.962 36.331 126.067 40.8014C123.643 42.3168 122.09 43.4912 121.408 44.3246C120.726 45.0823 120.385 45.9915 120.385 47.0523C120.385 48.1131 121.142 49.3254 122.658 50.6892C124.249 51.9773 127.052 52.6213 131.068 52.6213C135.841 52.6213 141.827 50.8407 149.025 47.2796C156.299 43.7185 163.535 38.7935 170.733 32.5047C177.704 26.2917 183.5 21.2531 188.122 17.3889C192.744 13.5247 196.646 10.4561 199.828 8.18301C203.086 5.83418 206.079 3.97785 208.807 2.61402C209.867 2.1594 210.739 1.78056 211.421 1.47749C212.103 1.17441 212.595 1.02288 212.898 1.02288C213.959 1.02288 214.489 1.28807 214.489 1.81845C214.489 1.96998 213.694 2.53825 212.103 3.52324C211.496 3.82631 210.625 4.35669 209.489 5.11438C208.352 5.7963 206.458 7.12225 203.806 9.09223C196.229 15.3053 188.008 24.0565 179.143 35.346C170.278 46.6356 160.201 60.1981 148.912 76.0338C146.79 78.8372 144.669 81.5649 142.547 84.2168C140.426 86.7929 138.38 89.3312 136.41 91.8315C142.471 90.2404 149.139 88.5735 156.413 86.8308C163.686 85.0124 171.68 83.0424 180.393 80.9209C181.303 79.7843 182.25 78.6478 183.235 77.5113C184.22 76.3747 185.205 75.2003 186.19 73.988C194.6 64.0623 203.617 54.667 213.239 45.8021C222.937 36.8614 232.446 28.9815 241.766 22.1623C251.086 15.2674 259.609 9.84992 267.338 5.90995C275.142 1.96998 281.355 0 285.977 0C289.311 0 291.849 0.79557 293.592 2.38671C295.334 3.90208 296.206 5.7963 296.206 8.06935C296.206 11.8578 293.895 16.707 289.273 22.6169C284.651 28.5269 277.983 34.8536 269.27 41.597C260.632 48.3404 250.252 54.9701 238.129 61.4862C226.082 68.0023 212.557 73.7228 197.555 78.6478C189.599 88.3462 182.401 97.7794 175.961 106.947C169.521 116.04 164.368 124.147 160.504 131.269C156.716 138.316 154.822 143.619 154.822 147.18C154.822 150.893 155.541 153.583 156.981 155.25C158.421 156.841 160.883 157.637 164.368 157.637C169.975 157.637 175.809 155.477 181.871 151.158C188.008 146.84 193.729 140.778 199.032 132.974C204.336 125.17 208.541 116.077 211.648 105.697C212.254 103.424 213.163 102.288 214.376 102.288C214.982 102.288 215.399 103.386 215.626 105.584C215.929 108.842 215.209 112.819 213.466 117.517C211.724 122.215 209.148 127.064 205.738 132.065C202.328 136.99 198.351 141.611 193.804 145.93C189.334 150.249 184.485 153.772 179.257 156.5C174.105 159.152 168.839 160.478 163.459 160.478C158.686 160.478 155.049 158.925 152.548 155.818C150.048 152.636 148.798 149.302 148.798 145.817C148.798 138.619 150.806 130.133 154.822 120.358C158.913 110.508 166.49 98.537 177.552 84.4441C170.657 86.3383 163.383 88.2325 155.731 90.1267C148.154 91.9452 140.653 93.8015 133.227 95.6957C121.483 109.864 110.8 121.571 101.177 130.814C91.5548 140.058 82.2352 147.218 73.2188 152.295C68.1423 155.25 62.8763 157.371 57.421 158.659C52.0414 159.872 47.0407 160.478 42.4188 160.478ZM200.965 74.6699C213.769 69.8208 225.703 64.1381 236.765 57.622C247.827 51.1059 257.488 44.4762 265.747 37.7328C274.081 30.9894 280.56 24.8142 285.181 19.2073C289.879 13.6005 292.228 9.28165 292.228 6.25091C292.228 3.67478 290.409 2.38671 286.773 2.38671C282.378 2.38671 276.885 4.43246 270.293 8.52397C263.777 12.5397 256.579 17.995 248.699 24.89C240.895 31.7092 232.901 39.4376 224.718 48.0752C216.535 56.7128 208.617 65.5777 200.965 74.6699Z" fill="#FCAEBD"/>
<path d="M240.289 160.932C232.863 160.932 227.559 159 224.377 155.136C221.195 151.272 219.528 146.536 219.376 140.93C219.301 136.838 220.134 132.292 221.877 127.291C223.619 122.291 225.438 118.464 227.332 115.812C232.939 108.008 239 101.644 245.517 96.7186C252.033 91.7936 258.397 88.1946 264.61 85.9216C270.899 83.5728 276.43 82.3983 281.204 82.3983C285.825 82.3983 289.046 83.156 290.864 84.6714C292.758 86.1868 293.743 87.9294 293.819 89.8994C294.046 92.8544 292.455 96.3019 289.046 100.242C285.712 104.106 279.84 108.311 271.429 112.857C263.019 117.403 251.275 122.177 236.197 127.178C233.545 131.421 231.765 135.095 230.855 138.202C229.946 141.233 229.491 143.96 229.491 146.385C229.491 149.946 230.666 152.712 233.015 154.682C235.439 156.652 238.281 157.637 241.539 157.637C248.661 157.637 255.329 156.311 261.542 153.659C267.83 150.931 273.551 147.521 278.703 143.43C283.931 139.338 288.515 135.209 292.455 131.042C296.395 126.799 299.615 123.124 302.116 120.017C304.616 116.835 306.283 114.865 307.116 114.108L309.503 116.04C308.367 117.025 306.434 119.184 303.707 122.518C301.055 125.852 297.645 129.678 293.478 133.997C289.387 138.316 284.651 142.521 279.271 146.612C273.892 150.704 267.906 154.113 261.314 156.841C254.798 159.569 247.79 160.932 240.289 160.932ZM238.811 123.2C253.51 118.047 265.103 112.744 273.589 107.288C282.075 101.757 286.318 96.4913 286.318 91.4906C286.318 87.2475 284.348 85.126 280.408 85.126C275.331 85.126 269.838 87.8537 263.928 93.309C258.018 98.7644 251.123 106.682 243.243 117.062C241.577 119.184 240.099 121.23 238.811 123.2Z" fill="#FCAEBD"/>
<path d="M325.415 160.478C321.171 160.478 317.724 159.417 315.072 157.296C312.42 155.098 311.094 152.257 311.094 148.772C311.094 142.71 315.527 135.398 324.392 126.837C333.257 118.275 345.266 108.917 360.42 98.7644C352.691 97.4763 346.024 96.1882 340.417 94.9002C334.886 93.6121 330.453 92.2104 327.119 90.695C325.604 93.7257 323.407 97.4384 320.527 101.833C317.648 106.228 313.973 110.963 309.503 116.04C306.472 119.601 304.199 122.101 302.684 123.541C301.169 124.98 300.108 125.852 299.502 126.155C298.971 126.382 298.668 126.571 298.592 126.723C298.365 126.799 298.214 126.571 298.138 126.041C298.138 125.511 298.176 125.094 298.251 124.791C298.251 124.488 298.82 123.768 299.956 122.631C301.093 121.495 303.48 118.654 307.116 114.108C310.905 109.334 314.277 104.788 317.231 100.469C320.186 96.1503 322.46 92.3619 324.051 89.1039C321.323 87.3612 319.732 85.4291 319.277 83.3076C318.671 79.6707 319.391 76.3747 321.437 73.4198C323.482 70.4648 326.134 68.9873 329.392 68.9873C333.408 68.9873 335.416 70.73 335.416 74.2153C335.416 75.958 335.075 77.4355 334.393 78.6478C333.711 79.8601 333.029 81.0345 332.347 82.171C330.984 83.7622 330.302 85.77 330.302 88.1946C330.302 88.9523 331.59 89.7858 334.166 90.695C336.818 91.5285 340.038 92.3619 343.826 93.1954C347.69 93.9531 351.479 94.635 355.192 95.2411C358.904 95.7715 361.821 96.1125 363.943 96.264C365.382 96.3398 366.254 96.6049 366.557 97.0596C366.936 97.4384 367.125 97.7415 367.125 97.9688C367.125 98.7265 366.026 99.9767 363.829 101.719C359.662 104.902 355.381 108.766 350.986 113.312C346.592 117.782 342.5 122.442 338.712 127.291C334.923 132.065 331.855 136.573 329.506 140.816C327.157 145.059 325.983 148.544 325.983 151.272C325.983 154.833 327.422 156.614 330.302 156.614C334.014 156.614 338.068 155.363 342.462 152.863C346.857 150.363 351.289 147.218 355.76 143.43C360.306 139.642 364.549 135.739 368.489 131.724C372.505 127.632 375.952 123.995 378.831 120.813C381.711 117.555 383.718 115.32 384.855 114.108L387.128 116.04C385.461 117.631 383.074 120.169 379.968 123.654C376.937 127.064 373.376 130.89 369.285 135.133C365.193 139.301 360.723 143.316 355.873 147.18C351.1 151.045 346.137 154.227 340.985 156.727C335.833 159.228 330.643 160.478 325.415 160.478Z" fill="#FCAEBD"/>
<path d="M8.29666 335.474C7.38744 335.474 6.06149 335.36 4.31881 335.133C2.50036 334.981 1.06076 334.754 0 334.451C5.83418 326.571 12.426 317.668 19.7756 307.743C27.1252 297.817 34.7399 287.474 42.6198 276.715C50.424 265.956 58.0766 255.424 65.5777 245.12C73.003 234.739 79.6707 225.231 85.5806 216.593C89.9752 210.531 93.65 205.493 96.605 201.477C99.5599 197.461 102.288 193.787 104.788 190.453C107.364 187.119 110.092 183.52 112.971 179.656C115.926 175.792 119.487 171.056 123.654 165.449C127.897 159.766 147.208 132.974 158.324 112.986C161.052 113.289 161.868 114.373 163.459 114.448C165.126 114.524 149.226 144.537 150.363 144.537C151.424 144.537 172.694 100.886 173.755 100.81C174.891 100.659 192.744 81.2239 193.804 80.9209C183.235 86.8308 146.158 157.637 139.706 163.631C135.16 169.086 131.648 174.314 128.541 178.178C125.435 181.967 122.669 185.414 120.245 188.521C117.82 191.627 115.396 194.772 112.971 197.954C110.622 201.136 107.894 204.849 104.788 209.092C101.681 213.259 97.8173 218.449 93.1954 224.662L93.9909 225.571C117.555 202.917 134.944 188.672 146.158 182.838C149.719 181.02 152.863 179.618 155.591 178.633C158.394 177.572 162.107 177.042 166.729 177.042C170.517 177.042 173.245 177.913 174.912 179.656C176.654 181.398 177.526 183.671 177.526 186.475C177.526 192.233 174.988 198.522 169.911 205.341C164.91 212.16 156.045 220.078 143.316 229.095C135.739 234.474 130.814 238.376 128.541 240.801C126.268 243.15 125.132 245.158 125.132 246.825C125.132 250.234 127.822 251.939 133.201 251.939C138.505 251.939 143.922 250.272 149.454 246.938C154.985 243.529 160.326 239.399 165.479 234.55C170.631 229.625 175.253 224.776 179.344 220.002C183.512 215.229 186.77 211.479 189.118 208.751L191.619 210.683C189.346 213.259 186.088 216.972 181.845 221.821C177.677 226.67 172.828 231.671 167.297 236.823C161.842 241.9 156.121 246.218 150.135 249.78C144.15 253.341 138.278 255.121 132.519 255.121C128.049 255.121 124.715 254.136 122.518 252.166C120.396 250.12 119.336 247.355 119.336 243.87C119.336 238.717 122.177 232.542 127.859 225.344C133.542 218.146 143.165 209.509 156.727 199.431C163.471 194.582 167.6 191.059 169.115 188.862C170.631 186.664 171.389 184.884 171.389 183.52C171.389 182.611 170.972 181.777 170.138 181.02C169.381 180.262 168.244 179.883 166.729 179.883C163.168 179.883 159.682 180.489 156.273 181.701C152.863 182.914 149.188 184.694 145.248 187.043C140.399 189.847 134.906 193.673 128.769 198.522C122.631 203.371 116.305 208.827 109.789 214.888C103.273 220.874 96.8701 227.125 90.5813 233.641C84.3683 240.157 78.6478 246.521 73.4198 252.735C69.6313 257.735 65.4262 263.645 60.8043 270.464C56.1066 277.284 51.409 284.292 46.7113 291.49C41.9379 298.688 37.5433 305.432 33.5276 311.72C29.4361 318.009 26.1023 323.237 23.5261 327.404C20.8742 331.572 19.3589 333.958 18.98 334.565C18.2223 334.792 16.9722 334.981 15.2295 335.133C13.4868 335.36 11.1759 335.474 8.29666 335.474Z" fill="#FCAEBD"/>
<path d="M207.417 255.121C203.173 255.121 199.726 254.06 197.074 251.939C194.422 249.742 193.096 246.9 193.096 243.415C193.096 237.353 197.529 230.042 206.394 221.48C215.259 212.918 227.268 203.561 242.422 193.408C234.693 192.12 228.026 190.832 222.419 189.544C216.888 188.255 212.455 186.854 209.121 185.338C207.606 188.369 205.409 192.082 202.529 196.476C199.65 200.871 195.975 205.606 191.505 210.683C188.474 214.244 186.201 216.744 184.686 218.184C183.171 219.624 182.11 220.495 181.504 220.798C180.973 221.025 180.67 221.215 180.594 221.366C180.367 221.442 180.216 221.215 180.14 220.684C180.14 220.154 180.178 219.737 180.253 219.434C180.253 219.131 180.822 218.411 181.958 217.275C183.095 216.138 185.482 213.297 189.118 208.751C192.907 203.977 196.279 199.431 199.234 195.112C202.188 190.794 204.462 187.005 206.053 183.747C203.325 182.005 201.734 180.072 201.279 177.951C200.673 174.314 201.393 171.018 203.439 168.063C205.484 165.108 208.136 163.631 211.394 163.631C215.41 163.631 217.418 165.373 217.418 168.859C217.418 170.601 217.077 172.079 216.395 173.291C215.713 174.503 215.031 175.678 214.349 176.814C212.986 178.406 212.304 180.413 212.304 182.838C212.304 183.596 213.592 184.429 216.168 185.338C218.82 186.172 222.04 187.005 225.828 187.839C229.692 188.596 233.481 189.278 237.194 189.884C240.906 190.415 243.823 190.756 245.945 190.907C247.384 190.983 248.256 191.248 248.559 191.703C248.938 192.082 249.127 192.385 249.127 192.612C249.127 193.37 248.028 194.62 245.831 196.363C241.664 199.545 237.383 203.409 232.988 207.955C228.594 212.426 224.502 217.085 220.714 221.935C216.925 226.708 213.857 231.216 211.508 235.459C209.159 239.702 207.985 243.188 207.985 245.915C207.985 249.476 209.424 251.257 212.304 251.257C216.016 251.257 220.07 250.007 224.464 247.506C228.859 245.006 233.291 241.862 237.762 238.073C242.308 234.285 246.551 230.383 250.491 226.367C254.507 222.276 257.954 218.639 260.833 215.456C263.713 212.198 265.72 209.963 266.857 208.751L269.13 210.683C267.463 212.274 265.076 214.812 261.97 218.298C258.939 221.707 255.378 225.534 251.287 229.777C247.195 233.944 242.725 237.96 237.875 241.824C233.102 245.688 228.139 248.87 222.987 251.371C217.835 253.871 212.645 255.121 207.417 255.121Z" fill="#FCAEBD"/>
<path d="M273.335 255.121C266.971 255.121 262.273 253.682 259.242 250.802C256.211 247.847 254.507 244.248 254.128 240.005C253.901 234.853 254.961 229.322 257.31 223.412C259.735 217.502 262.349 212.539 265.152 208.524C268.865 203.296 273.373 198.295 278.677 193.521C283.981 188.672 289.777 184.732 296.066 181.701C302.43 178.595 308.946 177.042 315.614 177.042C319.63 177.042 323.077 178.102 325.956 180.224C328.911 182.27 330.54 185.566 330.844 190.112C331.222 196.552 329.972 203.333 327.093 210.456C324.214 217.502 320.312 224.056 315.387 230.118C315.917 232.315 317.622 233.414 320.501 233.414C323.305 233.414 326.373 232.315 329.707 230.118C333.041 227.845 336.261 225.193 339.368 222.162C342.55 219.131 345.277 216.328 347.551 213.752C349.824 211.175 351.339 209.509 352.097 208.751L354.597 210.683C353.157 212.047 351.112 214.168 348.46 217.048C345.808 219.851 342.853 222.768 339.595 225.799C336.413 228.754 333.117 231.292 329.707 233.414C326.373 235.535 323.229 236.596 320.274 236.596C316.637 236.596 314.174 235.459 312.886 233.186C307.28 239.551 300.953 244.817 293.906 248.984C286.936 253.075 280.079 255.121 273.335 255.121ZM276.29 251.712C278.942 251.712 282.011 250.954 285.496 249.439C288.981 247.923 292.467 245.915 295.952 243.415C301.786 239.248 307.052 234.361 311.75 228.754V228.299C311.75 223.601 312.962 219.889 315.387 217.161C317.887 214.358 320.312 212.577 322.661 211.819C326.373 204.091 328.04 197.158 327.661 191.021C327.434 187.308 326.449 184.732 324.706 183.293C323.039 181.853 321.183 181.133 319.137 181.133C314.743 181.133 309.325 183.747 302.885 188.975C296.52 194.128 289.398 201.591 281.518 211.365C275.911 218.411 271.971 224.359 269.698 229.208C267.501 234.058 266.554 238.263 266.857 241.824C266.857 243.87 267.539 246.029 268.903 248.302C270.342 250.575 272.805 251.712 276.29 251.712Z" fill="#FCAEBD"/>
<path d="M397.899 155.334C395.853 155.334 394.186 154.69 392.898 153.402C391.61 152.038 390.966 150.333 390.966 148.288C390.966 145.636 392.102 143.211 394.376 141.014C396.649 138.741 399.338 137.604 402.445 137.604C404.566 137.604 406.233 138.324 407.446 139.764C408.658 141.127 409.264 142.794 409.264 144.764C409.264 147.568 408.052 150.03 405.627 152.152C403.278 154.273 400.702 155.334 397.899 155.334ZM218.782 344.339C215.524 344.339 213.023 343.505 211.281 341.838C209.538 340.171 208.667 338.467 208.667 336.724C208.667 333.617 209.993 330.246 212.645 326.609C215.221 323.048 219.653 319.07 225.942 314.675C232.231 310.357 240.793 305.469 251.627 300.014C262.387 294.635 275.949 288.535 292.315 281.716C295.876 277.397 299.627 272.775 303.567 267.85C307.507 262.925 311.674 257.659 316.069 252.053C318.721 248.719 322.282 244.211 326.752 238.528C331.222 232.845 335.958 226.746 340.959 220.23C346.035 213.638 350.846 207.311 355.393 201.25C359.939 195.188 363.689 190.036 366.644 185.793C369.599 181.55 371.115 178.936 371.19 177.951C372.024 178.027 373.88 178.102 376.759 178.178C379.714 178.178 381.912 178.178 383.351 178.178C385.7 178.178 387.556 178.102 388.92 177.951C383.692 184.619 378.123 191.779 372.213 199.431C366.379 207.008 359.219 216.328 350.733 227.39C343.914 236.331 337.511 244.589 331.525 252.166C325.464 259.667 319.781 266.638 314.478 273.078C323.949 268.532 332.283 264.176 339.481 260.008C346.755 255.841 353.423 251.409 359.484 246.711C365.546 242.013 371.493 236.634 377.328 230.572C383.162 224.435 389.413 217.161 396.08 208.751L398.353 210.683C391.155 219.624 384.412 227.314 378.123 233.754C371.834 240.119 365.432 245.726 358.916 250.575C352.4 255.424 345.24 260.008 337.435 264.327C329.631 268.722 320.577 273.344 310.272 278.193C298.377 292.513 288.072 304.03 279.359 312.743C270.645 321.532 262.955 328.2 256.287 332.746C249.544 337.292 243.217 340.361 237.307 341.952C231.322 343.543 225.146 344.339 218.782 344.339ZM219.123 341.27C223.214 341.27 227.306 340.588 231.397 339.224C235.413 337.936 239.959 335.398 245.036 331.61C250.112 327.897 256.174 322.404 263.22 315.13C270.191 307.856 278.601 298.271 288.451 286.376C270.267 294.104 255.605 300.923 244.467 306.833C233.254 312.819 225.108 318.199 220.032 322.972C214.955 327.745 212.417 332.329 212.417 336.724C212.417 337.557 212.948 338.505 214.008 339.565C214.993 340.702 216.698 341.27 219.123 341.27Z" fill="#FCAEBD"/>
<path d="M404.377 255.576C396.952 255.576 391.648 253.644 388.466 249.78C385.283 245.915 383.616 241.18 383.465 235.573C383.389 231.481 384.223 226.935 385.965 221.935C387.708 216.934 389.526 213.108 391.421 210.456C397.027 202.651 403.089 196.287 409.605 191.362C416.121 186.437 422.486 182.838 428.699 180.565C434.987 178.216 440.519 177.042 445.292 177.042C449.914 177.042 453.134 177.799 454.953 179.315C456.847 180.83 457.832 182.573 457.907 184.543C458.135 187.498 456.544 190.945 453.134 194.885C449.8 198.749 443.928 202.955 435.518 207.501C427.108 212.047 415.363 216.82 400.285 221.821C397.634 226.064 395.853 229.739 394.944 232.845C394.035 235.876 393.58 238.604 393.58 241.028C393.58 244.589 394.754 247.355 397.103 249.325C399.528 251.295 402.369 252.28 405.627 252.28C412.749 252.28 419.417 250.954 425.63 248.302C431.919 245.574 437.639 242.165 442.792 238.073C448.02 233.982 452.604 229.852 456.544 225.685C460.484 221.442 463.704 217.767 466.204 214.661C468.704 211.479 470.371 209.509 471.205 208.751L473.592 210.683C472.455 211.668 470.523 213.827 467.795 217.161C465.143 220.495 461.734 224.321 457.567 228.64C453.475 232.959 448.739 237.164 443.36 241.256C437.98 245.347 431.995 248.757 425.403 251.484C418.887 254.212 411.878 255.576 404.377 255.576ZM402.899 217.843C417.599 212.691 429.191 207.387 437.677 201.932C446.163 196.401 450.406 191.135 450.406 186.134C450.406 181.891 448.436 179.769 444.496 179.769C439.42 179.769 433.927 182.497 428.017 187.952C422.107 193.408 415.212 201.326 407.332 211.706C405.665 213.827 404.188 215.873 402.899 217.843Z" fill="#FCAEBD"/>
<path d="M482.116 255.576C474.084 255.576 468.136 253.606 464.272 249.666C460.484 245.65 458.589 240.801 458.589 235.118C458.589 230.193 459.726 225.003 461.999 219.548C464.348 214.017 467.909 208.41 472.682 202.727C480.941 193.029 489.654 186.285 498.822 182.497C508.066 178.633 516.022 176.814 522.69 177.042C527.766 177.193 531.289 178.406 533.259 180.679C535.305 182.876 536.366 185.187 536.442 187.611C536.593 190.869 535.343 193.787 532.691 196.363C530.115 198.863 527.349 200.113 524.394 200.113C522.652 200.113 520.985 199.545 519.394 198.408C517.878 197.272 517.083 195.605 517.007 193.408C516.931 191.286 517.727 189.506 519.394 188.066C521.136 186.626 523.182 185.869 525.531 185.793C527.349 185.717 529.281 186.134 531.327 187.043V186.589C531.327 184.619 530.645 183.027 529.281 181.815C527.993 180.603 525.796 179.997 522.69 179.997C517.613 179.997 511.514 182.8 504.392 188.407C497.345 194.014 489.351 202.651 480.411 214.32C476.243 219.851 473.402 224.738 471.887 228.981C470.371 233.148 469.614 236.899 469.614 240.233C469.614 243.491 470.826 246.332 473.251 248.757C475.751 251.105 478.933 252.28 482.797 252.28C489.617 252.28 496.095 251.03 502.232 248.529C508.445 246.029 514.128 242.885 519.28 239.096C524.508 235.232 529.168 231.254 533.259 227.163C537.351 223.071 540.723 219.358 543.374 216.025C546.026 212.691 547.883 210.342 548.943 208.978C549.322 208.524 549.928 208.599 550.762 209.205C551.595 209.736 551.823 210.228 551.444 210.683C550.459 212.198 548.565 214.699 545.761 218.184C542.958 221.594 539.397 225.42 535.078 229.663C530.835 233.906 525.948 237.998 520.417 241.937C514.961 245.877 508.975 249.136 502.459 251.712C496.019 254.288 489.238 255.576 482.116 255.576Z" fill="#FCAEBD"/>
<path d="M541.101 255.121C536.934 255.121 533.828 254.288 531.782 252.621C529.66 250.954 528.6 248.832 528.6 246.256C528.6 244.211 528.865 242.203 529.395 240.233C529.926 238.187 531.062 235.611 532.805 232.504C534.547 229.398 537.199 225.231 540.76 220.002C544.322 214.699 549.133 207.766 555.194 199.204L584.517 157.948H575.538C573.265 157.948 572.129 157.456 572.129 156.471C572.129 155.258 573.568 154.652 576.447 154.652H586.79L607.816 125.102C608.801 125.254 610.089 125.405 611.68 125.557C613.347 125.633 615.696 125.633 618.726 125.557C620.242 125.557 621.871 125.405 623.613 125.102L601.678 154.652H631.001C633.122 154.652 634.183 155.182 634.183 156.243C634.183 157.38 633.236 157.948 631.342 157.948H599.178L569.174 198.408C562.051 207.955 556.331 215.797 552.012 221.935C547.693 228.072 544.397 232.921 542.124 236.482C539.927 240.043 538.412 242.695 537.578 244.438C536.82 246.181 536.442 247.469 536.442 248.302C536.442 250.575 538.336 251.787 542.124 251.939C547.352 251.863 552.732 250.158 558.263 246.825C563.87 243.415 569.249 239.286 574.402 234.436C579.554 229.511 584.176 224.7 588.267 220.002C592.359 215.229 595.541 211.479 597.814 208.751L600.315 210.683C598.117 213.259 594.897 216.972 590.654 221.821C586.411 226.67 581.524 231.671 575.993 236.823C570.538 241.9 564.817 246.218 558.831 249.78C552.846 253.341 546.936 255.121 541.101 255.121Z" fill="#FCAEBD"/>
<path d="M591.563 257.508C589.214 257.508 586.184 257.205 582.471 256.599C578.758 255.993 575.462 254.705 572.583 252.735C569.628 250.765 568.151 247.696 568.151 243.529C568.151 239.74 569.325 236.634 571.674 234.209C573.947 231.709 576.485 229.852 579.289 228.64C582.092 227.428 584.176 226.822 585.54 226.822C588.646 226.822 590.199 228.261 590.199 231.14C590.124 232.353 589.252 233.489 587.585 234.55C585.994 235.535 584.214 236.028 582.244 236.028C581.335 236.028 580.463 235.724 579.63 235.118C578.721 234.436 578.001 233.944 577.47 233.641C576.637 234.474 575.387 235.724 573.72 237.391C571.977 238.983 571.106 241.066 571.106 243.642C571.106 246.521 572.28 248.681 574.629 250.12C576.902 251.484 579.478 252.394 582.357 252.848C585.237 253.227 587.434 253.416 588.949 253.416C592.132 253.416 596.109 252.166 600.883 249.666C605.656 247.09 610.089 242.809 614.18 236.823C618.347 230.837 621.037 222.692 622.25 212.388C622.628 208.751 622.969 203.712 623.272 197.272C623.651 190.832 624.864 184.656 626.909 178.746C626.985 178.519 627.023 178.178 627.023 177.724C624.144 181.285 621.037 185.111 617.703 189.203C614.37 193.294 611.149 197.234 608.043 201.022C605.012 204.811 602.398 208.031 600.201 210.683C598.686 212.501 597.587 213.676 596.905 214.206C596.223 214.737 595.92 215.002 595.996 215.002C595.92 215.002 595.617 215.04 595.086 215.115C594.632 215.115 594.253 214.85 593.95 214.32C593.798 213.941 594.139 213.221 594.973 212.16C595.882 211.1 596.829 209.963 597.814 208.751C599.557 206.781 602.247 203.636 605.884 199.318C609.52 194.999 613.347 190.377 617.363 185.452C621.454 180.527 624.977 176.17 627.932 172.382C628.387 170.109 629.069 168.063 629.978 166.245C630.887 164.426 632.175 163.517 633.842 163.517C636.873 163.517 638.388 164.767 638.388 167.268C638.313 168.707 636.57 171.397 633.16 175.337C631.114 177.761 630.016 179.353 629.864 180.11C629.713 180.792 629.637 181.701 629.637 182.838C629.561 185.566 629.826 188.975 630.433 193.067C631.114 197.082 631.834 201.326 632.592 205.796C633.35 210.19 633.842 214.396 634.069 218.411C634.297 224.397 633.615 229.587 632.024 233.982C633.236 234.133 634.259 234.209 635.092 234.209C637.517 234.209 640.282 233.11 643.389 230.913C646.571 228.716 649.716 226.102 652.822 223.071C655.929 220.04 658.619 217.161 660.892 214.433C663.24 211.706 664.794 209.812 665.551 208.751L668.052 210.683C666.764 212.047 664.869 214.168 662.369 217.048C659.869 219.851 657.027 222.806 653.845 225.912C650.663 228.943 647.405 231.557 644.071 233.754C640.813 235.876 637.706 236.937 634.751 236.937C634.069 236.937 633.425 236.937 632.819 236.937C632.213 236.861 631.607 236.785 631.001 236.709C627.44 244.589 622.174 250.045 615.203 253.075C608.232 256.03 600.352 257.508 591.563 257.508Z" fill="#FCAEBD"/>
</svg>
