<svg width="1043" height="437" viewBox="0 0 1043 437" fill="none" xmlns="http://www.w3.org/2000/svg">
<path d="M176.714 424.598L136.186 404.604C149.894 384.054 166.781 361.098 186.846 335.735C207.11 310.372 228.368 285.194 250.619 260.202C244.857 258.721 238.301 256.962 230.951 254.925C223.6 252.889 215.256 250.482 205.918 247.705C194.197 244.188 182.774 240.67 171.648 237.153C160.523 233.635 149.696 230.395 139.166 227.433C118.108 240.948 100.327 249.186 85.8242 252.148C71.5202 254.925 58.7061 256.314 47.3821 256.314C33.2767 256.314 21.8534 254.462 13.112 250.76C4.37067 247.057 0 242.336 0 236.597C0 229.933 3.57601 224.656 10.728 220.769C17.88 216.696 26.9194 213.826 37.8461 212.16C48.9714 210.494 60.0968 209.661 71.2222 209.661C80.5595 209.661 89.2015 210.031 97.1482 210.772C105.294 211.327 115.128 212.715 126.65 214.937C142.345 202.163 158.735 187.167 175.82 169.95C193.104 152.548 210.09 134.22 226.779 114.966C243.467 95.7127 258.963 76.8293 273.267 58.3162C287.571 39.618 299.689 22.7711 309.623 7.7755C326.311 5.92419 340.118 4.16545 351.045 2.49927C361.971 0.833089 372.799 0 383.527 0C387.699 0 390.48 0.277696 391.871 0.833089C393.262 1.20335 393.957 2.03644 393.957 3.33236C393.957 4.25801 393.262 5.0911 391.871 5.83163C390.679 6.57215 387.302 7.96063 381.739 9.99707C373.196 13.3294 365.647 17.7726 359.091 23.3265C352.535 28.6953 343.098 37.1188 330.781 48.5969C326.41 52.6698 319.655 59.5196 310.517 69.1464C301.378 78.5881 290.65 89.7885 278.333 102.748C266.015 115.522 252.903 128.759 238.997 142.458C225.09 156.158 211.183 169.302 197.276 181.891C183.568 194.48 170.655 205.218 158.536 214.104L150.192 220.213C158.536 222.065 167.973 224.379 178.502 227.156C189.032 229.747 201.051 232.895 214.56 236.597L260.751 248.816C279.227 228.452 297.603 209.383 315.881 191.611C334.158 173.838 351.343 158.472 367.435 145.513C383.726 132.369 397.831 123.02 409.751 117.466C411.539 116.725 413.824 115.799 416.605 114.689C419.585 113.393 421.77 112.745 423.161 112.745C425.148 112.745 426.141 113.578 426.141 115.244C426.141 115.985 425.744 116.725 424.949 117.466C424.353 118.206 422.565 119.595 419.585 121.631C410.049 127.74 398.328 137.46 384.421 150.789C370.514 163.933 355.515 179.577 339.423 197.72C323.331 215.678 307.04 234.931 290.551 255.481C303.663 258.073 316.775 259.368 329.887 259.368C345.581 259.368 360.481 257.887 374.587 254.925C388.692 251.778 399.718 248.168 407.665 244.095C412.83 241.503 417.102 238.911 420.479 236.32C423.856 233.728 426.538 232.432 428.525 232.432C430.512 232.432 431.505 233.172 431.505 234.653C431.505 235.764 428.326 238.819 421.969 243.817C412.632 250.852 401.308 256.221 387.997 259.924C374.885 263.441 362.071 265.848 349.555 267.144C337.237 268.255 327.304 268.81 319.755 268.81C312.404 268.81 305.848 268.718 300.087 268.532C294.524 268.347 288.365 267.792 281.611 266.866C260.552 293.71 240.586 321.11 221.712 349.064C203.038 376.834 188.038 402.012 176.714 424.598ZM50.9581 249.371C58.1101 249.371 65.7588 248.353 73.9042 246.317C82.2482 244.28 91.5855 239.837 101.916 232.987C104.499 231.321 107.082 229.562 109.664 227.711C112.446 225.86 115.128 223.916 117.71 221.879C109.962 220.213 102.413 218.917 95.0622 217.992C87.7115 216.881 80.5595 216.326 73.6062 216.326C54.5341 216.326 40.6274 218.362 31.8861 222.435C23.3434 226.508 19.072 231.691 19.072 237.986C19.072 242.799 22.8467 245.946 30.3961 247.428C37.9454 248.723 44.7994 249.371 50.9581 249.371Z" fill="#1E2113"/>
<path d="M447.596 414.045C425.942 414.045 409.253 406.362 397.531 390.997C386.009 375.446 380.247 353.97 380.247 326.571C380.247 300.282 385.81 272.976 396.935 244.651C408.259 216.326 423.458 188.926 442.53 162.452C461.602 135.979 482.959 112.189 506.601 91.0844C530.441 69.7944 555.075 52.9475 580.505 40.5437C606.133 27.9548 630.867 21.6603 654.707 21.6603C678.746 21.6603 696.228 30.0838 707.155 46.9307C718.28 63.5925 723.843 85.1602 723.843 111.634C723.843 137.923 718.479 165.137 707.751 193.277C697.023 221.417 682.322 248.631 663.647 274.919C645.171 301.023 624.013 324.627 600.173 345.732C576.531 366.652 551.599 383.314 525.375 395.717C499.349 407.936 473.423 414.045 447.596 414.045ZM455.046 406.548C468.556 406.548 484.052 402.567 501.535 394.607C519.216 386.646 537.493 375.446 556.367 361.005C575.24 346.565 593.617 329.626 611.497 310.187C629.576 290.748 645.767 269.643 660.071 246.872C674.574 223.916 686.096 199.941 694.639 174.949C703.182 149.956 707.453 124.686 707.453 99.1376C707.453 72.1085 702.586 53.5954 692.851 43.5983C683.116 33.4161 670.501 28.325 655.005 28.325C640.701 28.325 624.807 33.7864 607.325 44.7091C590.041 55.4467 572.359 69.9795 554.281 88.3075C536.202 106.635 518.719 127.278 501.833 150.234C484.946 173.005 469.748 196.424 456.238 220.491C442.928 244.558 432.298 267.884 424.352 290.47C416.603 312.871 412.729 332.773 412.729 350.175C412.729 387.757 426.836 406.548 455.046 406.548Z" fill="#1E2113"/>
<path d="M788.211 437L747.683 417.006C761.391 396.456 778.278 373.5 798.343 348.137C818.607 322.774 839.865 297.596 862.116 272.604C856.354 271.123 849.798 269.364 842.448 267.327C835.097 265.291 826.753 262.884 817.415 260.107C805.694 256.59 794.271 253.072 783.145 249.555C772.02 246.037 761.192 242.798 750.663 239.836C729.604 253.35 711.824 261.588 697.321 264.55C683.017 267.327 670.203 268.716 658.879 268.716C644.774 268.716 633.35 266.865 624.609 263.162C615.867 259.459 611.497 254.739 611.497 249C611.497 242.335 615.073 237.059 622.225 233.171C629.377 229.098 638.416 226.228 649.343 224.562C660.468 222.896 671.594 222.063 682.719 222.063C692.056 222.063 700.698 222.433 708.645 223.174C716.79 223.729 726.624 225.118 738.147 227.339C753.842 214.565 770.232 199.57 787.317 182.352C804.601 164.95 821.588 146.622 838.276 127.368C854.964 108.115 870.459 89.2315 884.763 70.7184C899.067 52.0202 911.184 35.1733 921.118 20.1777C937.806 18.3263 951.613 16.5676 962.54 14.9014C973.467 13.2352 984.294 12.4022 995.022 12.4022C999.194 12.4022 1001.98 12.6799 1003.37 13.2352C1004.76 13.6055 1005.45 14.4386 1005.45 15.7345C1005.45 16.6602 1004.76 17.4933 1003.37 18.2338C1002.17 18.9743 998.797 20.3628 993.234 22.3992C984.691 25.7316 977.142 30.1747 970.586 35.7287C964.03 41.0975 954.593 49.5209 942.276 60.999C937.905 65.0719 931.15 71.9218 922.012 81.5486C912.873 90.9902 902.145 102.191 889.828 115.15C877.511 127.924 864.4 141.161 850.494 154.86C836.587 168.56 822.68 181.704 808.773 194.293C795.065 206.882 782.152 217.62 770.033 226.506L761.689 232.615C770.033 234.467 779.47 236.781 789.999 239.558C800.529 242.15 812.548 245.297 826.057 249L872.248 261.218C890.724 240.854 909.098 221.785 927.376 204.013C945.653 186.24 962.838 170.874 978.93 157.915C995.221 144.771 1009.33 135.422 1021.25 129.868C1023.03 129.127 1025.32 128.202 1028.1 127.091C1031.08 125.795 1033.27 125.147 1034.66 125.147C1036.64 125.147 1037.64 125.98 1037.64 127.646C1037.64 128.387 1037.24 129.127 1036.44 129.868C1035.85 130.608 1034.06 131.997 1031.08 134.033C1021.54 140.143 1009.82 149.862 995.916 163.191C982.009 176.336 967.01 191.979 950.918 210.122C934.826 228.08 918.535 247.333 902.046 267.883C915.158 270.475 928.27 271.771 941.382 271.771C957.076 271.771 971.977 270.29 986.082 267.327C1000.19 264.18 1011.21 260.57 1019.16 256.497C1024.33 253.905 1028.6 251.314 1031.97 248.722C1035.35 246.13 1038.03 244.834 1040.02 244.834C1042.01 244.834 1043 245.575 1043 247.056C1043 248.166 1039.82 251.221 1033.46 256.22C1024.13 263.255 1012.8 268.623 999.492 272.326C986.38 275.843 973.566 278.25 961.05 279.546C948.732 280.657 938.799 281.212 931.25 281.212C923.899 281.212 917.343 281.12 911.582 280.935C906.019 280.749 899.861 280.194 893.106 279.268C872.047 306.112 852.083 333.512 833.21 361.467C814.535 389.236 799.535 414.414 788.211 437ZM662.455 261.774C669.607 261.774 677.256 260.755 685.401 258.719C693.745 256.682 703.082 252.239 713.413 245.389C715.996 243.723 718.578 241.965 721.161 240.113C723.942 238.262 726.624 236.318 729.207 234.282C721.459 232.615 713.91 231.32 706.559 230.394C699.208 229.283 692.056 228.728 685.103 228.728C666.031 228.728 652.124 230.764 643.383 234.837C634.84 238.91 630.569 244.094 630.569 250.388C630.569 255.201 634.344 258.349 641.893 259.83C649.442 261.126 656.296 261.774 662.455 261.774Z" fill="#1E2113"/>
</svg>
