<svg width="127" height="42" viewBox="0 0 127 42" fill="none" xmlns="http://www.w3.org/2000/svg">
<path d="M6.70554 40.9038C4.58698 40.9038 2.93489 40.515 1.74927 39.7376C0.583091 38.9601 0 38.0175 0 36.9096C0 36.0544 0.301264 35.4422 0.903791 35.0729C1.50632 34.6841 2.10884 34.4898 2.71137 34.4898C3.04179 34.4898 3.36249 34.5967 3.67347 34.8105C4.00389 35.0243 4.1691 35.3644 4.1691 35.8309C4.1691 36.2002 4.00389 36.5403 3.67347 36.8513C3.34305 37.1428 2.95433 37.2886 2.50729 37.2886C1.9242 37.2886 1.47716 37.1914 1.16618 36.9971V37.1428C1.16618 37.998 1.65209 38.7269 2.62391 39.3294C3.61516 39.9125 4.82022 40.2041 6.23907 40.2041C8.31876 40.2041 10.1944 39.689 11.8659 38.6589C13.5374 37.6093 15.0826 36.2293 16.5015 34.5189C17.9203 32.8085 19.2614 30.9135 20.5248 28.8338C21.8076 26.7541 23.0807 24.6647 24.344 22.5656L24.9271 21.6035C21.8562 21.4868 19.1059 21.0301 16.6764 20.2332C14.2663 19.4169 12.381 18.309 11.0204 16.9096C9.67931 15.5102 9.06706 13.8872 9.18368 12.0408C9.28086 10.3109 9.90282 8.71716 11.0496 7.25944C12.1963 5.78227 13.7221 4.50919 15.6268 3.44019C17.551 2.35176 19.7182 1.50628 22.1283 0.903748C24.5578 0.301221 27.104 -4.24776e-05 29.7668 -4.24776e-05C31.2051 -4.24776e-05 32.4587 0.136012 33.5277 0.408121C34.6161 0.68023 35.1604 0.952339 35.1604 1.22445C35.1604 1.30219 35.0437 1.34107 34.8105 1.34107C34.6745 1.34107 34.5384 1.33135 34.4023 1.31191C34.2857 1.27304 34.1497 1.24388 33.9942 1.22445C33.3722 1.06896 32.7308 0.942621 32.07 0.845439C31.4286 0.728821 30.6511 0.670512 29.7376 0.670512C27.483 0.670512 25.2673 0.962057 23.0904 1.54515C20.933 2.1088 18.9602 2.91541 17.172 3.96497C15.4033 5.01454 13.9747 6.26818 12.8863 7.72591C11.8173 9.18364 11.2342 10.8066 11.137 12.5947C11.0593 13.7609 11.516 14.966 12.5073 16.2099C13.518 17.4538 15.0923 18.5131 17.2303 19.3877C19.3683 20.2624 22.0894 20.758 25.3936 20.8746C30.0389 13.5665 34.3052 8.26041 38.1924 4.95623C42.0797 1.65205 45.7726 -4.24776e-05 49.2712 -4.24776e-05C50.4373 -4.24776e-05 51.3606 0.310939 52.0408 0.932903C52.7211 1.55487 53.0321 2.44894 52.9738 3.61512C52.896 5.11172 52.2352 6.79296 50.9913 8.65885C49.7668 10.5247 48.0953 12.3518 45.9767 14.1399C43.8581 15.9281 41.4189 17.483 38.6589 18.8046C35.8989 20.1263 32.9349 20.9912 29.7668 21.3994C28.1147 23.9455 26.4334 26.3945 24.723 28.7463C23.0126 31.0787 21.2245 33.1584 19.3586 34.9854C17.5122 36.8124 15.5394 38.2604 13.4402 39.3294C11.3605 40.379 9.11565 40.9038 6.70554 40.9038ZM30.3207 20.5831C33.1196 20.1166 35.7726 19.2517 38.2799 17.9883C40.7872 16.7055 43.0127 15.2186 44.9563 13.5277C46.8999 11.8367 48.4354 10.1069 49.5627 8.33815C50.7095 6.56945 51.3217 4.95623 51.3994 3.4985C51.4966 2.44894 51.2925 1.72008 50.7872 1.31191C50.2819 0.903748 49.7668 0.709385 49.242 0.728821C46.8319 0.806566 44.2663 2.26429 41.5452 5.102C38.8436 7.93971 35.792 12.0311 32.3907 17.3761C32.0408 17.9203 31.691 18.4548 31.3411 18.9796C30.9913 19.5043 30.6511 20.0388 30.3207 20.5831ZM36.1225 41.0204C34.2177 41.0204 32.8572 40.5248 32.0408 39.5335C31.2245 38.5423 30.7969 37.3275 30.758 35.8892C30.7386 34.8396 30.9524 33.6734 31.3994 32.3906C31.8465 31.1078 32.3129 30.1263 32.7988 29.446C34.2371 27.4441 35.792 25.8114 37.4636 24.5481C39.1351 23.2847 40.7678 22.3615 42.3615 21.7784C43.9748 21.1759 45.3936 20.8746 46.6181 20.8746C47.8037 20.8746 48.6298 21.069 49.0962 21.4577C49.5821 21.8464 49.8348 22.2935 49.8543 22.7988C49.9126 23.5568 49.5044 24.4412 48.6298 25.4519C47.7746 26.4431 46.2682 27.5218 44.1108 28.688C41.9534 29.8542 38.9407 31.0787 35.0729 32.3615C34.3926 33.4499 33.9359 34.3926 33.7026 35.1895C33.4694 35.9669 33.3528 36.6666 33.3528 37.2886C33.3528 38.2021 33.654 38.9115 34.2566 39.4169C34.8785 39.9222 35.6074 40.1749 36.4432 40.1749C38.2702 40.1749 39.9806 39.8348 41.5744 39.1545C43.1876 38.4548 44.655 37.5802 45.9767 36.5306C47.3178 35.481 48.4937 34.4217 49.5044 33.3527C50.5151 32.2643 51.3411 31.3216 51.9825 30.5248C52.6239 29.7084 53.0515 29.2031 53.2653 29.0087L53.8776 29.5043C53.586 29.757 53.0904 30.311 52.3907 31.1662C51.7104 32.0214 50.8358 33.0029 49.7668 34.1108C48.7172 35.2186 47.5025 36.2974 46.1225 37.3469C44.7425 38.3965 43.207 39.2711 41.5161 39.9708C39.8445 40.6705 38.0467 41.0204 36.1225 41.0204ZM35.7435 31.3411C39.5141 30.0194 42.4879 28.6589 44.6647 27.2594C46.8416 25.8406 47.9301 24.4898 47.9301 23.207C47.9301 22.1185 47.4247 21.5743 46.414 21.5743C45.1118 21.5743 43.7026 22.274 42.1866 23.6734C40.6706 25.0729 38.9019 27.104 36.8805 29.7667C36.4529 30.311 36.0739 30.8357 35.7435 31.3411ZM69.1837 40.9038C68.1147 40.9038 67.1818 40.6997 66.3849 40.2915C65.6074 39.8834 65.2187 39.3391 65.2187 38.6589C65.2187 38.1341 65.3353 37.5218 65.5685 36.8221C65.8018 36.103 66.3557 35.1215 67.2304 33.8775C68.1244 32.6336 69.5238 30.9426 71.4286 28.8046C72.9641 27.0748 74.0234 25.7337 74.6065 24.7813C75.1895 23.8289 75.4811 23.1195 75.4811 22.653C75.4811 22.3809 75.3839 22.138 75.1895 21.9242C74.9952 21.7104 74.6259 21.6035 74.0817 21.6035C73.6929 21.6035 73.1682 21.7298 72.5073 21.9825C71.8659 22.2351 71.0982 22.6627 70.2041 23.2653C68.6686 24.3148 66.7833 25.9378 64.5481 28.1341C62.313 30.311 59.7474 33.1778 56.8513 36.7347L54.14 40.2915C53.6346 40.1943 53.071 40.1458 52.449 40.1458C51.7493 40.1458 51.1662 40.1846 50.6997 40.2624C50.2527 40.3207 49.9126 40.379 49.6793 40.4373C51.8562 37.2886 53.6735 34.6841 55.1312 32.6239C56.5889 30.5442 57.7551 28.8824 58.6298 27.6385C59.5238 26.3945 60.1847 25.4519 60.6123 24.8105C61.0593 24.1496 61.3606 23.6832 61.5161 23.411C61.6716 23.1195 61.759 22.8863 61.7785 22.7113C61.8173 22.1477 61.6035 21.8659 61.1371 21.8659C60.8649 21.8659 60.4373 22.138 59.8543 22.6822C59.2712 23.2264 58.6103 23.9067 57.8717 24.723C57.1526 25.5393 56.4432 26.3848 55.7435 27.2594C55.0438 28.1146 54.4315 28.8629 53.9067 29.5043C53.7707 29.5821 53.5957 29.5335 53.3819 29.3586C53.2653 29.1836 53.2362 29.067 53.2945 29.0087C53.8581 28.4062 54.4898 27.6579 55.1895 26.7638C55.9087 25.8503 56.657 24.9465 57.4344 24.0524C58.2119 23.1389 59.0088 22.3809 59.8251 21.7784C60.6414 21.1759 61.4286 20.8746 62.1866 20.8746C62.7503 20.8746 63.3042 21.0009 63.8484 21.2536C64.4121 21.4868 64.6453 22.0602 64.5481 22.9737C64.5287 23.2847 64.4315 23.6832 64.2566 24.1691C64.0817 24.6355 63.7318 25.2381 63.207 25.9766L57.0846 34.4898L57.2303 34.8105C60.2624 31.3897 62.7891 28.7075 64.8105 26.7638C66.8513 24.8007 68.5715 23.3527 69.9709 22.4198C70.9038 21.7978 71.7202 21.3897 72.4199 21.1953C73.139 20.9815 73.7998 20.8746 74.4024 20.8746C75.6657 20.8746 76.5501 21.1856 77.0554 21.8075C77.5802 22.4101 77.8329 23.0806 77.8134 23.8192C77.794 24.5967 77.5316 25.5296 77.0263 26.618C76.5404 27.687 75.6949 29.0282 74.4898 30.6414C73.3042 32.2352 71.6327 34.2079 69.4753 36.5597C68.484 37.6093 67.8815 38.2896 67.6677 38.6006C67.4733 38.8921 67.3761 39.1642 67.3761 39.4169C67.3761 39.6113 67.5705 39.7765 67.9592 39.9125C68.3674 40.0291 68.8727 40.0874 69.4753 40.0874C70.6609 40.0874 71.8756 39.7473 73.1196 39.067C74.3635 38.3868 75.5685 37.5413 76.7347 36.5306C77.9203 35.5005 78.9991 34.4509 79.9709 33.3819C80.9427 32.3129 81.7493 31.3702 82.3907 30.5539C83.0515 29.7376 83.4791 29.2225 83.6735 29.0087L84.2858 29.5043C84.0525 29.757 83.5958 30.3012 82.9155 31.137C82.2547 31.9728 81.4189 32.9446 80.4082 34.0525C79.3975 35.1409 78.2799 36.2099 77.0554 37.2595C75.8309 38.309 74.5481 39.1837 73.207 39.8834C71.8659 40.5636 70.5248 40.9038 69.1837 40.9038ZM82.0409 41.516C81.4383 41.516 80.6609 41.4383 79.7085 41.2828C78.7561 41.1273 77.9106 40.7969 77.172 40.2915C76.414 39.7862 76.035 38.999 76.035 37.93C76.035 36.9582 76.3363 36.1613 76.9388 35.5393C77.5219 34.8979 78.173 34.4217 78.8922 34.1108C79.6113 33.7998 80.1458 33.6443 80.4957 33.6443C81.2926 33.6443 81.691 34.0136 81.691 34.7522C81.6716 35.0631 81.448 35.3547 81.0204 35.6268C80.6123 35.8795 80.1555 36.0058 79.6502 36.0058C79.4169 36.0058 79.1934 35.9281 78.9796 35.7726C78.7464 35.5976 78.5617 35.4713 78.4257 35.3936C78.2119 35.6074 77.8912 35.9281 77.4636 36.3557C77.0166 36.7638 76.793 37.2983 76.793 37.9592C76.793 38.6977 77.0943 39.2517 77.6968 39.621C78.2799 39.9708 78.9408 40.2041 79.6793 40.3207C80.4179 40.4179 80.9816 40.4665 81.3703 40.4665C82.1866 40.4665 83.207 40.1458 84.4315 39.5044C85.656 38.8435 86.793 37.7454 87.8426 36.2099C88.9116 34.6744 89.6016 32.585 89.9126 29.9417C90.0098 29.0087 90.0972 27.7162 90.175 26.0641C90.2722 24.412 90.5831 22.828 91.1079 21.3119C91.1274 21.2536 91.1371 21.1661 91.1371 21.0495C90.3985 21.963 89.6016 22.9446 88.7464 23.9941C87.8912 25.0437 87.0652 26.0544 86.2683 27.0262C85.4908 27.998 84.8203 28.8241 84.2566 29.5043C83.8679 29.9708 83.586 30.2721 83.4111 30.4081C83.2362 30.5442 83.1584 30.6122 83.1779 30.6122C83.1584 30.6122 83.0807 30.6219 82.9446 30.6414C82.828 30.6414 82.7308 30.5733 82.6531 30.4373C82.6142 30.3401 82.7017 30.1555 82.9155 29.8834C83.1487 29.6112 83.3917 29.3197 83.6444 29.0087C84.0914 28.5034 84.7814 27.6968 85.7143 26.5889C86.6473 25.481 87.6288 24.2954 88.6589 23.032C89.7085 21.7687 90.6123 20.6511 91.3703 19.6793C91.4869 19.0962 91.6619 18.5714 91.8951 18.1049C92.1283 17.6385 92.4587 17.4052 92.8863 17.4052C93.6638 17.4052 94.0525 17.7259 94.0525 18.3673C94.0331 18.7366 93.5861 19.4266 92.7114 20.4373C92.1866 21.0592 91.9048 21.4674 91.8659 21.6618C91.8271 21.8367 91.8076 22.0699 91.8076 22.3615C91.7882 23.0612 91.8562 23.9358 92.0117 24.9854C92.1866 26.0155 92.3713 27.104 92.5656 28.2507C92.76 29.378 92.8863 30.4567 92.9447 31.4869C93.003 33.0223 92.828 34.3537 92.4199 35.481C92.7309 35.5199 92.9932 35.5393 93.207 35.5393C93.829 35.5393 94.5384 35.2575 95.3353 34.6939C96.1517 34.1302 96.9583 33.4596 97.7552 32.6822C98.552 31.9047 99.242 31.1662 99.8251 30.4664C100.428 29.7667 100.826 29.2808 101.02 29.0087L101.662 29.5043C101.331 29.8542 100.846 30.3984 100.204 31.137C99.5627 31.8561 98.8339 32.6142 98.0175 33.4111C97.2012 34.1885 96.3655 34.8591 95.5103 35.4227C94.6745 35.9669 93.8776 36.239 93.1196 36.239C92.9447 36.239 92.7794 36.239 92.624 36.239C92.4685 36.2196 92.313 36.2002 92.1575 36.1807C91.244 38.2021 89.8931 39.6015 88.105 40.379C86.3169 41.137 84.2955 41.516 82.0409 41.516ZM100.787 40.9038C99.5433 40.9038 98.6298 40.5636 98.0467 39.8834C97.483 39.2031 97.2012 38.2701 97.2012 37.0845C97.2012 35.7823 97.4733 34.3926 98.0175 32.9154C98.5812 31.4383 99.5044 29.9708 100.787 28.5131C103.411 25.4616 105.86 23.4305 108.134 22.4198C110.428 21.3897 112.575 20.8746 114.577 20.8746C115.588 20.8746 116.443 21.0884 117.143 21.516C117.843 21.9436 118.192 22.5267 118.192 23.2653C118.192 23.8289 118.076 24.4023 117.843 24.9854C118.465 24.2468 118.989 23.6054 119.417 23.0612C119.864 22.4975 120.292 21.963 120.7 21.4577C121.205 21.6132 121.788 21.6909 122.449 21.6909C122.721 21.6909 123.09 21.6812 123.557 21.6618C124.023 21.6423 124.383 21.6132 124.636 21.5743L114.811 33.4111C113.567 34.8882 112.673 36.0933 112.128 37.0262C111.584 37.9397 111.312 38.6492 111.312 39.1545C111.312 39.7765 111.613 40.0874 112.216 40.0874C113.265 40.0874 114.354 39.7862 115.481 39.1837C116.608 38.5617 117.716 37.7745 118.805 36.8221C119.893 35.8503 120.914 34.8493 121.866 33.8192C122.818 32.7697 123.654 31.8076 124.373 30.9329C125.112 30.0388 125.675 29.378 126.064 28.9504L126.647 29.446C126.22 29.9319 125.617 30.6317 124.84 31.5452C124.062 32.4587 123.168 33.4499 122.157 34.5189C121.166 35.5879 120.088 36.6083 118.921 37.5802C117.775 38.552 116.589 39.3489 115.364 39.9708C114.159 40.5928 112.964 40.9038 111.778 40.9038C109.835 40.9038 108.863 40.3012 108.863 39.0962C108.863 38.6492 108.941 38.2021 109.096 37.7551C109.271 37.2886 109.611 36.6958 110.117 35.9767C110.622 35.2381 111.38 34.2565 112.391 33.032L112.099 32.9154C109.728 35.8309 107.532 37.8911 105.51 39.0962C103.508 40.3012 101.934 40.9038 100.787 40.9038ZM100.904 40.0291C102.148 40.0291 103.79 39.31 105.831 37.8717C107.872 36.414 110.321 33.9941 113.178 30.6122C113.644 30.0486 114.072 29.5238 114.461 29.0379C114.869 28.552 115.258 28.0952 115.627 27.6676C116.074 26.9873 116.472 26.2779 116.822 25.5393C117.192 24.8007 117.376 24.1302 117.376 23.5277C117.376 22.9251 117.162 22.4878 116.735 22.2157C116.307 21.9242 115.841 21.7784 115.335 21.7784C114.383 21.7784 112.838 22.4684 110.7 23.8484C108.581 25.2089 106.249 27.3955 103.703 30.4081C102.245 32.1574 101.195 33.7123 100.554 35.0729C99.9126 36.4334 99.5919 37.5802 99.5919 38.5131C99.5919 39.5238 100.029 40.0291 100.904 40.0291Z" fill="#FCAEBD"/>
</svg>
